<svg width="19" height="15" viewBox="0 0 19 15" xmlns="http://www.w3.org/2000/svg">
    <g fill="#FFF" fill-rule="evenodd" opacity=".6">
        <path d="M7.091 9.382c0 .158-.13.285-.29.285a.288.288 0 0 1-.292-.285V7.937c0-.157.13-.285.291-.285.16 0 .291.128.291.285v1.445zm0 2.89c0 .157-.13.285-.29.285a.288.288 0 0 1-.292-.285v-1.445c0-.158.13-.285.291-.285.16 0 .291.127.291.285v1.445zM19 7.276V5.873a.547.547 0 0 0-.551-.54H7.09v1.16c0 .157-.13.285-.29.285a.288.288 0 0 1-.292-.286v-1.16H2.745a.547.547 0 0 0-.551.541v1.404a2.96 2.96 0 0 1 1.794.838c.556.547.863 1.274.863 2.047 0 .772-.307 1.499-.863 2.046a2.96 2.96 0 0 1-1.794.838v1.414c0 .298.247.54.55.54H6.51v-1.283c0-.158.13-.285.291-.285.16 0 .291.127.291.285V15h11.358a.547.547 0 0 0 .551-.54v-1.413a2.96 2.96 0 0 1-1.8-.835 2.852 2.852 0 0 1-.867-2.05c0-.775.308-1.503.866-2.05A2.96 2.96 0 0 1 19 7.275z"/>
        <path d="M4.075 9.938c.085.225.133.46.145.696.032-.153.049-.31.049-.472 0-1.039-.7-1.922-1.66-2.221a2.404 2.404 0 0 0-.707-.108.288.288 0 0 1-.29-.285V5.873c0-.068.006-.134.018-.198.095-.518.56-.913 1.115-.913h13.052c.037-.93.647-1.77 1.554-2.097a.284.284 0 0 0 .173-.366l-.59-1.571a1.112 1.112 0 0 0-.59-.625 1.147 1.147 0 0 0-.866-.034L.742 5.387A1.106 1.106 0 0 0 .07 6.814l.59 1.571a.293.293 0 0 0 .373.17c1.226-.438 2.591.182 3.042 1.383"/>
    </g>
</svg>
