<svg width="33.628" height="33.31" viewBox="0 0 33.628 33.31" xmlns="http://www.w3.org/2000/svg" xmlns:xlink="http://www.w3.org/1999/xlink">
    <defs>
        <rect id="8z3b7mu47a" x="0" y="0" width="33.628" height="33.31" rx="16.655"/>
    </defs>
    <g fill="none" fill-rule="evenodd">
        <mask id="v17fqt7wab" fill="#fff">
            <use xlink:href="#8z3b7mu47a"/>
        </mask>
        <use fill-opacity=".01" fill="#0C0D13" xlink:href="#8z3b7mu47a"/>
        <g mask="url(#v17fqt7wab)">
            <path fill="#B4802C" d="m16.515 12.52-3.77 1.785 3.77 1.785 3.768-1.785z"/>
            <path fill="#DBA752" d="m12.406 19.283 3.852 1.824v-4.574l-3.852-1.824z"/>
            <path fill="#F4D56F" d="M16.772 16.533v4.574l3.851-1.824V14.71z"/>
            <path fill="#B4802C" d="m16.515 4.02-2.796 1.324 2.796 1.324 2.795-1.324z"/>
            <path fill="#DBA752" d="m13.467 9.036 2.857 1.353V6.997l-2.857-1.353z"/>
            <path fill="#F4D56F" d="M16.705 6.997v3.392l2.857-1.353V5.644z"/>
            <path fill="#B4802C" d="m16.582 23.305-2.795 1.324 2.795 1.324 2.795-1.324z"/>
            <path fill="#DBA752" d="m13.534 28.321 2.857 1.353v-3.393l-2.857-1.353z"/>
            <path fill="#F4D56F" d="M16.773 26.281v3.393l2.857-1.353v-3.393z"/>
            <path fill="#B4802C" d="m24.898 8.96-2.795 1.323 2.795 1.324 2.796-1.324z"/>
            <path fill="#DBA752" d="m21.85 13.975 2.858 1.353v-3.392l-2.857-1.353z"/>
            <path fill="#F4D56F" d="M25.089 11.936v3.392l2.857-1.353v-3.392z"/>
            <path fill="#B4802C" d="M8.266 8.96 5.47 10.282l2.796 1.324 2.795-1.324z"/>
            <path fill="#DBA752" d="m5.218 13.975 2.857 1.353v-3.392l-2.857-1.353z"/>
            <path fill="#F4D56F" d="M8.456 11.936v3.392l2.857-1.353v-3.392z"/>
            <path fill="#B4802C" d="m24.83 18.364-2.795 1.324 2.796 1.324 2.795-1.324z"/>
            <path fill="#DBA752" d="m21.783 23.38 2.857 1.353v-3.392l-2.857-1.354z"/>
            <path fill="#F4D56F" d="M25.022 21.34v3.393l2.856-1.353v-3.393z"/>
            <path fill="#B4802C" d="M8.266 18.43 5.47 19.756l2.796 1.324 2.795-1.324z"/>
            <path fill="#DBA752" d="M5.218 23.447 8.075 24.8v-3.393l-2.857-1.353z"/>
            <path fill="#F4D56F" d="M8.456 21.407V24.8l2.857-1.353v-3.393z"/>
            <path fill="#FFF" d="m11.673 10.511 1.81-1.037-.308-.146v-.361l-1.838 1.052.336.159zM16.283 10.8v1.534l.299-.142.299.142V10.8l-.299.142zM19.989 9.328l-.309.146 1.811 1.037v-.333l.336-.159-1.838-1.052zM24.898 15.814l-.298-.142v2.48h.053l.245-.116.246.116h.053v-2.48zM11.673 20.033l.638-.365-.197-.093v-.479l-.728.417.287.136zM11.673 23.672l-.251.118 1.753 1.004v-.27l.395-.188-1.897-1.086zM21.05 19.575l-.197.093.638.365v-.384l.287-.136-.728-.417zM21.491 23.25l-1.897 1.086.395.187v.271l1.753-1.004-.25-.118zM7.967 15.672v2.505l.299-.141.298.141v-2.505l-.298.142z"/>
        </g>
    </g>
</svg>
