<svg width="33.628" height="33.31" viewBox="0 0 33.628 33.31" xmlns="http://www.w3.org/2000/svg">
    <g fill="none" fill-rule="evenodd">
        <path d="M16.973 0c9.198 0 16.655 7.457 16.655 16.655 0 9.199-7.457 16.655-16.655 16.655h-.318C7.457 33.31 0 25.854 0 16.655 0 7.457 7.457 0 16.655 0h.318z" fill-opacity=".01" fill="#0C0D13"/>
        <g fill-rule="nonzero">
            <path d="M23.516 13.56c-.456-.249-1.042-.249-1.563 0l-3.645 2.057-2.474 1.308-3.58 2.056c-.455.25-1.041.25-1.562 0l-2.799-1.62a1.508 1.508 0 0 1-.781-1.308v-3.116c0-.498.26-.997.781-1.308l2.799-1.558c.456-.25 1.042-.25 1.562 0l2.8 1.62c.455.25.78.748.78 1.308v2.057l2.474-1.371v-2.119c0-.498-.26-.997-.781-1.308l-5.208-2.93c-.455-.248-1.041-.248-1.562 0L5.42 10.32c-.52.25-.78.748-.78 1.246v5.858c0 .498.26.997.78 1.308l5.273 2.929c.456.25 1.042.25 1.562 0l3.58-1.994 2.474-1.371 3.58-1.994c.456-.25 1.042-.25 1.562 0l2.8 1.558c.455.25.78.748.78 1.308v3.116c0 .499-.26.997-.78 1.309l-2.734 1.558c-.456.249-1.042.249-1.563 0l-2.799-1.558a1.508 1.508 0 0 1-.78-1.309V20.29L15.9 21.661v2.056c0 .499.26.997.78 1.309l5.273 2.929c.456.249 1.042.249 1.563 0l5.272-2.93c.456-.248.781-.747.781-1.308v-5.92c0-.498-.26-.996-.78-1.308l-5.273-2.929z" fill="#B4802C"/>
            <path d="M23.516 12.86c-.456-.248-1.042-.248-1.563 0l-3.645 2.057-2.474 1.309-3.58 2.056c-.455.25-1.041.25-1.562 0l-2.799-1.62a1.508 1.508 0 0 1-.781-1.309v-3.115c0-.499.26-.997.781-1.309l2.799-1.558c.456-.249 1.042-.249 1.562 0l2.8 1.62c.455.25.78.748.78 1.309v2.056l2.474-1.37v-2.12c0-.498-.26-.996-.781-1.308L12.319 6.63c-.455-.25-1.041-.25-1.562 0L5.42 9.62c-.52.25-.78.748-.78 1.247v5.857c0 .499.26.997.78 1.309l5.273 2.929c.456.249 1.042.249 1.562 0l3.58-1.994 2.474-1.371 3.58-1.994c.456-.25 1.042-.25 1.562 0l2.8 1.557c.455.25.78.748.78 1.309v3.116c0 .498-.26.997-.78 1.308l-2.734 1.558c-.456.25-1.042.25-1.563 0l-2.799-1.558a1.508 1.508 0 0 1-.78-1.308V19.59L15.9 20.96v2.057c0 .498.26.997.78 1.308l5.273 2.93c.456.248 1.042.248 1.563 0l5.272-2.93c.456-.249.781-.747.781-1.308v-5.92c0-.498-.26-.997-.78-1.308l-5.273-2.93z" fill="#6F5223"/>
            <path d="M23.516 12.161c-.456-.249-1.042-.249-1.563 0l-3.645 2.057-2.474 1.308-3.58 2.057c-.455.249-1.041.249-1.562 0l-2.799-1.62a1.508 1.508 0 0 1-.781-1.309v-3.116c0-.498.26-.997.781-1.308l2.799-1.558c.456-.25 1.042-.25 1.562 0l2.8 1.62c.455.25.78.748.78 1.309v2.056l2.474-1.37v-2.12c0-.498-.26-.997-.781-1.308L12.319 5.93c-.455-.25-1.041-.25-1.562 0L5.42 8.921c-.52.25-.78.748-.78 1.246v5.858c0 .498.26.997.78 1.308l5.273 2.93c.456.248 1.042.248 1.562 0l3.58-1.995 2.474-1.37 3.58-1.995c.456-.249 1.042-.249 1.562 0l2.8 1.558c.455.25.78.748.78 1.309v3.115c0 .499-.26.997-.78 1.309l-2.734 1.558c-.456.249-1.042.249-1.563 0l-2.799-1.558a1.508 1.508 0 0 1-.78-1.309v-1.994L15.9 20.262v2.057c0 .498.26.997.78 1.308l5.273 2.929c.456.25 1.042.25 1.563 0l5.272-2.929c.456-.25.781-.748.781-1.308v-5.92c0-.499-.26-.997-.78-1.309l-5.273-2.929z" fill="#F4D56F"/>
        </g>
    </g>
</svg>
