<svg width="28" height="28" viewBox="0 0 28 28" xmlns="http://www.w3.org/2000/svg" xmlns:xlink="http://www.w3.org/1999/xlink">
    <defs>
        <path id="voxfn5bvha" d="M0 0h28v28H0z"/>
    </defs>
    <g fill="none" fill-rule="evenodd">
        <mask id="0jxd599e6b" fill="#fff">
            <use xlink:href="#voxfn5bvha"/>
        </mask>
        <use fill-opacity=".01" fill="#FFF" xlink:href="#voxfn5bvha"/>
        <path d="M10.313 22.66a1.23 1.23 0 0 1 .002-1.643l5.097-5.512-5.087-5.524a1.23 1.23 0 0 1 .001-1.642 1.014 1.014 0 0 1 1.515.002l5.846 6.345c.2.218.313.513.313.821 0 .308-.114.603-.315.821l-5.856 6.333c-.21.226-.484.34-.759.339-.274 0-.548-.114-.757-.34z" fill="#000" mask="url(#0jxd599e6b)" transform="rotate(90 14 15.5)"/>
    </g>
</svg>
