<svg width="26" height="20.971" viewBox="0 0 26 20.971" xmlns="http://www.w3.org/2000/svg">
    <path d="M21.934 2.143c.556 0 1.072.102 1.555.306.486.205.917.503 1.317.905.394.402.693.849.886 1.345.2.496.3 1.023.3 1.588L26 12.546c0 .567-.1 1.101-.3 1.597a3.98 3.98 0 0 1-.894 1.345 4.354 4.354 0 0 1-1.13.827l-.031.015a3.806 3.806 0 0 1-.81.275 4.3 4.3 0 0 1-.9.094h-2.953c.039.125.076.253.122.378.116.346.254.692.4 1.03.132.324.315.623.54.923.232.306.508.605.84.913a.587.587 0 0 1 .046.827.555.555 0 0 1-.57.181 13.413 13.413 0 0 1-2.02-.708 12.227 12.227 0 0 1-1.795-.992 11.671 11.671 0 0 1-1.564-1.258 12.804 12.804 0 0 1-1.154-1.283h-2.019c-.378 0-.748-.047-1.093-.14a3.716 3.716 0 0 1-.993-.44.594.594 0 0 1-.193-.803.567.567 0 0 1 .785-.196c.217.134.446.237.7.306.247.071.516.103.794.103h2.303c.177 0 .346.078.462.236.363.496.763.952 1.2 1.37.431.418.901.795 1.409 1.133.485.322 1.001.614 1.548.864a6.37 6.37 0 0 1-.278-.542 15.335 15.335 0 0 1-.77-2.268.578.578 0 0 1-.03-.206c0-.322.254-.59.577-.59h3.705a2.936 2.936 0 0 0 1.216-.261c.009-.009.016-.009.024-.016a2.812 2.812 0 0 0 .818-.599c.285-.29.501-.614.639-.96.138-.347.208-.733.208-1.149V6.296c0-.418-.07-.802-.208-1.148a2.95 2.95 0 0 0-.639-.96 2.86 2.86 0 0 0-.94-.653 2.917 2.917 0 0 0-1.124-.213h-3.87a.583.583 0 0 1-.577-.59c0-.321.254-.59.578-.59h3.875zM12.78 0c.971 0 1.796.337 2.472 1.041.677.7 1.016 1.542 1.016 2.525v6.256c0 .99-.332 1.832-1.016 2.525-.685.686-1.51 1.039-2.472 1.039h-2.31a10.801 10.801 0 0 1-2.749 2.643 12.102 12.102 0 0 1-3.643 1.62c.708-.646 1.224-1.323 1.524-2.031.308-.7.553-1.448.755-2.235H3.488a3.33 3.33 0 0 1-2.471-1.038C.339 11.655 0 10.812 0 9.82V3.564c0-.99.33-1.832 1.017-2.525C1.702.346 2.527 0 3.488 0zm7.782 7.072 2.185 5.634h-1.888l-.29-.929h-2.043l-.294.93h-1.839l2.196-5.635h1.973zm-1.01 1.46-.64 2.025h1.276l-.637-2.024zM8.032 3.203c-1.012 0-1.8.272-2.364.82-.564.547-.846 1.316-.846 2.303 0 1.017.321 1.808.966 2.369.545.476 1.29.712 2.235.712.639 0 1.17-.089 1.595-.265.105.084.288.214.55.388.263.172.53.322.797.447l.531-1.039a5.719 5.719 0 0 1-.441-.21 8.98 8.98 0 0 1-.468-.304c.45-.534.675-1.242.675-2.125 0-.994-.28-1.76-.842-2.294-.562-.536-1.356-.802-2.388-.802zM8.03 4.6c.41 0 .732.13.966.39.232.258.35.69.35 1.295 0 .527-.076.923-.23 1.186a7.92 7.92 0 0 1-.207-.131c-.278-.186-.461-.302-.558-.344a1.688 1.688 0 0 0-.398-.11l-.302.666c.35.134.604.275.766.427a1.941 1.941 0 0 1-.37.035c-.404 0-.724-.134-.955-.397-.232-.264-.348-.724-.348-1.379 0-.563.118-.976.356-1.24.236-.266.547-.398.93-.398z" fill="#B9B9B9" fill-rule="nonzero"/>
</svg>
