<svg width="25" height="25" viewBox="0 0 25 25" xmlns="http://www.w3.org/2000/svg" xmlns:xlink="http://www.w3.org/1999/xlink">
    <defs>
        <path d="M3.169 4.822v-1.15c.48-.023.836-.119 1.065-.288.23-.17.344-.426.344-.77 0-.4-.135-.723-.404-.966s-.63-.364-1.085-.364c-.273 0-.503.039-.69.117a1.15 1.15 0 0 0-.474.364c.251 0 .457.083.615.248.16.165.238.379.238.642 0 .357-.108.628-.324.816-.216.187-.525.28-.926.28-.388 0-.703-.116-.946-.35C.34 3.166.218 2.86.218 2.48c0-.753.342-1.355 1.026-1.806C1.927.225 2.854 0 4.022 0 5.054 0 5.86.202 6.437.605c.578.404.866.964.866 1.682 0 .446-.125.82-.377 1.12-.251.301-.628.53-1.13.686.612.2 1.069.48 1.369.839.3.359.45.806.45 1.34 0 .79-.327 1.41-.98 1.86-.652.45-1.55.675-2.692.675-1.292 0-2.273-.191-2.94-.575C.333 7.85 0 7.287 0 6.547c0-.441.143-.805.43-1.09.287-.285.648-.428 1.085-.428.388 0 .7.107.936.32.236.215.354.5.354.857 0 .316-.087.556-.261.719-.175.162-.45.264-.824.304.176.107.375.186.595.237.22.052.466.077.735.077.525 0 .93-.121 1.217-.364.287-.243.43-.592.43-1.047 0-.423-.13-.748-.39-.973-.26-.225-.64-.337-1.138-.337z" id="6wjl1prb8a"/>
    </defs>
    <g fill="none" fill-rule="evenodd">
        <path d="M10.531 1.49c-.111 0-.199-.099-.199-.225 0-.384.15-1.053 1.152-1.265-.016.246-.131 1.357-.921 1.488l-.032.002zm3.906-.002c-.79-.13-.905-1.242-.921-1.488 1.002.212 1.153.88 1.152 1.265 0 .126-.088.225-.2.225l-.03-.002zm-5.316.305a.245.245 0 0 1-.233-.183c-.105-.382-.122-1.087.925-1.548.047.24.227 1.386-.605 1.714a.239.239 0 0 1-.087.017zm6.758 0a.237.237 0 0 1-.086-.017c-.834-.329-.654-1.474-.606-1.714 1.046.46 1.03 1.166.925 1.548a.245.245 0 0 1-.233.183zm-8.346.664a.268.268 0 0 1-.248-.16c-.168-.388-.283-1.13.809-1.776.083.237.447 1.426-.428 1.903a.283.283 0 0 1-.133.033zm9.934 0a.282.282 0 0 1-.133-.033c-.875-.477-.511-1.666-.428-1.903 1.092.646.977 1.388.809 1.776a.268.268 0 0 1-.248.16zm-6.224.728c-.565 0-.823-.335-.94-.617a.24.24 0 0 1 .14-.314.9.9 0 0 1 .304-.055c.615 0 1.01.706 1.099.88a2.01 2.01 0 0 1-.603.106zm2.515 0c-.182 0-.385-.036-.604-.106.088-.174.485-.88 1.099-.88.1 0 .202.019.305.056a.239.239 0 0 1 .14.313c-.118.282-.376.617-.94.617zm-7.729.202a.266.266 0 0 1-.226-.123c-.224-.357-.45-1.073.531-1.88.118.221.657 1.34-.136 1.946a.275.275 0 0 1-.169.057zm12.942 0a.275.275 0 0 1-.169-.057c-.793-.606-.254-1.725-.136-1.946.981.807.755 1.523.53 1.88a.266.266 0 0 1-.225.123zm-9.72.56c-.428 0-.71-.235-.872-.433a.27.27 0 0 1-.059-.209.289.289 0 0 1 .115-.196 1.01 1.01 0 0 1 .605-.205c.595 0 1.127.523 1.256.659-.377.255-.728.385-1.045.385zm6.498 0c-.317 0-.668-.13-1.045-.384.128-.136.66-.66 1.255-.66.216 0 .42.07.606.206a.29.29 0 0 1 .115.196.274.274 0 0 1-.058.209 1.114 1.114 0 0 1-.873.434zm-11.117.638a.261.261 0 0 1-.193-.083c-.286-.309-.64-.97.176-1.947.157.195.892 1.193.223 1.938a.277.277 0 0 1-.206.092zm15.736 0a.277.277 0 0 1-.206-.092c-.669-.745.066-1.743.223-1.938.816.978.462 1.638.176 1.947a.26.26 0 0 1-.193.083zM7.36 4.998c-.339 0-.595-.164-.75-.302a.274.274 0 0 1-.091-.196.29.29 0 0 1 .082-.212c.206-.21.456-.315.742-.315.528 0 1.034.359 1.167.46-.396.375-.783.565-1.15.565zm10.28 0c-.367 0-.754-.19-1.15-.564.133-.102.64-.461 1.167-.461.286 0 .536.106.741.315a.288.288 0 0 1 .083.212.272.272 0 0 1-.09.196 1.138 1.138 0 0 1-.751.302zM3.386 6.13a.258.258 0 0 1-.162-.056c-.33-.261-.778-.859-.12-1.952.185.17 1.062 1.042.514 1.88a.278.278 0 0 1-.232.128zm18.226 0a.277.277 0 0 1-.232-.127c-.548-.84.33-1.712.514-1.88.658 1.092.21 1.69-.12 1.95a.259.259 0 0 1-.162.057zm-15.825.295c-.28 0-.51-.116-.652-.214a.27.27 0 0 1-.114-.183.29.29 0 0 1 .056-.221c.211-.275.499-.414.855-.414.47 0 .926.246 1.056.322-.389.472-.793.71-1.2.71zm13.424 0c-.408 0-.812-.238-1.202-.71.13-.076.586-.322 1.058-.322.355 0 .643.139.854.414a.29.29 0 0 1 .056.22.27.27 0 0 1-.114.184 1.167 1.167 0 0 1-.652.214zM4.524 8.077a1.2 1.2 0 0 1-.488-.108.266.266 0 0 1-.145-.159.292.292 0 0 1 .015-.228c.2-.391.556-.59 1.058-.59.362 0 .693.107.805.148-.346.622-.765.937-1.245.937zm15.952 0c-.48 0-.899-.315-1.245-.937.112-.04.443-.148.805-.148.502 0 .857.199 1.058.59.036.07.041.154.015.228a.266.266 0 0 1-.145.16 1.199 1.199 0 0 1-.488.107zm-18.08 0a.254.254 0 0 1-.117-.027c-.374-.19-.932-.685-.502-1.888.214.128 1.246.806.874 1.74a.279.279 0 0 1-.255.176zm20.208 0a.28.28 0 0 1-.255-.176c-.372-.933.66-1.61.874-1.74.43 1.204-.128 1.7-.502 1.889a.257.257 0 0 1-.117.028zM1.76 10.096a.28.28 0 0 1-.07-.009C1.27 9.973.602 9.588.79 8.276c.24.084 1.43.554 1.245 1.58a.286.286 0 0 1-.277.24zm21.482 0a.29.29 0 0 1-.277-.239c-.185-1.027 1.005-1.496 1.244-1.58.19 1.312-.478 1.697-.897 1.81a.28.28 0 0 1-.07.01zm-19.616.03c-.095 0-.193-.012-.29-.034a.278.278 0 0 1-.18-.133.303.303 0 0 1-.03-.235c.204-.707.878-.855 1.407-.855.183 0 .33.018.399.03-.33 1.012-.89 1.226-1.306 1.226zm17.75 0c-.415 0-.976-.215-1.306-1.228.07-.01.216-.03.399-.03.53 0 1.203.15 1.407.856a.302.302 0 0 1-.03.235.278.278 0 0 1-.18.133 1.315 1.315 0 0 1-.29.033zM1.467 11.991c-.473 0-1.085-.241-1.33-1.383l.068-.001c.343 0 1.474.075 1.645 1.039a.296.296 0 0 1-.054.229.271.271 0 0 1-.191.11 1.397 1.397 0 0 1-.138.006zm22.066 0c-.05 0-.095-.002-.138-.007a.271.271 0 0 1-.192-.11.296.296 0 0 1-.054-.228c.171-.964 1.303-1.04 1.646-1.04l.067.002c-.243 1.142-.856 1.383-1.33 1.383zm-20.44.51a.292.292 0 0 1-.284-.284c-.037-1.043 1.21-1.314 1.459-1.357 0 1.324-.717 1.596-1.147 1.64l-.028.001zm18.786-.001c-.43-.044-1.147-.316-1.146-1.64.247.044 1.495.315 1.458 1.357a.292.292 0 0 1-.284.284l-.028-.001zM1.323 13.987c-.392 0-.938-.2-1.323-1.145.087-.018.298-.057.55-.057.472 0 1.083.134 1.317.773a.297.297 0 0 1-.013.235.274.274 0 0 1-.17.142c-.12.035-.242.052-.36.052zm22.353 0c-.118 0-.24-.017-.36-.052a.274.274 0 0 1-.17-.142.298.298 0 0 1-.013-.235c.234-.639.846-.773 1.318-.773.25 0 .462.039.549.057-.385.946-.93 1.145-1.323 1.145zm-20.264.734a.292.292 0 0 1-.282-.237c-.207-1.022.98-1.499 1.217-1.583.217 1.306-.445 1.694-.863 1.81a.27.27 0 0 1-.072.01zm18.176 0a.27.27 0 0 1-.072-.01c-.418-.115-1.08-.504-.863-1.81.238.085 1.424.562 1.217 1.583a.292.292 0 0 1-.282.237zM1.669 16.072c-.48 0-.917-.304-1.298-.906a2.58 2.58 0 0 1 .915-.192c.479 0 .832.188 1.049.559.041.07.051.155.028.233a.274.274 0 0 1-.142.171c-.182.09-.367.135-.552.135zm21.662 0c-.185 0-.37-.045-.552-.135a.274.274 0 0 1-.142-.17.297.297 0 0 1 .028-.234c.217-.37.57-.559 1.05-.559.41 0 .792.142.914.193-.381.6-.818.905-1.298.905zm-19.178.735a.293.293 0 0 1-.265-.174c-.427-.95.623-1.682.836-1.818.5 1.224-.06 1.752-.44 1.958a.267.267 0 0 1-.13.034zm16.694 0a.27.27 0 0 1-.13-.033c-.381-.207-.94-.735-.44-1.96.212.137 1.262.87.835 1.819a.293.293 0 0 1-.265.174zM2.348 17.899c-.407 0-.823-.225-1.236-.667.137-.09.637-.39 1.154-.39.34 0 .623.129.843.382.053.062.079.143.07.224a.277.277 0 0 1-.108.195 1.21 1.21 0 0 1-.723.256zm20.304 0c-.317 0-.569-.14-.723-.256a.277.277 0 0 1-.109-.195.298.298 0 0 1 .071-.224 1.07 1.07 0 0 1 .843-.381c.518 0 1.017.3 1.154.389-.413.442-.829.667-1.236.667zm-17.326.638c-.1 0-.192-.05-.246-.135-.564-.872.366-1.757.556-1.924.676 1.133.202 1.741-.144 2.004a.273.273 0 0 1-.166.055zm14.348 0a.274.274 0 0 1-.166-.055c-.346-.263-.82-.87-.144-2.004.19.167 1.12 1.052.556 1.924a.295.295 0 0 1-.246.135zM3.295 19.731c-.362 0-.752-.169-1.16-.503.137-.118.682-.554 1.261-.554.267 0 .508.093.716.276a.297.297 0 0 1 .1.212.278.278 0 0 1-.082.208 1.183 1.183 0 0 1-.835.361zm18.41 0c-.388 0-.669-.196-.835-.361a.278.278 0 0 1-.082-.208.296.296 0 0 1 .1-.212c.208-.183.449-.276.716-.276.58 0 1.124.436 1.261.554-.408.334-.798.503-1.16.503zm-14.694.197a.308.308 0 0 1-.235-.108c-.714-.835.13-1.9.3-2.1.869 1.09.464 1.796.142 2.122a.288.288 0 0 1-.207.086zm10.978 0a.288.288 0 0 1-.207-.086c-.322-.326-.727-1.032.141-2.122.17.2 1.014 1.265.3 2.1a.31.31 0 0 1-.234.108zm-9.214.981a.307.307 0 0 1-.214-.086c-.792-.759-.056-1.904.094-2.118.97.997.636 1.74.348 2.097a.29.29 0 0 1-.228.107zm7.45 0a.291.291 0 0 1-.228-.107c-.288-.357-.622-1.1.348-2.097.15.214.886 1.36.094 2.118a.307.307 0 0 1-.214.086zm-5.475.543a.305.305 0 0 1-.147-.038c-.957-.525-.54-1.82-.45-2.066 1.19.707 1.056 1.511.87 1.93a.298.298 0 0 1-.273.174zm3.5 0a.298.298 0 0 1-.273-.174c-.187-.418-.32-1.222.87-1.93.09.246.507 1.541-.45 2.066a.307.307 0 0 1-.147.038zm-9.526 0c-.35 0-.737-.144-1.153-.429.136-.141.72-.706 1.371-.706.24 0 .466.077.672.228.07.051.114.13.125.217a.295.295 0 0 1-.066.227 1.221 1.221 0 0 1-.949.463zm15.552 0c-.464 0-.772-.252-.949-.463a.295.295 0 0 1-.066-.227.315.315 0 0 1 .126-.217c.205-.151.43-.228.67-.228.653 0 1.236.565 1.372.706-.416.285-.803.429-1.153.429zm-7.755.187a.389.389 0 0 1-.25-.088c-.233-.2-.356-.44-.366-.709-.021-.554.438-1.089.55-1.211.437.4.66.79.666 1.155.004.347-.191.606-.356.763a.354.354 0 0 1-.244.09zm-5.937 1.072c-.362 0-.74-.13-1.146-.389.134-.149.719-.754 1.386-.754h.046c.226 0 .441.07.64.206.072.049.12.126.133.212a.295.295 0 0 1-.058.23c-.177.226-.49.496-.977.496h-.024zm11.832 0c-.51 0-.824-.27-1-.496a.296.296 0 0 1-.059-.229.315.315 0 0 1 .133-.212c.199-.136.414-.206.64-.206h.046c.667 0 1.252.605 1.386.754-.407.259-.784.39-1.122.39h-.024zm-5.966.062c-.166 0-.334-.004-.502-.012-5.34-.253-9.727-4.682-9.988-10.084C1.7 7.294 5.458 2.56 10.7 1.668h.007c.08 0 .133.036.156.09a.152.152 0 0 1-.11.215C6.019 2.83 2.45 7.203 2.45 12.146c0 5.488 4.372 9.807 9.953 9.83h.045c5.431 0 9.822-4.168 9.996-9.488.167-5.08-3.377-9.598-8.245-10.507a.153.153 0 0 1-.103-.072.149.149 0 0 1-.015-.12.154.154 0 0 1 .147-.114c5.066.888 8.724 5.291 8.724 10.47 0 2.835-1.094 5.502-3.08 7.512-1.985 2.009-4.621 3.115-7.421 3.115h-.001zm-4.467 1.072c-.162 0-.339-.017-.525-.05.082-.227.522-1.309 1.414-1.309.084 0 .17.01.258.029a.311.311 0 0 1 .201.145.296.296 0 0 1 .031.235c-.101.354-.415.95-1.379.95zm9.034 0c-.963 0-1.278-.596-1.38-.95a.296.296 0 0 1 .032-.235.31.31 0 0 1 .201-.145 1.22 1.22 0 0 1 .258-.029c.892 0 1.332 1.082 1.414 1.309-.186.033-.363.05-.525.05zm-7.415.67c.033-.262.258-1.608 1.349-1.625.089 0 .171.036.23.098.056.06.085.139.08.22-.027.46-.278 1.237-1.659 1.306zm5.796 0c-1.382-.07-1.633-.847-1.66-1.307a.295.295 0 0 1 .081-.22.31.31 0 0 1 .226-.098c1.095.017 1.32 1.363 1.353 1.624zm-2.89.485c-.448-.423-.668-.82-.652-1.179.014-.337.235-.578.417-.72a.448.448 0 0 1 .533.03c.24.212.358.455.354.721-.01.545-.53 1.04-.652 1.148z" fill="#89D900" opacity=".8"/>
        <g transform="translate(8.602 7.88)" fill-rule="nonzero">
            <use fill="#FFF" xlink:href="#6wjl1prb8a"/>
            <use stroke="#92E702" strokeWidth=".454" fill="#92E702" xlink:href="#6wjl1prb8a"/>
            <path stroke="#000" strokeWidth=".189" d="M4.022.095c1.008 0 1.796.193 2.36.588.552.385.827.92.827 1.604 0 .421-.117.775-.355 1.06-.242.289-.605.506-1.087.655.592.374 1.035.643 1.325.99.286.343.428.77.428 1.28 0 .757-.313 1.35-.938 1.782-.64.441-1.52.659-2.64.659-1.27 0-2.235-.186-2.893-.563a1.92 1.92 0 0 1-.717-.675 1.78 1.78 0 0 1-.238-.928c0-.414.134-.755.403-1.023.269-.268.608-.4 1.018-.4.36 0 .653.096.873.296.216.196.322.459.322.786 0 .284-.073.503-.23.65-.163.152-.421.242-.77.279.146.287.353.37.584.423.227.053.479.08.756.08.552 0 .977-.132 1.278-.387.306-.26.463-.631.463-1.119 0-.456-.143-.803-.423-1.044-.257-.223-.624-.346-1.105-.36v-.967c.46-.032.801-.134 1.027-.301.252-.186.382-.466.382-.845 0-.431-.146-.776-.434-1.037-.285-.257-.667-.389-1.149-.389-.288 0-.53.043-.727.125a1.242 1.242 0 0 0-.512.394l.263.13c.152.078.265.143.36.24.142.149.211.341.211.577 0 .324-.094.573-.292.744-.201.175-.49.258-.864.258-.36 0-.654-.107-.88-.324C.423 3.116.313 2.83.313 2.48c0-.721.329-1.296.983-1.727.67-.442 1.58-.66 2.726-.66z" stroke-linejoin="square"/>
        </g>
    </g>
</svg>
