<svg width="33.628" height="33.31" viewBox="0 0 33.628 33.31" xmlns="http://www.w3.org/2000/svg">
    <g fill="none" fill-rule="evenodd">
        <path d="M16.973 0c9.198 0 16.655 7.457 16.655 16.655 0 9.199-7.457 16.655-16.655 16.655h-.318C7.457 33.31 0 25.854 0 16.655 0 7.457 7.457 0 16.655 0h.318z" fill-opacity=".01" fill="#0C0D13"/>
        <path d="M24.519 8.843c-1.348-.09-3.083-.322-4.75-.88-1.435-.481-2.519-1.115-3.31-1.714-.792.6-1.876 1.233-3.31 1.714-1.667.558-3.402.79-4.75.88-.002 1.164.002 4.31 0 4.655-.007 1.842-.014 3.746.114 5.355.153 1.918.257 4.438 4.49 7.497 1.355.979 2.632 1.56 3.456 1.873.824-.313 2.1-.894 3.455-1.873 4.233-3.059 4.337-5.579 4.49-7.497.128-1.609.12-3.513.113-5.355-.001-.345.003-3.49.002-4.655z" stroke="#000" strokeWidth="1.004" fill="#B4802C"/>
        <path d="M24.519 8.843c-1.348-.09-3.083-.322-4.75-.88-1.435-.481-2.519-1.115-3.31-1.714-.792.6-1.876 1.233-3.31 1.714-1.667.558-3.402.79-4.75.88-.002 1.164.002 4.31 0 4.655-.007 1.842-.014 3.746.114 5.355.153 1.918.257 4.438 4.49 7.497 1.355.979 2.632 1.56 3.456 1.873.824-.313 2.1-.894 3.455-1.873 4.233-3.059 4.337-5.579 4.49-7.497.128-1.609.12-3.513.113-5.355-.001-.345.003-3.49.002-4.655zm-7.787 20.725-.208.064-.208-.064c-2.257-.762-6.273-2.726-8.319-6.77-1.245-2.255-1.015-6.854-1.034-11.002-.008-1.86 0-4.536 0-4.536s.18.008.493.008c.98 0 3.258-.084 5.338-.78 2.5-.838 3.552-2.213 3.73-2.468.178.255 1.23 1.63 3.73 2.468 2.08.696 4.358.78 5.338.78.313 0 .493-.008.493-.008s.009 2.676 0 4.536c-.02 4.148.211 8.747-1.034 11.001-2.046 4.045-6.062 6.01-8.319 6.771z" fill="#745625"/>
        <path d="M22.945 13.631c.007 1.71.014 3.478-.103 4.943l-.01.126c-.131 1.67-.28 3.564-3.73 6.057a13.292 13.292 0 0 1-2.578 1.456V8.244c.83.531 1.752.969 2.754 1.304 1.108.371 2.338.635 3.668.788v1.378c-.001.938-.002 1.747-.001 1.913v.004z" fill="#F4D56F"/>
    </g>
</svg>
