<svg width="32" height="32" viewBox="0 0 32 32" xmlns="http://www.w3.org/2000/svg">
    <g fill="none" fill-rule="evenodd">
        <path fill-opacity=".01" fill="#0C0D13" opacity=".4" d="M0 0h32v32H0z"/>
        <path d="M25.115 7.092c-.423.04-.98.181-1.573.416-.594.237-1.1.518-1.437.782-.215.168-.36.252-.356.26.004.01.163-.028.433-.053.422-.039.979-.18 1.572-.417.595-.236 1.1-.518 1.438-.78.216-.17.359-.253.356-.262-.004-.007-.163.028-.433.054zm-.167 2.181-.264-.708c-.09.047-.181.089-.274.132l.262.71c.095-.044.187-.089.276-.134zm-1.515-.203.264.707c.08-.025.162-.051.245-.08l-.263-.709a10.39 10.39 0 0 1-.246.082zm2.289-.27-.257-.689c-.06.043-.126.085-.193.128l.26.695c.067-.045.13-.09.19-.135zm.022-.896.256.69c.064-.045.101-.068.098-.072l.007-.037-.253-.677c-.033.032-.07.064-.108.096zm-3.219 2.1-.253-.684h-.019c-.08.01-.156.013-.23.013l.251.674.025.026c.003.005.084-.01.226-.03zm.084-.73.258.691c.077-.01.161-.024.245-.042l-.259-.699a4.812 4.812 0 0 1-.244.05zm.646-2.538c.662-.263 1.296-.422 1.788-.469.642-.058 1.112.094 1.252.475l.55 1.482.01.026c.12.374-.129.802-.632 1.193-.394.307-.969.63-1.63.893-.663.262-1.297.423-1.788.467-.606.056-1.057-.077-1.224-.41l-.003.001-.01-.025c-.004-.013-.01-.025-.015-.038a.462.462 0 0 1-.013-.04l-.522-1.405c-.006-.012-.011-.026-.016-.04-.142-.377.107-.816.622-1.218.394-.307.97-.63 1.631-.892zm-4.333 5.803c.202.161.336.242.332.25-.004.008-.152-.029-.409-.056-.396-.043-.919-.185-1.476-.416-.556-.232-1.03-.504-1.343-.757-.204-.163-.336-.243-.334-.251.004-.008.154.029.407.056.398.043.922.186 1.478.417.557.23 1.03.503 1.345.757zm-1.47 1.395.259-.664a7.995 7.995 0 0 1-.272-.093l-.259.665c.092.034.183.064.272.092zm-.92-1.148-.255.663c.07.037.143.074.218.109l.258-.665-.22-.107zm1.749 1.333.25-.643a4.494 4.494 0 0 1-.212-.042l-.255.653a3.1 3.1 0 0 0 .217.032zm.571-.603-.25.648c.07.01.11.019.112.015l.025-.02.247-.635a2.28 2.28 0 0 1-.134-.008zm-3.525-.688c-.11-.083-.176-.123-.173-.13l-.003-.036.243-.631c.053.048.108.097.168.146l.015.01-.25.641zm.511-.45-.25.65c.06.043.124.09.194.136l.254-.656a3.953 3.953 0 0 1-.198-.13zm2.02-1.322c-.619-.257-1.217-.417-1.678-.466-.606-.065-1.05.07-1.186.428-.006.011-.01.023-.015.036l-.51 1.318c-.006.01-.011.023-.016.035l-.012.037-.01.024.002.001c-.092.342.138.734.59 1.097.367.295.904.606 1.526.864.62.259 1.216.419 1.677.47.593.062 1.03-.067 1.178-.406l.01-.024.54-1.389c.136-.356-.09-.773-.571-1.16-.367-.295-.905-.607-1.525-.865zm5.118 1.29c-.254.21-.548.549-.826.962-.28.412-.484.814-.59 1.132-.068.202-.125.32-.118.322.005.004.09-.09.252-.226.252-.21.546-.547.826-.96.28-.413.484-.816.59-1.132.068-.203.123-.32.118-.324-.006-.004-.092.09-.252.226zm.795 1.46-.458-.334-.122.206.46.332c.044-.069.082-.137.12-.205zm-1.046.54.46.333.124-.159-.46-.334a3.87 3.87 0 0 1-.124.16zm1.342-1.185-.447-.323c-.022.054-.044.11-.07.166l.453.327c.023-.058.044-.115.064-.17zm-.357-.579.449.325a.373.373 0 0 0 .033-.09l-.012-.025-.439-.318c-.009.035-.02.072-.031.108zm-1.174 2.76-.444-.323-.01.01a1.92 1.92 0 0 1-.144.11l.439.317.027.004c.004.003.049-.043.132-.118zm-.25-.503.45.328c.045-.042.091-.088.14-.136l-.455-.329a3.228 3.228 0 0 1-.135.137zm-.638-1.895a5.52 5.52 0 0 0-.667 1.288c-.162.484-.138.871.109 1.05l.026.017.913.661a.304.304 0 0 0 .025.02.205.205 0 0 0 .025.017l.017.012.001-.001c.243.137.584.022.946-.283.294-.246.631-.627.942-1.088.313-.46.543-.92.666-1.288.158-.473.14-.854-.092-1.039l-.015-.012-.964-.697c-.247-.18-.608-.07-.99.253-.295.246-.632.63-.942 1.09zm-5.026-4.812c-.012-.413-.109-.965-.289-1.555-.182-.592-.407-1.1-.628-1.444-.141-.222-.21-.366-.216-.363-.008.003.016.16.023.425.011.413.108.964.29 1.555.18.592.406 1.1.626 1.444.142.222.21.365.218.363.008-.003-.016-.161-.024-.425zm-1.974-.288.658-.216a6.556 6.556 0 0 1-.103-.275l-.66.215c.033.095.07.187.105.276zm.272-1.462-.66.214.06.245.66-.216c-.022-.083-.041-.163-.06-.243zm.116 2.243.638-.21a6.42 6.42 0 0 1-.104-.195l-.647.212c.038.07.075.133.113.193zm.813.074-.644.209c.037.065.057.102.062.1l.031.007.63-.205a2.35 2.35 0 0 1-.08-.111zm-1.727-3.255.637-.21v-.016a2.546 2.546 0 0 1 .002-.225l-.629.204-.023.024c-.007.003.004.083.013.223zm.659.122-.644.21c.006.078.014.16.024.244l.651-.213a4.192 4.192 0 0 1-.031-.24zm2.27.775c.203.659.31 1.287.325 1.768.017.629-.15 1.076-.503 1.192l-1.38.45-.024.009c-.347.096-.72-.171-1.05-.684-.255-.402-.515-.978-.718-1.639-.2-.659-.31-1.286-.323-1.767-.017-.593.132-1.024.444-1.17l-.001-.002.025-.007a.218.218 0 0 1 .035-.013l.036-.011 1.308-.428.037-.012c.352-.116.736.15 1.071.675.258.402.518.98.719 1.639zM5 26c3.125-6.756 7.95-13.097 16.157-10.022l-.002 1.422c-.767.724-2.29 1.106-5.837.475l-.001.389c4.412 1.245 7.287.702 10.294-3.744l2.389.102-4.478 7.093-9.75.475-.992 3.66L5 26z" fill="#757575"/>
    </g>
</svg>
