<svg width="32" height="32" viewBox="0 0 32 32" xmlns="http://www.w3.org/2000/svg">
    <g fill="none" fill-rule="evenodd">
        <path fill-opacity=".01" fill="#0C0D13" opacity=".4" d="M0 0h32v32H0z"/>
        <path d="M26.465 8.35c.62 0 1.195.113 1.735.336a4.557 4.557 0 0 1 1.468.992c.44.441.773.931.988 1.475.224.544.334 1.123.334 1.743L31 19.76a4.6 4.6 0 0 1-.334 1.752 4.361 4.361 0 0 1-.998 1.475 4.835 4.835 0 0 1-1.261.907c-.01.01-.027.01-.034.017a4.295 4.295 0 0 1-.903.301 4.874 4.874 0 0 1-1.005.103h-3.293c.044.137.085.277.136.414.13.38.283.76.447 1.13.146.355.351.684.602 1.012.259.336.566.664.937 1.002.266.233.293.64.051.907a.625.625 0 0 1-.636.199 15.132 15.132 0 0 1-2.252-.777 13.708 13.708 0 0 1-2.003-1.088 12.981 12.981 0 0 1-1.744-1.38 14.128 14.128 0 0 1-1.288-1.407h-2.251c-.423 0-.835-.051-1.22-.154a4.18 4.18 0 0 1-1.108-.483.638.638 0 0 1 .661-1.095c.242.147.498.26.781.336.276.078.576.112.886.112h2.568a.63.63 0 0 1 .515.26c.405.544.851 1.044 1.34 1.502.48.459 1.004.873 1.57 1.243.542.353 1.117.674 1.727.948a6.943 6.943 0 0 1-.31-.595 16.648 16.648 0 0 1-.858-2.488.624.624 0 0 1-.034-.225c0-.353.283-.647.644-.647h4.132c.259 0 .498-.027.73-.078.224-.052.429-.12.626-.209.01-.01.017-.01.027-.017a3.149 3.149 0 0 0 .913-.657c.317-.318.558-.674.712-1.053.154-.38.232-.804.232-1.26v-6.861c0-.459-.078-.88-.232-1.26a3.233 3.233 0 0 0-.712-1.054 3.191 3.191 0 0 0-1.05-.715 3.303 3.303 0 0 0-1.253-.233h-4.316a.645.645 0 0 1-.644-.647c0-.353.283-.647.644-.647h4.323zM16.254 6c1.083 0 2.002.37 2.756 1.142a3.803 3.803 0 0 1 1.135 2.769v6.861c0 1.086-.371 2.01-1.135 2.77-.763.752-1.683 1.14-2.756 1.14h-2.576a11.961 11.961 0 0 1-3.067 2.898c-1.195.784-2.544 1.38-4.064 1.777.79-.709 1.366-1.451 1.7-2.228.344-.767.618-1.588.842-2.45H5.891c-1.08 0-2-.38-2.757-1.14C2.378 18.782 2 17.86 2 16.77V9.909c0-1.086.368-2.01 1.134-2.77C3.898 6.38 4.818 6 5.891 6zm8.68 7.756 2.436 6.18h-2.105l-.325-1.02h-2.278l-.327 1.02h-2.051l2.449-6.18h2.2zm-1.128 1.603-.712 2.22h1.422l-.71-2.22zM10.96 9.512c-1.13 0-2.008.299-2.637.899-.63.6-.944 1.443-.944 2.526 0 1.115.359 1.983 1.078 2.598.608.522 1.44.782 2.493.782.713 0 1.305-.098 1.779-.292.117.093.322.235.614.426.293.19.59.353.888.49l.593-1.139a6.427 6.427 0 0 1-.493-.23c-.08-.044-.256-.157-.522-.334.503-.585.754-1.362.754-2.33 0-1.09-.312-1.931-.94-2.517-.626-.588-1.512-.88-2.663-.88zm-.005 1.534c.459 0 .817.142 1.078.426.259.284.39.757.39 1.421 0 .579-.085 1.012-.255 1.302a8.856 8.856 0 0 1-.232-.145c-.31-.203-.515-.33-.622-.377a1.908 1.908 0 0 0-.444-.12l-.337.73c.39.147.673.301.854.468-.13.024-.266.039-.412.039-.452 0-.808-.147-1.066-.436-.259-.29-.388-.794-.388-1.512 0-.618.132-1.071.397-1.36.264-.292.61-.436 1.037-.436z" fill="#757575" fill-rule="nonzero"/>
    </g>
</svg>
