<svg width="32" height="32" viewBox="0 0 32 32" xmlns="http://www.w3.org/2000/svg">
    <g fill="none" fill-rule="evenodd">
        <path fill-opacity=".01" fill="#0C0D13" opacity=".4" d="M0 0h32v32H0z"/>
        <path d="M19.774 12.629a1.143 1.143 0 0 0-1.638.12l-5.488 6.508a1.219 1.219 0 0 0 .118 1.682 1.14 1.14 0 0 0 1.636-.12l5.488-6.507a1.22 1.22 0 0 0-.116-1.683zm3.76-4.565a4.164 4.164 0 0 0-3.089-1.053 4.195 4.195 0 0 0-2.913 1.494l-2.086 2.473a4.441 4.441 0 0 0-1.025 3.175c.039.56.182 1.115.427 1.626l1.874-2.224a2.03 2.03 0 0 1 .456-1.033l2.087-2.474a1.931 1.931 0 0 1 2.768-.204c.407.363.634.865.67 1.381a2.052 2.052 0 0 1-.472 1.465l-2.086 2.474c-.21.25-.47.433-.751.548l-1.955 2.318a4.2 4.2 0 0 0 4.44-1.323l2.085-2.473a4.439 4.439 0 0 0 1.025-3.177 4.4 4.4 0 0 0-1.455-2.992v-.001zm-6.337 10.253c.218.484.345 1.003.382 1.528a4.44 4.44 0 0 1-1.025 3.177l-2.086 2.473a4.197 4.197 0 0 1-2.913 1.494 4.169 4.169 0 0 1-3.09-1.053 4.403 4.403 0 0 1-1.454-2.994 4.438 4.438 0 0 1 1.025-3.175l2.085-2.474A4.197 4.197 0 0 1 14.66 16l-1.876 2.226c-.35.104-.675.31-.929.61L9.769 21.31a2.049 2.049 0 0 0-.471 1.465c.035.516.262 1.018.669 1.38a1.935 1.935 0 0 0 2.768-.204l2.086-2.473c.21-.25.35-.54.422-.843l1.954-2.318z" fill="#757575"/>
    </g>
</svg>
