<svg width="32" height="32" viewBox="0 0 32 32" xmlns="http://www.w3.org/2000/svg">
    <g fill="none" fill-rule="evenodd">
        <path fill-opacity=".01" fill="#0C0D13" opacity=".4" d="M0 0h32v32H0z"/>
        <path d="m23.936 23.94.052.032c.153.095.324.154.502.174l.134.008h.84c.296 0 .536.24.536.536V27h-.96v-1.018a.12.12 0 0 0-.24 0V27h-2.113l-.819-.029v-1.004a.099.099 0 0 0-.198 0v1.004h-.858l-.026-1.522v-.759c0-.296.24-.536.537-.536h.839c.225 0 .445-.063.636-.182l.052-.032h1.086zm-7.393 0 .052.032c.153.095.324.154.502.174l.134.008h.84c.296 0 .536.24.536.536V27h-.96v-1.018a.12.12 0 0 0-.24 0V27h-2.113l-.819-.029v-1.004a.099.099 0 0 0-.198 0v1.004h-.858l-.026-1.522v-.759c0-.296.24-.536.537-.536h.839c.225 0 .445-.063.636-.182l.052-.032h1.086zm-7.393 0 .052.032c.153.095.324.154.502.174l.134.008h.84c.296 0 .536.24.536.536V27h-.96v-1.018a.12.12 0 0 0-.24 0V27H7.9l-.818-.029v-1.004a.099.099 0 1 0-.198 0v1.004h-.859L6 25.449v-.759c0-.296.24-.536.537-.536h.839c.225 0 .445-.063.636-.182l.052-.032H9.15zm14.292-3.13c.666 0 1.208.61 1.208 1.36 0 .751-.542 1.362-1.208 1.362-.666 0-1.208-.61-1.208-1.361s.542-1.362 1.208-1.362zm-7.393 0c.666 0 1.208.61 1.208 1.36 0 .751-.542 1.362-1.208 1.362-.666 0-1.208-.61-1.208-1.361s.542-1.362 1.208-1.362zm-7.393 0c.666 0 1.208.61 1.208 1.36 0 .751-.542 1.362-1.208 1.362-.666 0-1.208-.61-1.208-1.361s.542-1.362 1.208-1.362zm10.557-3.4 3.08 3.04-.343.34-3.08-3.041.343-.34zm-6.318 0 .343.339-3.08 3.04-.344-.339 3.08-3.04zm3.402 1.743v.964h-.486v-.964h.486zm2.789-6.202a3.637 3.637 0 0 1-1.578 5.206l-.071.03.092.417-.875-.58.559-.872.113.517a3.117 3.117 0 0 0 1.368-4.362l.392-.356zm-6.179.812.475.92-.498-.16a3.128 3.128 0 0 0 3.102 3.451l.112.517a3.617 3.617 0 0 1-1.218-.17 3.647 3.647 0 0 1-2.497-3.968l-.416-.122.94-.468zm3.097-1.273a2.368 2.368 0 0 1 2.367 2.37 2.368 2.368 0 1 1-2.367-2.37zm1.051-4.06.105.064c.342.21.727.334 1.124.366l.2.007h1.755c.608 0 1.101.494 1.101 1.102v4.744h-.483c-.125-2.504-2.248-4.496-4.85-4.496-2.58 0-4.691 1.96-4.846 4.436h-.591l-.055-3.125v-1.56c0-.607.493-1.1 1.101-1.1h1.756c.467 0 .925-.13 1.323-.374l.105-.064h2.255zm.037 2.953c.352.112.675.274.965.475l.101.077.374-.34-.065 1.05-1.034-.049.336-.306a3.123 3.123 0 0 0-4.507 1.04l-.502-.16a3.642 3.642 0 0 1 4.332-1.787zM16.029 2c1.383 0 2.509 1.254 2.509 2.795 0 1.542-1.126 2.796-2.509 2.796-1.382 0-2.507-1.254-2.507-2.796C13.522 3.254 14.647 2 16.029 2z" fill="#757575"/>
    </g>
</svg>
