<svg width="18" height="19" viewBox="0 0 18 19" xmlns="http://www.w3.org/2000/svg" xmlns:xlink="http://www.w3.org/1999/xlink">
    <defs>
        <path id="mhn2uztqfa" d="M0 0h18v19H0z"/>
    </defs>
    <g fill="none" fill-rule="evenodd">
        <mask id="wfgwqp0dtb" fill="#fff">
            <use xlink:href="#mhn2uztqfa"/>
        </mask>
        <use fill-opacity=".01" fill="#0C0D13" xlink:href="#mhn2uztqfa"/>
        <path d="M9 5.482c-2.466 0-4.461 2.005-4.461 4.484S6.534 14.45 9 14.45s4.461-2.005 4.461-4.484S11.466 5.482 9 5.482zM10.358 2c.095 0 .173.078.173.174v1.061a.174.174 0 0 1-.173.174h-.482v.593c1 .148 1.92.544 2.696 1.124l.196-.218-.284-.257a.138.138 0 0 1-.01-.193l.56-.624a.136.136 0 0 1 .193-.01l1.596 1.447c.056.05.06.137.01.193l-.56.624a.136.136 0 0 1-.193.01l-.283-.257-.214.239A6.024 6.024 0 0 1 15 9.97C15 13.296 12.31 16 9 16s-6-2.703-6-6.03c0-1.482.533-2.84 1.417-3.89l-.214-.239-.283.257a.136.136 0 0 1-.193-.01l-.56-.624a.137.137 0 0 1 .01-.193l1.596-1.447a.136.136 0 0 1 .193.01l.56.624a.138.138 0 0 1-.01.193l-.284.257.196.218a5.954 5.954 0 0 1 2.696-1.123v-.594h-.482a.174.174 0 0 1-.173-.174V2.174c0-.096.078-.174.173-.174h2.716zM9 6.667c-.222 0-.444.555-.667 1.666V10a.667.667 0 0 0 1.334 0V8.333C9.444 7.223 9.222 6.667 9 6.667z" fill="#FFF" opacity=".6" mask="url(#wfgwqp0dtb)"/>
    </g>
</svg>
