<svg width="22.176" height="20.114" viewBox="0 0 22.176 20.114" xmlns="http://www.w3.org/2000/svg">
    <path d="M12.161 0c5.531 0 10.015 4.503 10.015 10.057 0 5.555-4.484 10.057-10.015 10.057a9.963 9.963 0 0 1-7.082-2.945l1.012-1.016a8.54 8.54 0 0 0 6.07 2.525c4.741 0 8.584-3.86 8.584-8.62 0-4.762-3.843-8.621-8.584-8.621-4.735 0-8.574 3.85-8.584 8.603l-1.43-.003C2.156 4.492 6.636 0 12.16 0zm0 2.155c4.339 0 7.869 3.545 7.869 7.902S16.5 17.96 12.16 17.96c-3.485 0-6.448-2.287-7.48-5.445l2.53-3.175H4.325c.363-4.022 3.738-7.184 7.836-7.184zm-6.438 7.902L2.86 13.65 0 10.057h5.723zm7.153-6.465h-1.43v5.222a1.436 1.436 0 0 0-.716 1.243c0 .794.64 1.437 1.431 1.437.172 0 .336-.032.488-.088l2.34 1.972.92-1.1-2.34-1.972a1.436 1.436 0 0 0-.693-1.492V3.592z" fill="#B9B9B9" fill-rule="evenodd"/>
</svg>
