<svg width="33.628" height="33.31" viewBox="0 0 33.628 33.31" xmlns="http://www.w3.org/2000/svg" xmlns:xlink="http://www.w3.org/1999/xlink">
    <defs>
        <rect id="3nqcc5wgga" x="0" y="0" width="33.628" height="33.31" rx="16.655"/>
    </defs>
    <g fill="none" fill-rule="evenodd">
        <mask id="0nzw5wu7ub" fill="#fff">
            <use xlink:href="#3nqcc5wgga"/>
        </mask>
        <use fill-opacity=".01" fill="#0C0D13" xlink:href="#3nqcc5wgga"/>
        <g mask="url(#0nzw5wu7ub)">
            <path d="M16.815 3.44c7.273 0 13.17 5.847 13.17 13.06s-5.897 13.06-13.17 13.06c-7.274 0-13.17-5.847-13.17-13.06S9.54 3.44 16.815 3.44z" fill="#745625"/>
            <path d="M16.155 9.956V6.293a30.938 30.938 0 0 0-1.945 1.848 22.972 22.972 0 0 0-1.578 1.815h3.523zM26.22 24.214h-3.395c-1.164 1.664-2.629 3.136-4.178 4.448l.134-.02c2.91-.47 5.657-2.1 7.44-4.428zm-11.233 4.447c-1.547-1.31-3.014-2.785-4.176-4.447H7.424c1.791 2.34 4.517 3.954 7.438 4.427l.125.02zM7.41 9.956h3.597a22.971 22.971 0 0 1 1.877-2.31 31.37 31.37 0 0 1 2.203-2.16l-.19.028c-2.922.45-5.695 2.1-7.487 4.442zm11.143-4.46c1.502 1.336 2.917 2.814 4.069 4.46h3.59c-1.86-2.426-4.628-4.008-7.659-4.46zm-1.08.797v3.663h3.524a22.959 22.959 0 0 0-1.578-1.815 30.956 30.956 0 0 0-1.945-1.848zm0 17.921v3.718c1.351-1.112 2.634-2.345 3.717-3.718h-3.716zm-1.318 3.718v-3.718h-3.718c1.078 1.376 2.365 2.61 3.718 3.718z" fill="#F4D56F" fill-rule="nonzero"/>
            <path d="M3.521 10.111h26.586c1.36 0 2.477 1.207 2.477 2.678v8.588c0 1.467-1.12 2.678-2.477 2.678H3.52c-1.363 0-2.477-1.205-2.477-2.678V12.79c0-1.475 1.113-2.678 2.477-2.678z" fill="#745625" fill-rule="nonzero"/>
            <path d="M3.521 11.205h26.586c.755 0 1.374.683 1.374 1.51v8.735c0 .828-.621 1.51-1.374 1.51H3.52c-.753 0-1.374-.68-1.374-1.51v-8.734c0-.83.619-1.51 1.374-1.51z" stroke="#000" strokeWidth=".461" fill="#B4802C"/>
            <path d="M10.12 14.232h1.923l-.9 5.7H8.74l-.423-2.097h-.11l-.414 2.098h-2.4l-.901-5.7h1.922l.432 3.183h.055l.662-3.184h1.407l.653 3.184h.056l.44-3.184zm6.13 3.549h-1.839v.79h2.254v1.362h-4.093v-5.7h4.047l-.23 1.362H14.41v.863h1.84v1.323zm1.265 2.152v-5.7h2.98c.552 0 .946.106 1.182.319.236.213.354.523.354.93 0 .408-.075.722-.225.944a1.03 1.03 0 0 1-.603.433v.055c.742.128 1.113.63 1.113 1.505 0 .456-.122.822-.367 1.1-.246.276-.623.414-1.132.414h-3.302zm2.557-2.27h-.815v.93h.806c.257 0 .386-.156.386-.466 0-.31-.126-.465-.377-.465zm-.138-2.18h-.677v.847h.668c.233 0 .35-.14.35-.424 0-.283-.114-.424-.34-.424zm7.224.756v-.69a6.122 6.122 0 0 0-.892-.045c-.41 0-.923.064-1.536.192l-.24-1.253a7.327 7.327 0 0 1 2.172-.347c.6 0 1.036.036 1.306.109.27.073.469.161.597.264.282.238.423.597.423 1.077 0 .608-.254 1.046-.763 1.313v.046c.607.25.91.702.91 1.359 0 .322-.05.597-.15.825a1.4 1.4 0 0 1-.383.53 1.702 1.702 0 0 1-.607.296c-.374.103-.9.155-1.577.155a8.97 8.97 0 0 1-2.037-.237l.257-1.408c.583.14 1.076.21 1.481.21s.751-.019 1.04-.055v-.68l-1.583-.156v-1.323l1.582-.182z" fill="#FFF" fill-rule="nonzero"/>
        </g>
    </g>
</svg>
