<svg width="111.913" height="7.253" viewBox="0 0 111.913 7.253" xmlns="http://www.w3.org/2000/svg">
    <g fill="none" fill-rule="evenodd">
        <path d="M88.978 5.6a1.99 1.99 0 0 1-.842-.176 1.592 1.592 0 0 1-.375-.241c-.067-.06-.203-.02-.203.065v.126c0 .057-.051.104-.115.104h-.552c-.064 0-.115-.047-.115-.104V.104c0-.058.051-.104.115-.104h.55c.063 0 .115.046.115.104v1.855c0 .084.136.124.203.065.107-.093.233-.174.377-.241a1.99 1.99 0 0 1 .842-.176c.55 0 1.015.194 1.394.581.392.393.587.865.587 1.415 0 .556-.195 1.028-.587 1.416-.38.387-.844.581-1.394.581zm-.127-.643c.374 0 .688-.127.943-.382.255-.25.383-.574.383-.972 0-.392-.128-.716-.383-.971a1.283 1.283 0 0 0-.943-.383c-.38 0-.698.128-.953.383-.25.255-.374.579-.374.971 0 .398.125.725.374.98.255.25.573.374.953.374zm-4.763.643c-.612 0-1.117-.189-1.513-.566-.397-.378-.596-.854-.596-1.43 0-.572.193-1.046.579-1.424.385-.382.878-.573 1.479-.573.618 0 1.108.18 1.47.543.392.379.579.948.554 1.467-.003.066-.065.116-.14.116H82.92c-.077 0-.14.058-.131.127.036.309.169.563.399.76.26.225.572.337.935.337.463 0 .833-.193 1.11-.58a.144.144 0 0 1 .173-.045l.467.205c.066.03.092.102.054.158-.18.267-.42.479-.716.637a2.314 2.314 0 0 1-1.122.268zm-1.205-2.596c-.027.075.038.148.126.148h2.07c.08 0 .144-.061.128-.132a.891.891 0 0 0-.337-.51c-.21-.174-.493-.26-.85-.26-.295 0-.55.08-.765.244-.17.133-.295.303-.372.51zM81.74 1.873c.025-.071-.034-.144-.117-.144h-.54a.121.121 0 0 0-.117.08L80.17 4.24c-.032.097-.185.1-.22.003l-.886-2.438a.122.122 0 0 0-.116-.076h-.63c-.054 0-.1.03-.117.076l-.894 2.44c-.036.096-.188.094-.22-.004l-.797-2.433a.121.121 0 0 0-.117-.079h-.557c-.083 0-.142.073-.116.144L76.764 5.4a.122.122 0 0 0 .117.077h.612c.053 0 .1-.031.117-.077l.892-2.495c.034-.095.185-.096.22 0l.9 2.496a.122.122 0 0 0 .115.076h.622c.053 0 .1-.031.116-.077l1.265-3.528zm24.235 3.383c.227.188.51.283.85.283.225 0 .427-.023.606-.068.06-.016.091-.075.07-.129l-.167-.424c-.022-.057-.094-.085-.158-.067l-.053.015c-.057.01-.116.015-.179.015a.568.568 0 0 1-.365-.13c-.108-.092-.162-.263-.162-.513V2.475c0-.057.052-.103.115-.103h.79c.064 0 .115-.047.115-.104v-.435c0-.057-.051-.104-.115-.104h-.79c-.063 0-.115-.046-.115-.103V.104c0-.058-.051-.104-.115-.104h-.552c-.064 0-.115.046-.115.104v1.522c0 .057-.052.103-.115.103h-.501c-.064 0-.115.047-.115.104v.435c0 .057.051.104.115.104h.5c.064 0 .116.046.116.103v1.993c.005.336.119.6.34.788zM94.804 5.14c.38-.306.57-.688.57-1.147 0-.281-.089-.533-.264-.758-.081-.107-.197-.242-.538-.414a.1.1 0 0 1-.006-.175 1.22 1.22 0 0 0 .612-1.079c0-.423-.173-.767-.519-1.032-.351-.276-.785-.413-1.3-.413-.414 0-.775.1-1.08.298a1.67 1.67 0 0 0-.61.677c-.027.057.005.122.068.146l.484.185a.144.144 0 0 0 .177-.066c.19-.378.51-.567.96-.567.306 0 .553.071.74.214a.67.67 0 0 1 .28.558c0 .25-.099.454-.297.612-.198.153-.454.23-.765.23h-.313c-.071 0-.13.052-.13.116v.425c0 .065.059.117.13.117h.372c.329 0 .61.09.842.268.238.178.357.397.357.658 0 .26-.113.481-.34.665a1.314 1.314 0 0 1-.825.268c-.289 0-.538-.077-.748-.23a1.267 1.267 0 0 1-.398-.548.141.141 0 0 0-.179-.074l-.473.177c-.06.023-.093.083-.072.139.132.347.362.633.688.857.352.235.746.352 1.182.352.556 0 1.02-.153 1.395-.459zm1.957-.81c0-.205.105-.376.315-.513.215-.138.482-.207.8-.207.406 0 .73.076.97.226a.1.1 0 0 1 .048.09c-.016.273-.146.511-.39.717-.255.22-.547.329-.875.329-.233 0-.437-.061-.612-.184-.17-.122-.256-.275-.256-.459zm2.381-2.303c-.334-.281-.79-.421-1.369-.421-.697 0-1.234.215-1.611.647-.041.046-.026.113.03.145l.493.28c.052.029.12.016.16-.027.247-.279.57-.418.97-.418.29 0 .542.087.757.26.217.17.294.373.316.603.008.079-.089.13-.17.1a2.765 2.765 0 0 0-.97-.152c-.544 0-.981.115-1.31.344a1.08 1.08 0 0 0-.484.926c0 .367.153.673.459.918.311.245.697.367 1.156.367.539 0 .97-.214 1.292-.643v.417c0 .057.052.104.116.104h.552c.063 0 .115-.047.115-.104V3.167c0-.484-.168-.864-.502-1.14zm5.04 3.34c0 .06-.055.11-.122.11h-.538c-.068 0-.122-.05-.122-.11v-.123c0-.08-.134-.118-.196-.062a1.594 1.594 0 0 1-.357.233 1.685 1.685 0 0 1-.765.184c-.51 0-.904-.13-1.182-.39-.272-.265-.408-.64-.408-1.125V1.84c0-.06.055-.11.122-.11h.538c.067 0 .122.05.122.11v2.2c.017.612.36.918 1.029.918.312 0 .572-.112.782-.336.21-.23.315-.503.315-.819V1.84c0-.06.054-.11.122-.11h.538c.067 0 .122.05.122.11v3.529zm4.041-5.264c0-.058.051-.104.115-.104h.552c.064 0 .115.046.115.104v1.858c0 .08.133.117.195.061a1.736 1.736 0 0 1 1.123-.416c.51 0 .901.132 1.173.398.278.26.417.632.417 1.116v2.253c0 .057-.052.104-.115.104h-.552c-.064 0-.115-.047-.115-.104V3.259c0-.673-.332-1.01-.995-1.01-.318 0-.587.12-.808.36-.215.234-.323.51-.323.826v1.939c0 .057-.051.104-.115.104h-.552c-.064 0-.115-.047-.115-.104V.104z" fill="#B7B8BD"/>
        <path d="M71.848 5.47c.053.174.331.174.384 0L73.745.456C73.815.227 73.62 0 73.35 0h-.934c-.185 0-.347.11-.395.27l-.854 2.826a.206.206 0 0 0 0 .12l.681 2.253zM67.68 3.094c.013.04.013.08 0 .12L67 5.469c-.053.175-.331.175-.384 0L65.103.458c-.07-.231.126-.458.395-.458h.934c.186 0 .348.11.396.27l.853 2.824z" fill="#B7B8BD" fill-rule="nonzero"/>
        <g fill="#FFF" fill-rule="nonzero" opacity=".4">
            <path d="M0 4.593h.61c.03.264.159.475.387.635.229.16.517.24.866.24.329 0 .6-.079.815-.235.215-.156.322-.354.322-.592a.647.647 0 0 0-.224-.507c-.15-.132-.389-.241-.717-.327l-.625-.162C.984 3.53.656 3.37.45 3.165c-.207-.207-.31-.475-.31-.806 0-.405.16-.736.48-.992.32-.257.734-.385 1.24-.385.484 0 .885.13 1.202.39.317.26.483.593.496 1H2.95a.852.852 0 0 0-.338-.617c-.198-.15-.455-.226-.773-.226-.315 0-.572.074-.77.223a.692.692 0 0 0-.3.58.56.56 0 0 0 .218.454c.145.118.383.22.714.306l.51.135c.504.126.866.293 1.086.502.22.21.331.489.331.837 0 .446-.164.799-.49 1.059-.328.26-.772.39-1.332.39-.518 0-.94-.13-1.27-.389A1.376 1.376 0 0 1 0 4.593zM5.537 2.778a.96.96 0 0 0-.71.283c-.188.19-.292.438-.313.746h2.002c-.007-.308-.1-.557-.279-.746a.92.92 0 0 0-.7-.283zm.965 2.116h.58c-.049.313-.215.57-.499.771-.283.201-.62.302-1.009.302-.51 0-.916-.165-1.217-.496-.3-.33-.45-.779-.45-1.343 0-.565.15-1.017.449-1.357.299-.34.696-.51 1.191-.51.486 0 .87.16 1.154.481.284.32.426.756.426 1.305v.23H4.514v.033c0 .346.098.623.294.83.196.207.456.31.78.31.227 0 .423-.05.589-.15a.705.705 0 0 0 .325-.406zM7.601 5.933V.851h.587v5.082zM9.034 5.933V2.781h-.506v-.486h.506v-.337c0-.338.077-.584.231-.74.154-.155.4-.232.738-.232.108 0 .217.01.327.03v.486a1.294 1.294 0 0 0-.273-.027c-.153 0-.264.038-.331.113-.068.075-.102.199-.105.37v.337h.709v.486h-.709v3.152h-.587zM12.843 4.286h-2.214V3.74h2.214zM16.446 3.48h-.577a.807.807 0 0 0-.304-.501c-.164-.13-.378-.195-.641-.195a.944.944 0 0 0-.773.365c-.196.243-.294.565-.294.965 0 .41.099.734.296.972a.96.96 0 0 0 .778.358c.254 0 .463-.058.626-.174a.807.807 0 0 0 .319-.501h.577c-.05.358-.213.647-.491.867-.278.22-.623.331-1.035.331-.504 0-.908-.167-1.211-.501-.304-.334-.456-.785-.456-1.352 0-.558.152-1.006.456-1.345.303-.338.705-.508 1.205-.508.43 0 .781.119 1.056.356.274.238.43.525.47.863zM19.874 2.295v3.638h-.554v-.6h-.013c-.23.423-.627.634-1.192.634-.398 0-.713-.12-.945-.36-.231-.239-.347-.566-.347-.98V2.295h.587v2.231c0 .297.076.524.228.682.152.157.37.236.656.236.3 0 .54-.095.72-.284.182-.189.272-.44.272-.752V2.295h.588zM20.432 3.311c0-.306.126-.557.377-.753.25-.195.574-.293.97-.293.37 0 .679.098.93.295.25.197.382.445.393.744h-.564a.545.545 0 0 0-.236-.405c-.14-.099-.32-.148-.543-.148-.225 0-.406.048-.544.145a.45.45 0 0 0-.205.385c0 .243.204.415.614.516l.553.138c.367.093.625.211.775.356.15.146.224.35.224.616 0 .31-.134.565-.403.763-.269.198-.614.297-1.034.297-.392 0-.717-.097-.976-.292a1.04 1.04 0 0 1-.432-.764h.59c.03.184.118.325.266.423.147.098.345.147.592.147.248 0 .444-.048.589-.143a.445.445 0 0 0 .218-.39.387.387 0 0 0-.129-.306c-.085-.075-.231-.14-.438-.194l-.638-.165c-.632-.164-.949-.488-.949-.972zM23.83 1.475h.587v.82h.709v.486h-.71v2.184c0 .166.038.289.11.368.074.078.188.118.343.118.101 0 .186-.006.253-.017v.496c-.085.02-.211.03-.378.03-.328 0-.563-.074-.703-.224-.141-.15-.211-.399-.211-.748V2.781h-.507v-.486h.507v-.82zM28.22 5.464c-.305.335-.712.503-1.223.503-.51 0-.918-.168-1.221-.503-.304-.335-.456-.785-.456-1.35 0-.565.152-1.015.456-1.35.303-.335.71-.503 1.221-.503.511 0 .918.168 1.222.503.304.335.456.785.456 1.35 0 .565-.152 1.015-.456 1.35zm-1.223-.02c.34 0 .605-.118.795-.353.19-.235.285-.56.285-.977 0-.418-.095-.745-.285-.979-.19-.234-.455-.35-.795-.35s-.604.117-.794.352c-.19.235-.286.561-.286.977 0 .416.096.742.287.977.192.235.456.353.793.353zM30.496 5.967c-.46 0-.834-.17-1.124-.511-.29-.341-.435-.788-.435-1.342 0-.551.144-.998.432-1.34a1.39 1.39 0 0 1 1.113-.513c.26 0 .49.054.69.162.202.108.359.262.471.463h.014V.85h.587v5.082h-.56V5.32h-.01c-.12.21-.28.37-.481.481a1.416 1.416 0 0 1-.697.167zm.104-3.183a.94.94 0 0 0-.77.365c-.195.243-.293.565-.293.965 0 .403.098.725.292.967a.941.941 0 0 0 .771.363c.315 0 .57-.123.767-.368.195-.245.293-.566.293-.962s-.098-.716-.293-.962a.934.934 0 0 0-.767-.368zM32.931 5.933V2.295h.587v3.638h-.587zm.294-4.225a.357.357 0 0 1-.262-.11.357.357 0 0 1-.11-.261c0-.104.037-.192.11-.264a.36.36 0 0 1 .262-.108c.103 0 .191.036.263.108.072.072.108.16.108.264a.36.36 0 0 1-.108.261.355.355 0 0 1-.263.11zM35.36 5.457c.297 0 .543-.086.737-.258a.83.83 0 0 0 .292-.65v-.293l-.952.06c-.553.034-.83.23-.83.585a.48.48 0 0 0 .204.405c.136.1.32.151.549.151zm-.125.51c-.37 0-.666-.098-.891-.294a.978.978 0 0 1-.338-.776c0-.313.117-.558.351-.737.234-.18.572-.282 1.013-.309l1.02-.06v-.305c0-.225-.073-.398-.217-.52-.144-.12-.35-.182-.617-.182-.212 0-.39.051-.535.152a.644.644 0 0 0-.272.409h-.564c.01-.306.145-.563.409-.771.263-.209.586-.313.968-.313.43 0 .773.107 1.03.32.256.212.384.497.384.855v2.497h-.556v-.63h-.014a1.158 1.158 0 0 1-.472.484c-.212.12-.445.18-.7.18zM37.613 5.933V.851h.587v5.082zM40.364 5.933V.851h.587v5.082zM44.325 5.464c-.304.335-.711.503-1.222.503-.51 0-.918-.168-1.222-.503-.303-.335-.455-.785-.455-1.35 0-.565.152-1.015.455-1.35.304-.335.711-.503 1.222-.503.51 0 .918.168 1.222.503.304.335.456.785.456 1.35 0 .565-.152 1.015-.456 1.35zm-1.222-.02c.34 0 .605-.118.795-.353.19-.235.285-.56.285-.977 0-.418-.095-.745-.285-.979-.19-.234-.455-.35-.795-.35s-.605.117-.795.352c-.19.235-.285.561-.285.977 0 .416.096.742.287.977.191.235.456.353.793.353zM46.693 5.41a.95.95 0 0 0 .774-.363c.197-.241.296-.557.296-.946 0-.392-.099-.709-.296-.952a.949.949 0 0 0-.774-.365.927.927 0 0 0-.763.36c-.191.24-.287.558-.287.957 0 .396.096.713.287.951a.929.929 0 0 0 .763.358zm.01 1.823c-.412 0-.755-.092-1.03-.275-.274-.184-.433-.426-.475-.728h.61a.59.59 0 0 0 .316.36c.168.089.372.133.613.133.315 0 .564-.076.749-.228a.756.756 0 0 0 .277-.616v-.57h-.014a1.189 1.189 0 0 1-.48.46 1.44 1.44 0 0 1-.688.164c-.46 0-.833-.168-1.115-.504-.282-.337-.424-.78-.424-1.328 0-.556.142-1.002.426-1.337.283-.335.659-.503 1.127-.503.256 0 .488.054.693.162.206.108.37.262.491.463h.01v-.59h.56v3.536c0 .434-.146.776-.44 1.026-.293.25-.695.375-1.206.375zM49.003 5.933V2.295h.587v3.638h-.587zm.294-4.225a.357.357 0 0 1-.262-.11.357.357 0 0 1-.11-.261c0-.104.037-.192.11-.264a.36.36 0 0 1 .262-.108c.103 0 .191.036.263.108.072.072.108.16.108.264a.36.36 0 0 1-.108.261.355.355 0 0 1-.263.11zM50.244 5.933V2.295h.553v.59h.014c.232-.416.628-.624 1.188-.624.4 0 .716.12.948.36.232.24.348.566.348.98v2.332h-.587v-2.23c0-.298-.076-.525-.228-.682-.152-.158-.371-.237-.657-.237-.299 0-.54.095-.72.284-.181.189-.272.44-.272.753v2.112h-.587zM57.163 5.967c-.265 0-.5-.056-.702-.167a1.232 1.232 0 0 1-.483-.48h-.013v.613h-.557V.851h.587v2.035h.014c.115-.2.273-.355.476-.463.202-.108.433-.162.692-.162.459 0 .83.17 1.113.512.284.34.426.788.426 1.341 0 .556-.143 1.004-.427 1.343-.285.34-.66.51-1.126.51zm-.105-3.183a.94.94 0 0 0-.77.37c-.198.246-.296.566-.296.96 0 .396.098.717.295.962a.942.942 0 0 0 .771.368c.32 0 .576-.12.768-.361.193-.24.289-.564.289-.969 0-.403-.096-.725-.289-.967a.932.932 0 0 0-.768-.363zM59.366 7.253c-.088 0-.174-.008-.257-.024v-.496c.068.014.147.02.24.02a.583.583 0 0 0 .405-.136c.1-.091.189-.246.263-.464l.07-.216-1.346-3.642h.625l1.019 3.041h.013l1.02-3.04h.617l-1.424 3.86c-.155.42-.321.709-.498.864-.177.155-.426.233-.747.233z"/>
        </g>
        <path d="M68.418 6.156a.36.36 0 0 1-.351.244h-.88c-.24 0-.414-.206-.352-.415L68.528.267A.394.394 0 0 1 68.913 0h1.023c.18 0 .338.11.384.267l1.693 5.718c.062.21-.113.415-.352.415h-.88a.36.36 0 0 1-.351-.244l-.836-2.822c-.046-.158-.294-.158-.34 0l-.836 2.822z" fill="#B7B8BD" fill-rule="nonzero"/>
        <path d="M68.66 5.6c-.068 0-.117-.036-.1-.072l.331-.686c.028-.056.171-.056.199 0l.33.686c.018.036-.031.072-.099.072h-.661z" fill="#B7B8BD" fill-rule="nonzero"/>
    </g>
</svg>
