<svg width="88" height="47" viewBox="0 0 88 47" xmlns="http://www.w3.org/2000/svg" xmlns:xlink="http://www.w3.org/1999/xlink">
    <defs>
        <path id="mfy2lmv7wa" d="M0 0h88v47H0z"/>
    </defs>
    <g fill="none" fill-rule="evenodd">
        <mask id="cqm2oy4ebb" fill="#fff">
            <use xlink:href="#mfy2lmv7wa"/>
        </mask>
        <use fill-opacity=".01" fill="#191E28" xlink:href="#mfy2lmv7wa"/>
        <g opacity=".9" mask="url(#cqm2oy4ebb)">
            <path d="M37.385-13.052c-.374 0-.67-.329-.67-.75-.001-1.274.503-3.495 3.873-4.198-.054.817-.444 4.507-3.097 4.94l-.106.008zm13.124-.009c-2.653-.432-3.043-4.122-3.097-4.939 3.37.703 3.875 2.924 3.872 4.199 0 .42-.296.749-.67.749l-.105-.009zm-17.863 1.013a.82.82 0 0 1-.784-.605c-.352-1.27-.408-3.612 3.108-5.142.16.796.765 4.602-2.033 5.692a.81.81 0 0 1-.29.055zm22.708 0a.805.805 0 0 1-.29-.055c-2.802-1.091-2.195-4.896-2.034-5.692 3.514 1.53 3.46 3.87 3.108 5.14a.82.82 0 0 1-.784.607zM27.31-9.842a.902.902 0 0 1-.831-.533c-.564-1.286-.952-3.75 2.717-5.895.279.787 1.501 4.735-1.44 6.316a.96.96 0 0 1-.446.112zm33.38 0a.955.955 0 0 1-.446-.112c-2.941-1.58-1.72-5.529-1.44-6.316 3.669 2.144 3.281 4.609 2.717 5.895a.903.903 0 0 1-.832.533zM39.775-7.427c-1.897 0-2.765-1.112-3.16-2.046a.761.761 0 0 1 .008-.608.802.802 0 0 1 .462-.433 3.052 3.052 0 0 1 1.025-.185c2.064 0 3.394 2.343 3.691 2.923-.737.232-1.417.35-2.026.35zm8.45 0c-.61 0-1.292-.117-2.03-.35.299-.579 1.63-2.922 3.693-2.922.336 0 .68.063 1.026.185.204.073.372.23.46.434.089.197.09.413.009.607-.396.934-1.264 2.046-3.159 2.046zm-25.967.673a.895.895 0 0 1-.76-.41c-.755-1.186-1.513-3.563 1.783-6.242.397.736 2.208 4.45-.458 6.463a.932.932 0 0 1-.565.189zm43.482 0a.93.93 0 0 1-.565-.19c-2.666-2.013-.855-5.726-.458-6.462 3.296 2.68 2.538 5.056 1.783 6.241a.895.895 0 0 1-.76.41zm-32.657 1.86c-1.438 0-2.388-.783-2.932-1.44a.89.89 0 0 1-.196-.692.957.957 0 0 1 .385-.652c.626-.452 1.31-.68 2.034-.68 2 0 3.788 1.734 4.218 2.186-1.264.847-2.445 1.278-3.508 1.278h-.001zm21.831 0c-1.063 0-2.243-.43-3.51-1.278.431-.452 2.22-2.187 4.219-2.187.725 0 1.41.23 2.034.681a.96.96 0 0 1 .387.652.897.897 0 0 1-.197.692c-.543.657-1.494 1.44-2.933 1.44zM17.564-2.776a.882.882 0 0 1-.65-.278c-.961-1.025-2.149-3.219.594-6.464.526.648 2.996 3.961.748 6.434a.934.934 0 0 1-.692.308zm52.872 0a.936.936 0 0 1-.693-.308c-2.246-2.472.223-5.786.75-6.434 2.742 3.246 1.554 5.439.592 6.464a.878.878 0 0 1-.649.278zM26.731-1.408c-1.14 0-2-.543-2.523-1a.905.905 0 0 1-.304-.651.955.955 0 0 1 .277-.706c.69-.694 1.53-1.046 2.493-1.046 1.774 0 3.471 1.193 3.919 1.532-1.33 1.242-2.629 1.871-3.862 1.871zm34.537 0c-1.232 0-2.53-.63-3.86-1.871.447-.34 2.147-1.532 3.918-1.532.963 0 1.802.352 2.492 1.046a.952.952 0 0 1 .277.706.899.899 0 0 1-.304.651c-.523.457-1.384 1-2.522 1zM13.381 2.351a.871.871 0 0 1-.544-.186c-1.107-.866-2.616-2.851-.404-6.478.62.56 3.567 3.456 1.728 6.243a.936.936 0 0 1-.78.421zm61.238 0a.935.935 0 0 1-.78-.421c-1.841-2.789 1.108-5.684 1.728-6.243 2.213 3.627.703 5.612-.404 6.478a.876.876 0 0 1-.544.186zm-53.171.981c-.944 0-1.713-.387-2.192-.711a.898.898 0 0 1-.383-.609.954.954 0 0 1 .188-.734c.71-.912 1.676-1.375 2.873-1.375 1.582 0 3.113.817 3.55 1.071-1.308 1.565-2.666 2.358-4.036 2.358zm45.104 0c-1.37 0-2.729-.793-4.037-2.358.437-.254 1.969-1.07 3.552-1.07 1.196 0 2.162.462 2.872 1.374.16.206.228.473.187.733a.894.894 0 0 1-.383.61c-.478.324-1.246.711-2.19.711zM17.2 8.817c-.543 0-1.095-.12-1.64-.36a.886.886 0 0 1-.486-.526.958.958 0 0 1 .05-.757c.673-1.301 1.87-1.96 3.555-1.96 1.217 0 2.33.356 2.705.49-1.164 2.066-2.57 3.113-4.183 3.113zm53.6 0c-1.613 0-3.02-1.047-4.184-3.114.376-.133 1.489-.49 2.704-.49 1.687 0 2.882.66 3.555 1.96.12.234.139.51.051.758a.886.886 0 0 1-.486.527c-.545.239-1.097.36-1.64.36zm-60.75.001a.863.863 0 0 1-.393-.093C8.4 8.097 6.526 6.45 7.971 2.457c.719.426 4.185 2.677 2.936 5.774a.937.937 0 0 1-.857.587zm67.901 0a.938.938 0 0 1-.858-.586c-1.25-3.098 2.218-5.349 2.936-5.775 1.444 3.994-.429 5.64-1.686 6.268a.865.865 0 0 1-.392.093zM7.91 15.517a.955.955 0 0 1-.236-.031c-1.405-.375-3.65-1.654-3.015-6.007.806.278 4.805 1.837 4.183 5.244a.957.957 0 0 1-.932.794zm72.181 0a.968.968 0 0 1-.933-.794c-.622-3.41 3.377-4.967 4.182-5.244.635 4.353-1.609 5.632-3.014 6.007a.953.953 0 0 1-.235.03zm-65.91.096c-.32 0-.65-.037-.977-.11a.935.935 0 0 1-.603-.442.995.995 0 0 1-.099-.78c.683-2.347 2.947-2.84 4.726-2.84.613 0 1.108.062 1.34.098-1.109 3.363-2.993 4.074-4.387 4.074zm59.638 0c-1.394 0-3.278-.711-4.387-4.074a9.078 9.078 0 0 1 1.339-.098c1.78 0 4.044.493 4.728 2.84a.996.996 0 0 1-.1.78.932.932 0 0 1-.603.442c-.328.073-.656.11-.977.11zM6.93 21.814c-1.591 0-3.648-.801-4.468-4.592.06-.002.137-.004.228-.004 1.151 0 4.953.25 5.528 3.45a.974.974 0 0 1-.182.759.914.914 0 0 1-.644.365 4.75 4.75 0 0 1-.462.022zm74.14 0a4.75 4.75 0 0 1-.462-.022.912.912 0 0 1-.645-.365.974.974 0 0 1-.182-.76c.575-3.2 4.377-3.449 5.53-3.449.09 0 .167.002.227.004-.82 3.79-2.877 4.592-4.468 4.592zm-68.676 1.694c-.51 0-.938-.424-.957-.945-.123-3.463 4.07-4.36 4.902-4.504.001 4.395-2.406 5.299-3.852 5.444l-.093.005zm63.12-.005c-1.447-.145-3.854-1.049-3.852-5.444.832.144 5.024 1.044 4.901 4.504-.019.52-.447.945-.957.945l-.092-.005zM6.447 28.438c-1.32 0-3.155-.663-4.447-3.801a9.308 9.308 0 0 1 1.846-.19c1.587 0 3.641.446 4.427 2.566a.976.976 0 0 1-.044.78.918.918 0 0 1-.571.473 4.498 4.498 0 0 1-1.211.172zm75.105 0a4.51 4.51 0 0 1-1.21-.172.918.918 0 0 1-.572-.473.978.978 0 0 1-.043-.78c.786-2.12 2.84-2.566 4.427-2.566.844 0 1.554.128 1.846.19-1.293 3.138-3.128 3.801-4.447 3.801h-.001zm-68.086 2.435a.977.977 0 0 1-.949-.786c-.696-3.394 3.29-4.975 4.087-5.254.73 4.334-1.493 5.623-2.896 6.007a.915.915 0 0 1-.242.033zm61.068 0a.915.915 0 0 1-.242-.033c-1.402-.383-3.626-1.672-2.896-6.007.798.28 4.781 1.863 4.088 5.254a.979.979 0 0 1-.95.786zM7.608 35.36c-1.614 0-3.08-1.012-4.36-3.009.409-.166 1.693-.638 3.072-.638 1.61 0 2.795.624 3.525 1.854.14.235.173.517.095.776a.912.912 0 0 1-.477.567c-.61.3-1.234.45-1.855.45zm72.785 0c-.622 0-1.246-.15-1.856-.45a.912.912 0 0 1-.477-.567.977.977 0 0 1 .095-.776c.73-1.23 1.916-1.854 3.525-1.854 1.379 0 2.663.472 3.072.64-1.28 1.995-2.746 3.007-4.359 3.007zm-64.438 2.437a.983.983 0 0 1-.892-.578c-1.435-3.15 2.093-5.583 2.809-6.034 1.68 4.062-.2 5.815-1.48 6.502a.908.908 0 0 1-.436.11h-.001zm56.09 0a.918.918 0 0 1-.437-.11c-1.28-.687-3.16-2.44-1.48-6.502.716.45 4.244 2.885 2.81 6.034a.986.986 0 0 1-.894.578zM9.89 41.423c-1.37 0-2.765-.745-4.153-2.214.458-.295 2.138-1.291 3.877-1.291 1.138 0 2.092.425 2.83 1.266.18.204.266.475.24.744a.92.92 0 0 1-.366.647c-.52.386-1.362.848-2.428.848zm68.218 0c-1.065 0-1.909-.462-2.429-.848a.916.916 0 0 1-.364-.647.983.983 0 0 1 .239-.744c.737-.84 1.69-1.266 2.83-1.266 1.741 0 3.42.996 3.877 1.29-1.388 1.47-2.783 2.215-4.153 2.215zm-58.214 2.12a.981.981 0 0 1-.826-.447c-1.894-2.898 1.229-5.836 1.868-6.39 2.272 3.764.678 5.781-.484 6.653a.928.928 0 0 1-.558.184zm48.21 0a.927.927 0 0 1-.56-.184c-1.16-.873-2.754-2.89-.48-6.653.637.554 3.76 3.492 1.866 6.39a.995.995 0 0 1-.826.447zM13.07 47.508c-1.216 0-2.527-.562-3.9-1.672.461-.392 2.294-1.839 4.24-1.839.897 0 1.707.308 2.406.916a.98.98 0 0 1 .336.706.917.917 0 0 1-.276.689c-.559.548-1.5 1.2-2.805 1.2zm61.857 0c-1.304 0-2.246-.652-2.805-1.2a.916.916 0 0 1-.275-.689.975.975 0 0 1 .335-.706c.7-.608 1.508-.916 2.406-.916 1.948 0 3.779 1.447 4.239 1.84-1.373 1.11-2.683 1.671-3.898 1.671h-.002zm-49.371.653c-.303 0-.59-.131-.788-.36-2.4-2.77.435-6.309 1.008-6.97 2.918 3.616 1.557 5.963.476 7.045a.972.972 0 0 1-.696.285zm36.886 0a.972.972 0 0 1-.696-.285c-1.08-1.081-2.443-3.427.475-7.044.573.66 3.407 4.199 1.01 6.969-.2.229-.487.36-.789.36zm-30.96 3.258c-.268 0-.523-.1-.719-.286-2.66-2.52-.187-6.32.317-7.034 3.261 3.31 2.136 5.78 1.168 6.963a.982.982 0 0 1-.765.357h-.001zm25.034 0a.983.983 0 0 1-.766-.357c-.968-1.183-2.092-3.653 1.168-6.963.504.713 2.976 4.515.317 7.034-.196.185-.45.286-.719.286zM38.121 53.22c-.173 0-.344-.043-.496-.125-3.215-1.743-1.814-6.042-1.512-6.861 3.997 2.349 3.55 5.019 2.923 6.41a1 1 0 0 1-.915.576zm11.758 0a1 1 0 0 1-.915-.577c-.628-1.39-1.076-4.058 2.922-6.41.301.82 1.704 5.12-1.511 6.862a1.036 1.036 0 0 1-.496.125zm-32.006 0c-1.176 0-2.478-.478-3.873-1.422.456-.47 2.418-2.346 4.606-2.346.806 0 1.565.256 2.256.759.233.169.386.431.42.718a.972.972 0 0 1-.222.753c-.594.701-1.63 1.538-3.186 1.538h-.001zm52.254 0c-1.557 0-2.593-.837-3.187-1.538a.972.972 0 0 1-.222-.753c.034-.287.187-.549.42-.718.692-.503 1.45-.76 2.256-.76 2.19 0 4.15 1.876 4.606 2.347-1.395.944-2.697 1.422-3.873 1.422zm-26.055.622c-.316 0-.624-.107-.844-.294-.78-.666-1.194-1.457-1.228-2.352-.071-1.84 1.471-3.615 1.849-4.023 1.468 1.332 2.219 2.623 2.235 3.838.015 1.15-.64 2.012-1.195 2.532-.202.19-.5.299-.817.299zm-19.95 3.56c-1.214 0-2.484-.435-3.849-1.293.45-.494 2.413-2.502 4.654-2.502h.158c.758 0 1.48.23 2.15.683.24.162.402.42.445.704a.972.972 0 0 1-.195.76c-.595.753-1.647 1.65-3.283 1.65l-.08-.002zm39.757 0c-1.718 0-2.77-.895-3.364-1.648a.976.976 0 0 1-.195-.76c.043-.285.206-.542.446-.704.669-.453 1.391-.683 2.15-.683h.157c2.24 0 4.205 2.008 4.654 2.502-1.365.859-2.634 1.294-3.77 1.294h-.078zm-20.048.205c-.558 0-1.122-.013-1.686-.04-17.942-.84-32.683-15.546-33.559-33.48-.872-17.87 11.753-33.584 29.366-36.55h.023c.27 0 .447.12.526.299a.502.502 0 0 1-.372.712C22.224-8.603 10.23 5.918 10.23 22.328c0 18.22 14.69 32.558 33.444 32.638h.15c18.248 0 33.001-13.839 33.588-31.503C77.974 6.596 66.063-8.4 49.709-11.42a.512.512 0 0 1-.345-.237.49.49 0 0 1-.05-.402.517.517 0 0 1 .49-.376C66.828-9.486 79.12 5.13 79.12 22.327c0 9.41-3.676 18.266-10.348 24.936-6.672 6.67-15.529 10.344-24.939 10.344h-.002zm-15.008 3.558a10.22 10.22 0 0 1-1.764-.167c.277-.752 1.752-4.343 4.751-4.343.281 0 .571.03.865.094.282.06.53.237.678.484.143.239.18.516.105.778-.342 1.177-1.396 3.154-4.635 3.154zm30.355 0c-3.238 0-4.295-1.977-4.637-3.154a.972.972 0 0 1 .106-.78c.148-.246.395-.423.677-.482.294-.063.584-.094.865-.094 3 0 4.475 3.591 4.752 4.343-.626.11-1.22.167-1.763.167zm-24.915 2.222c.111-.867.866-5.337 4.531-5.392.3 0 .576.118.772.327.19.2.286.459.272.73-.09 1.527-.935 4.105-5.575 4.335zm19.473 0c-4.642-.23-5.485-2.808-5.574-4.335a.972.972 0 0 1 .272-.73c.196-.209.472-.327.757-.327 3.68.055 4.434 4.525 4.545 5.392zM44.027 65c-1.506-1.405-2.245-2.72-2.192-3.914.047-1.119.79-1.918 1.403-2.39.21-.161.493-.25.803-.25.376 0 .737.128.989.348.802.704 1.202 1.51 1.187 2.396-.034 1.81-1.783 3.452-2.19 3.81z" fill="#E6E7EA" opacity=".4"/>
            <path d="M42.066 13.233c.858 1.003 1.292 2.09 1.292 3.241 0 1.285-.454 2.395-1.35 3.3 2.925-.241 4.19-1.704 4.19-4.757 0-.805-.197-1.378-.62-1.804-.448-.45-.999-.68-1.733-.72h-.09c-.663 0-1.21.238-1.69.74m.354 18.598c.152.016.309.024.47.024 1.005 0 1.811-.263 2.465-.806.576-.477.844-1.118.844-2.016 0-.853 0-3.12-5.33-3.12-.333 0-.68.01-1.039.028.497.239.965.577 1.402 1.014.965.968 1.455 2.114 1.455 3.407 0 .514-.09 1.006-.267 1.47m1.897 6.553c-2.706 0-5.07-.546-7.024-1.623-2.672-1.484-4.026-3.68-4.026-6.528 0-1.324.462-2.456 1.372-3.365.902-.901 2.011-1.358 3.296-1.358.082 0 .164.002.245.007v-4.389c-1.245-.124-2.334-.708-3.243-1.739-.997-1.126-1.502-2.44-1.502-3.901 0-2.883 1.194-5.146 3.55-6.725 1.89-1.287 4.217-1.941 6.913-1.941 2.995 0 5.56.695 7.623 2.066 2.58 1.723 3.889 4.188 3.889 7.329 0 2.21-.826 4.148-2.456 5.77 2.02 1.659 3.044 3.737 3.044 6.188 0 1.433-.372 2.935-1.103 4.463-.734 1.531-1.671 2.749-2.787 3.62-1.698 1.406-4.324 2.126-7.79 2.126" fill="#B6B8B9"/>
            <path d="M39.6 20.418c.502.054.998.082 1.476.082 3.956 0 5.798-1.742 5.798-5.483 0-.988-.269-1.739-.822-2.295-.565-.568-1.275-.868-2.17-.917l-.124-.002c-1.053 0-1.905.48-2.594 1.463 1.008.993 1.519 2.07 1.519 3.208a3.867 3.867 0 0 1-1.17 2.83 3.84 3.84 0 0 1-2.075 1.096l.163.018zm4.716 17.277c-2.593 0-4.848-.518-6.703-1.54-2.437-1.353-3.672-3.345-3.672-5.921 0-1.131.394-2.097 1.169-2.872.772-.77 1.722-1.161 2.824-1.161 1.047 0 1.996.42 2.824 1.247.832.833 1.252 1.813 1.252 2.914 0 .71-.202 1.361-.606 1.947.462.158.954.236 1.485.236 1.166 0 2.112-.315 2.891-.96.736-.611 1.094-1.445 1.094-2.552 0-.942 0-3.809-6.006-3.809-.414 0-.846.013-1.3.04l-.714.042v-4.844a5.207 5.207 0 0 1-.164.003c-1.259 0-2.354-.517-3.252-1.536-.88-.997-1.328-2.154-1.328-3.44 0-2.636 1.091-4.705 3.244-6.149 1.78-1.212 3.983-1.828 6.543-1.828 2.863 0 5.303.658 7.254 1.955 2.378 1.587 3.582 3.858 3.582 6.75 0 2.27-.956 4.224-2.846 5.821 2.28 1.601 3.434 3.662 3.434 6.138 0 1.328-.348 2.728-1.034 4.16-.687 1.434-1.558 2.569-2.59 3.375-1.585 1.313-4.073 1.984-7.38 1.984z" fill="#000"/>
            <path d="M54.646 28.176c0 1.23-.323 2.515-.966 3.858-.644 1.343-1.442 2.386-2.393 3.129-1.485 1.23-3.808 1.843-6.97 1.843-2.492 0-4.619-.486-6.383-1.457-2.212-1.228-3.317-3-3.317-5.315 0-.943.321-1.736.966-2.38.643-.642 1.427-.964 2.351-.964.868 0 1.651.35 2.351 1.05.7.701 1.05 1.508 1.05 2.422 0 .83-.35 1.558-1.05 2.186a5.071 5.071 0 0 0 2.604.686c1.315 0 2.42-.37 3.317-1.114.896-.743 1.343-1.772 1.343-3.087 0-3.285-2.673-4.771-8.02-4.457v-3.472a14.36 14.36 0 0 0 1.547.085c4.315 0 6.473-2.057 6.473-6.172 0-1.171-.34-2.1-1.022-2.786-.683-.686-1.552-1.057-2.61-1.114-1.53-.057-2.741.7-3.632 2.271 1.148.972 1.722 2.001 1.722 3.086 0 .915-.322 1.694-.966 2.336-.644.644-1.427.965-2.35.965-1.065 0-1.981-.436-2.751-1.307-.77-.872-1.155-1.865-1.155-2.98 0-2.4.98-4.257 2.94-5.572 1.679-1.142 3.736-1.714 6.172-1.714 2.743 0 5.039.614 6.886 1.843 2.183 1.457 3.275 3.515 3.275 6.172 0 2.344-1.12 4.301-3.36 5.873 2.631 1.542 3.948 3.572 3.948 6.086" fill="#F0F0F0"/>
        </g>
    </g>
</svg>
