<svg width="100" height="103" viewBox="0 0 100 103" xmlns="http://www.w3.org/2000/svg" xmlns:xlink="http://www.w3.org/1999/xlink">
    <defs>
        <path d="M0 10.02V4.688c2.441-.196 4.375-.68 5.8-1.45C7.228 2.465 8.194 1.386 8.702 0h9.492v28.799c0 .996.264 1.655.791 1.977.528.323 1.68.484 3.457.484h1.377v5.273H0V31.26h1.64c1.895 0 3.135-.166 3.721-.498.586-.332.88-1.309.88-2.93V10.02H0z" id="di9mn2l34a"/>
    </defs>
    <g fill="none" fill-rule="evenodd">
        <g opacity=".5">
            <path d="M42.125 5.961c-.446 0-.797-.396-.797-.902-.002-1.536.598-4.212 4.61-5.059-.064.984-.528 5.43-3.687 5.95l-.126.011zm15.624-.01C54.59 5.43 54.126.984 54.062 0c4.012.847 4.613 3.523 4.61 5.059-.001.505-.353.902-.797.902l-.126-.01zM36.484 7.17a.98.98 0 0 1-.934-.73c-.42-1.53-.486-4.35 3.701-6.194.19.96.91 5.544-2.42 6.858a.955.955 0 0 1-.347.066zm27.032 0a.949.949 0 0 1-.345-.066C59.835 5.79 60.558 1.206 60.75.247c4.184 1.843 4.118 4.663 3.7 6.193a.979.979 0 0 1-.934.731zM30.131 9.83c-.432 0-.821-.252-.99-.643-.671-1.549-1.133-4.518 3.235-7.101.332.948 1.788 5.704-1.714 7.61a1.131 1.131 0 0 1-.531.134zm39.737 0c-.184 0-.366-.047-.53-.135-3.502-1.905-2.047-6.661-1.715-7.61 4.369 2.584 3.907 5.553 3.236 7.102-.169.39-.558.643-.99.643zm-24.897 2.91c-2.258 0-3.292-1.34-3.763-2.465a.96.96 0 0 1 .561-1.254 3.6 3.6 0 0 1 1.22-.224c2.458 0 4.041 2.823 4.395 3.522-.878.28-1.688.421-2.413.421zm10.06 0c-.726 0-1.538-.141-2.416-.421.355-.699 1.94-3.522 4.396-3.522.4 0 .81.076 1.22.224a.956.956 0 0 1 .55.522.924.924 0 0 1 .01.732c-.472 1.124-1.505 2.465-3.76 2.465zm-30.913.81c-.372 0-.71-.185-.905-.494-.897-1.428-1.801-4.292 2.124-7.52.471.886 2.628 5.36-.547 7.786a1.1 1.1 0 0 1-.672.228zm51.764 0c-.245 0-.478-.079-.672-.228-3.175-2.425-1.018-6.9-.546-7.786 3.924 3.228 3.021 6.092 2.123 7.52-.195.31-.533.494-.905.494zM37.005 15.79c-1.712 0-2.843-.943-3.49-1.735a1.08 1.08 0 0 1-.234-.833c.04-.314.207-.6.458-.785.745-.545 1.56-.821 2.422-.821 2.38 0 4.509 2.09 5.021 2.634-1.505 1.022-2.91 1.54-4.176 1.54h-.001zm25.99 0c-1.266 0-2.67-.518-4.179-1.54.513-.543 2.642-2.634 5.022-2.634.863 0 1.678.276 2.422.82.252.186.42.472.46.786.038.306-.045.602-.234.834-.647.79-1.779 1.734-3.492 1.734zm-44.467 2.552c-.297 0-.573-.119-.773-.335-1.145-1.235-2.559-3.878.707-7.788.626.781 3.567 4.773.89 7.752-.21.236-.51.37-.824.37zm62.944 0c-.314 0-.615-.135-.826-.371-2.674-2.978.266-6.971.893-7.752 3.265 3.911 1.85 6.553.705 7.788a1.04 1.04 0 0 1-.772.335zm-52.03 1.649c-1.356 0-2.381-.655-3.004-1.205a1.095 1.095 0 0 1-.362-.785c-.01-.316.11-.627.33-.85.822-.836 1.822-1.26 2.968-1.26 2.111 0 4.133 1.437 4.665 1.845-1.583 1.496-3.13 2.255-4.598 2.255zm41.115 0c-1.467 0-3.013-.759-4.596-2.255.532-.408 2.557-1.845 4.665-1.845 1.146 0 2.145.424 2.967 1.26.22.223.341.534.33.85-.011.308-.14.586-.362.785-.623.55-1.648 1.205-3.002 1.205h-.002zM13.55 24.519c-.237 0-.462-.077-.648-.224-1.318-1.043-3.114-3.435-.48-7.805.737.674 4.246 4.165 2.057 7.522a1.111 1.111 0 0 1-.93.507zm72.902 0c-.373 0-.72-.19-.929-.507-2.19-3.36 1.32-6.848 2.057-7.522 2.635 4.37.838 6.762-.48 7.805a1.034 1.034 0 0 1-.648.224zm-63.299 1.183c-1.123 0-2.039-.467-2.61-.857a1.083 1.083 0 0 1-.455-.734 1.16 1.16 0 0 1 .224-.884c.845-1.1 1.995-1.657 3.42-1.657 1.884 0 3.706.985 4.226 1.29-1.557 1.886-3.174 2.842-4.805 2.842zm53.696 0c-1.632 0-3.25-.956-4.807-2.841.521-.306 2.344-1.29 4.23-1.29 1.423 0 2.573.556 3.418 1.656.19.248.271.57.223.883a1.079 1.079 0 0 1-.456.735c-.57.39-1.484.857-2.608.857zM18.095 32.31a4.8 4.8 0 0 1-1.952-.433 1.066 1.066 0 0 1-.579-.635 1.167 1.167 0 0 1 .06-.912c.801-1.568 2.226-2.362 4.232-2.362 1.45 0 2.773.43 3.221.59-1.386 2.49-3.061 3.752-4.98 3.752h-.002zm63.81 0c-1.92 0-3.596-1.261-4.981-3.752.447-.16 1.772-.59 3.22-.59 2.007 0 3.43.794 4.231 2.362.144.28.165.613.06.912-.1.289-.305.516-.578.635a4.794 4.794 0 0 1-1.951.433zm-72.322.001c-.165 0-.321-.038-.467-.113-1.497-.756-3.728-2.739-2.007-7.551.855.513 4.982 3.226 3.494 6.957a1.116 1.116 0 0 1-1.02.707zm80.835 0c-.443 0-.852-.284-1.021-.706-1.488-3.732 2.64-6.445 3.494-6.958 1.72 4.812-.51 6.795-2.006 7.551a1.029 1.029 0 0 1-.467.113zm-83.383 8.07c-.093 0-.188-.013-.28-.037-1.673-.451-4.346-1.992-3.589-7.237.958.335 5.72 2.213 4.98 6.318-.101.554-.569.956-1.11.956zm85.93 0c-.535 0-1.012-.411-1.11-.956-.74-4.107 4.02-5.984 4.978-6.318.757 5.245-1.915 6.786-3.587 7.237a1.122 1.122 0 0 1-.28.037zm-78.464.117c-.382 0-.773-.045-1.163-.133a1.114 1.114 0 0 1-.718-.532 1.212 1.212 0 0 1-.117-.94c.812-2.828 3.508-3.422 5.626-3.422.73 0 1.319.075 1.595.118-1.32 4.052-3.563 4.909-5.223 4.909zm70.998 0c-1.66 0-3.903-.857-5.223-4.91.276-.042.866-.117 1.594-.117 2.119 0 4.815.594 5.629 3.422.09.315.047.657-.119.94a1.11 1.11 0 0 1-.718.532 5.262 5.262 0 0 1-1.163.133zm-79.63 7.471c-1.894 0-4.342-.966-5.319-5.533.072-.002.163-.005.27-.005 1.372 0 5.897.3 6.582 4.157.057.321-.021.655-.216.914a1.085 1.085 0 0 1-.767.44c-.171.016-.354.027-.55.027zm88.262 0c-.196 0-.379-.01-.55-.027a1.085 1.085 0 0 1-.768-.44 1.185 1.185 0 0 1-.216-.914c.684-3.857 5.21-4.157 6.582-4.157.108 0 .2.003.27.005-.974 4.567-3.424 5.533-5.318 5.533zm-81.758 2.04c-.606 0-1.116-.51-1.139-1.138-.145-4.172 4.845-5.254 5.837-5.427 0 5.296-2.865 6.384-4.586 6.56l-.112.006zm75.143-.005c-1.722-.176-4.588-1.264-4.585-6.56.99.174 5.98 1.258 5.835 5.427-.023.627-.533 1.139-1.14 1.139l-.11-.006zM5.294 55.949c-1.572 0-3.756-.799-5.294-4.58a10.954 10.954 0 0 1 2.198-.228c1.888 0 4.334.537 5.27 3.091.113.307.093.65-.053.94a1.097 1.097 0 0 1-.68.57 5.295 5.295 0 0 1-1.441.207zm89.41 0c-.471 0-.956-.07-1.44-.207a1.097 1.097 0 0 1-.68-.57 1.19 1.19 0 0 1-.052-.939c.936-2.555 3.383-3.092 5.271-3.092 1.004 0 1.85.154 2.197.228-1.54 3.781-3.723 4.58-5.294 4.58h-.001zM13.65 58.883a1.166 1.166 0 0 1-1.13-.947c-.829-4.09 3.917-5.994 4.866-6.33.868 5.222-1.778 6.775-3.448 7.237-.095.027-.192.04-.288.04zm72.7 0c-.096 0-.193-.013-.288-.04-1.669-.46-4.316-2.014-3.448-7.237.95.337 5.694 2.244 4.867 6.33a1.169 1.169 0 0 1-1.13.947zM6.676 64.29c-1.922 0-3.667-1.218-5.19-3.625.487-.2 2.016-.77 3.657-.77 1.916 0 3.328.753 4.196 2.236.166.282.206.623.114.935a1.096 1.096 0 0 1-.568.683c-.728.36-1.47.54-2.21.54zm86.65 0a4.95 4.95 0 0 1-2.21-.541 1.096 1.096 0 0 1-.569-.683 1.19 1.19 0 0 1 .114-.935c.868-1.483 2.281-2.235 4.196-2.235 1.641 0 3.17.569 3.658.77-1.524 2.406-3.27 3.624-5.19 3.624zm-76.713 2.937a1.17 1.17 0 0 1-1.062-.696c-1.708-3.795 2.492-6.728 3.344-7.271 2.001 4.894-.236 7.007-1.762 7.834a1.07 1.07 0 0 1-.518.133h-.002zm66.773 0c-.183 0-.357-.045-.52-.132-1.524-.828-3.76-2.94-1.76-7.835.85.543 5.051 3.476 3.343 7.27a1.173 1.173 0 0 1-1.063.697zM9.393 71.594c-1.63 0-3.291-.897-4.944-2.668.546-.355 2.546-1.555 4.616-1.555 1.357 0 2.49.512 3.37 1.525.213.246.317.573.285.897a1.108 1.108 0 0 1-.436.779c-.618.465-1.621 1.022-2.89 1.022zm81.214 0c-1.269 0-2.273-.557-2.892-1.022a1.107 1.107 0 0 1-.435-.78c-.032-.323.072-.65.285-.896.878-1.013 2.012-1.525 3.37-1.525 2.072 0 4.07 1.2 4.616 1.555-1.653 1.77-3.315 2.668-4.944 2.668zm-69.303 2.554c-.4 0-.766-.201-.983-.538-2.255-3.492 1.462-7.031 2.223-7.699 2.705 4.535.807 6.965-.576 8.015a1.094 1.094 0 0 1-.664.222zm57.392 0c-.243 0-.473-.076-.666-.222-1.381-1.051-3.28-3.481-.572-8.015.759.668 4.477 4.207 2.221 7.699a1.18 1.18 0 0 1-.983.538zM13.18 78.925c-1.447 0-3.008-.677-4.643-2.014.55-.473 2.73-2.215 5.047-2.215 1.068 0 2.032.37 2.865 1.103.244.215.39.524.4.85.008.318-.108.612-.329.83-.665.66-1.786 1.446-3.339 1.446h-.001zm73.639 0c-1.553 0-2.674-.786-3.34-1.446a1.11 1.11 0 0 1-.327-.83c.01-.326.156-.635.399-.85.833-.732 1.796-1.103 2.865-1.103 2.319 0 4.498 1.742 5.046 2.215-1.635 1.337-3.195 2.014-4.64 2.014h-.003zm-58.775.786c-.36 0-.702-.157-.938-.433-2.857-3.338.518-7.6 1.2-8.397 3.473 4.356 1.853 7.184.566 8.487a1.15 1.15 0 0 1-.828.343zm43.912 0c-.314 0-.61-.12-.828-.343-1.287-1.302-2.909-4.129.565-8.487.682.796 4.056 5.06 1.202 8.397-.237.276-.58.433-.94.433zm-36.858 3.926c-.319 0-.622-.12-.855-.344-3.166-3.035-.223-7.615.377-8.475 3.883 3.989 2.544 6.964 1.39 8.39-.221.273-.552.43-.91.43h-.002zm29.804 0c-.36 0-.69-.156-.913-.43-1.153-1.425-2.49-4.4 1.39-8.389.6.86 3.544 5.44.378 8.475a1.226 1.226 0 0 1-.855.344zM43 85.807c-.205 0-.41-.051-.59-.15-3.828-2.1-2.159-7.28-1.8-8.267 4.757 2.83 4.226 6.047 3.48 7.722a1.19 1.19 0 0 1-1.09.695zm13.998 0c-.473 0-.9-.272-1.09-.695-.747-1.674-1.28-4.89 3.48-7.722.357.987 2.028 6.167-1.8 8.266a1.23 1.23 0 0 1-.59.151zm-38.103 0c-1.4 0-2.95-.576-4.61-1.714.543-.566 2.878-2.826 5.483-2.826.96 0 1.864.308 2.686.915.277.204.459.52.5.865a1.18 1.18 0 0 1-.264.907c-.707.845-1.94 1.853-3.794 1.853zm62.208 0c-1.854 0-3.088-1.008-3.795-1.853a1.18 1.18 0 0 1-.264-.907 1.26 1.26 0 0 1 .501-.865c.823-.607 1.725-.915 2.685-.915 2.607 0 4.942 2.26 5.484 2.826-1.661 1.138-3.21 1.714-4.611 1.714zm-31.018.75c-.376 0-.743-.13-1.005-.355-.93-.801-1.422-1.754-1.462-2.833-.085-2.217 1.752-4.356 2.201-4.847 1.748 1.605 2.642 3.16 2.662 4.623.018 1.385-.764 2.425-1.423 3.051-.241.23-.596.36-.973.36zm-23.751 4.289c-1.445 0-2.956-.525-4.581-1.558.535-.595 2.873-3.015 5.54-3.015h.188c.903 0 1.763.277 2.56.823.284.196.478.506.53.849.05.331-.031.658-.233.916-.708.906-1.96 1.986-3.908 1.986l-.096-.001zm47.33 0c-2.045 0-3.296-1.08-4.004-1.985a1.186 1.186 0 0 1-.233-.916 1.26 1.26 0 0 1 .532-.849c.795-.546 1.655-.823 2.558-.823h.188c2.667 0 5.005 2.42 5.54 3.015-1.625 1.035-3.135 1.56-4.487 1.56l-.094-.002zm-23.866.247c-.664 0-1.336-.015-2.007-.048-21.36-1.012-38.909-18.73-39.951-40.338C6.803 29.177 21.832 10.245 42.8 6.672h.027c.321 0 .531.143.626.359a.608.608 0 0 1-.444.858C24.076 11.322 9.8 28.817 9.8 48.587c0 21.954 17.487 39.227 39.813 39.324h.179c21.724 0 39.287-16.673 39.985-37.955.668-20.323-13.51-38.39-32.98-42.03a.612.612 0 0 1-.411-.285.596.596 0 0 1-.06-.484.617.617 0 0 1 .584-.454c20.265 3.554 34.9 21.165 34.9 41.884 0 11.336-4.377 22.006-12.32 30.043-7.942 8.037-18.486 12.463-29.688 12.463H49.8zM31.932 95.38c-.65 0-1.354-.067-2.1-.2.33-.906 2.086-5.233 5.657-5.233.334 0 .68.037 1.03.113.335.072.63.285.806.583.17.288.215.622.124.937-.406 1.419-1.661 3.8-5.517 3.8zm36.137 0c-3.854 0-5.113-2.381-5.52-3.8-.09-.317-.046-.65.126-.938.176-.298.47-.51.806-.582.35-.076.695-.113 1.03-.113 3.57 0 5.328 4.327 5.657 5.233-.745.133-1.452.2-2.1.2zm-29.661 2.678c.133-1.044 1.03-6.43 5.395-6.497.357 0 .685.143.919.394.227.241.34.553.323.88-.107 1.84-1.113 4.946-6.637 5.223zm23.183 0c-5.527-.277-6.53-3.384-6.636-5.224a1.18 1.18 0 0 1 .323-.88c.234-.25.562-.393.901-.393 4.382.066 5.28 5.453 5.412 6.497zM50.033 100c-1.794-1.692-2.673-3.278-2.61-4.716.056-1.348.94-2.31 1.67-2.88.25-.193.587-.3.956-.3.449 0 .877.153 1.177.419.955.848 1.432 1.82 1.413 2.886-.04 2.181-2.122 4.16-2.606 4.591z" opacity=".4" fill="#E6E7EA"/>
        </g>
        <g transform="translate(38.913 65.467)" fill-rule="nonzero">
            <use fill="#000" xlink:href="#di9mn2l34a"/>
            <use stroke="#A1FF00" strokeWidth="1.96" fill="#A1FF00" xlink:href="#di9mn2l34a"/>
            <path stroke="#000" strokeWidth=".98" d="M17.703.49v28.309c0 1.24.387 2.005 1.026 2.395.566.347 1.793.556 3.712.556h.887v4.293H.49V31.75h1.15c2.027 0 3.339-.208 3.963-.562.38-.216.693-.622.887-1.267.157-.523.24-1.22.24-2.089V9.53H.49V5.136c2.313-.224 4.16-.718 5.544-1.468 1.428-.773 2.425-1.834 3-3.178h8.67z" stroke-linejoin="square"/>
        </g>
    </g>
</svg>
