<svg width="80" height="84" viewBox="0 0 80 84" xmlns="http://www.w3.org/2000/svg" xmlns:xlink="http://www.w3.org/1999/xlink">
    <defs>
        <path d="M1.68 12.837 2.402.387c2.305.194 4.15.33 5.537.407C9.326.87 10.482.91 11.406.91c2.435 0 4.877-.252 7.324-.755.56-.103.905-.155 1.036-.155.208 0 .387.094.537.28.15.188.224.424.224.707 0 1.188-.94 2.311-2.822 3.37-1.881 1.058-4.092 1.587-6.63 1.587-.496 0-1.117-.025-1.866-.077-.749-.052-1.709-.13-2.88-.232l-.177 3.117c.716-.413 1.501-.72 2.354-.92.853-.2 1.806-.3 2.861-.3 3.242 0 5.798.813 7.666 2.44 1.869 1.626 2.803 3.84 2.803 6.641 0 2.724-1.084 4.938-3.252 6.642-2.168 1.703-5.016 2.555-8.545 2.555-3.099 0-5.547-.639-7.344-1.916C.898 22.616 0 20.886 0 18.704c0-1.226.394-2.213 1.182-2.962.787-.749 1.832-1.123 3.134-1.123 1.133 0 2.058.32 2.774.958.716.64 1.074 1.443 1.074 2.41 0 .943-.215 1.65-.644 2.121-.43.471-1.153.797-2.168.978.494.4.996.7 1.503.9.508.2 1.049.3 1.622.3 1.432 0 2.597-.532 3.496-1.597.898-1.065 1.347-2.45 1.347-4.153 0-1.55-.37-2.77-1.113-3.66-.742-.89-1.745-1.336-3.008-1.336-.599 0-1.159.103-1.68.31-.52.206-1.028.536-1.523.987H1.68z" id="lmvr3kk50a"/>
    </defs>
    <g fill="none" fill-rule="evenodd">
        <g opacity=".5">
            <path d="M33.7 4.728c-.356 0-.637-.314-.637-.716C33.06 2.794 33.54.672 36.75 0c-.051.78-.422 4.306-2.95 4.72l-.1.008zm12.5-.009C43.671 4.306 43.3.781 43.25 0c3.21.672 3.69 2.794 3.687 4.012 0 .401-.281.716-.637.716l-.1-.009zm-17.013.969a.782.782 0 0 1-.747-.58c-.336-1.213-.389-3.45 2.961-4.912.152.76.728 4.397-1.937 5.44a.77.77 0 0 1-.277.052zm21.626 0a.765.765 0 0 1-.276-.053C47.868 4.592 48.447.957 48.6.196c3.347 1.461 3.295 3.698 2.96 4.912a.782.782 0 0 1-.747.58zM24.104 7.795a.86.86 0 0 1-.791-.51c-.537-1.228-.906-3.583 2.588-5.632.266.752 1.43 4.525-1.371 6.035a.911.911 0 0 1-.426.107zm31.79 0a.907.907 0 0 1-.424-.107c-2.8-1.51-1.638-5.283-1.372-6.035 3.495 2.049 3.126 4.404 2.589 5.633a.86.86 0 0 1-.792.509zm-19.917 2.308c-1.807 0-2.633-1.063-3.01-1.955a.734.734 0 0 1 .008-.581.765.765 0 0 1 .44-.414c.328-.117.657-.177.976-.177 1.966 0 3.233 2.24 3.516 2.793-.702.222-1.35.334-1.93.334zm8.047 0c-.58 0-1.23-.112-1.932-.334.284-.554 1.552-2.793 3.517-2.793.32 0 .648.06.976.177a.762.762 0 0 1 .447.995c-.376.892-1.203 1.955-3.008 1.955zm-24.73.643a.852.852 0 0 1-.724-.392c-.717-1.133-1.44-3.404 1.7-5.964.376.703 2.102 4.251-.438 6.175a.885.885 0 0 1-.538.18zm41.412 0a.883.883 0 0 1-.538-.181c-2.54-1.924-.814-5.472-.437-6.175 3.14 2.56 2.417 4.83 1.699 5.964a.852.852 0 0 1-.724.392zm-31.102 1.777c-1.37 0-2.274-.748-2.792-1.376a.852.852 0 0 1-.187-.661.915.915 0 0 1 .366-.623c.596-.432 1.248-.65 1.938-.65 1.904 0 3.607 1.658 4.017 2.089-1.204.81-2.329 1.221-3.341 1.221h-.001zm20.791 0c-1.012 0-2.136-.411-3.342-1.221.41-.431 2.113-2.09 4.017-2.09.69 0 1.343.22 1.938.651a.918.918 0 0 1 .368.623.863.863 0 0 1-.187.662c-.518.627-1.423 1.375-2.794 1.375zm-35.572 2.024a.838.838 0 0 1-.619-.266c-.916-.98-2.047-3.075.566-6.177.5.62 2.853 3.786.712 6.149a.888.888 0 0 1-.66.294zm50.354 0a.89.89 0 0 1-.66-.294c-2.14-2.362.212-5.529.714-6.149 2.612 3.103 1.48 5.198.564 6.177a.835.835 0 0 1-.618.266zm-41.624 1.308c-1.085 0-1.904-.52-2.403-.956a.866.866 0 0 1-.29-.623.915.915 0 0 1 .265-.674c.657-.663 1.457-.999 2.374-.999 1.69 0 3.306 1.14 3.732 1.463-1.267 1.187-2.503 1.789-3.678 1.789zm32.893 0c-1.174 0-2.41-.602-3.677-1.789.426-.324 2.046-1.463 3.732-1.463.917 0 1.716.336 2.373 1a.91.91 0 0 1 .264.673.86.86 0 0 1-.29.623c-.498.436-1.317.956-2.401.956h-.001zm-45.607 3.591a.83.83 0 0 1-.518-.178c-1.054-.827-2.491-2.724-.384-6.19.59.535 3.397 3.303 1.645 5.965a.891.891 0 0 1-.743.403zm58.322 0a.89.89 0 0 1-.743-.403c-1.753-2.664 1.055-5.43 1.645-5.965 2.108 3.466.67 5.363-.384 6.19a.832.832 0 0 1-.518.178zm-50.64.938c-.898 0-1.63-.37-2.087-.68a.858.858 0 0 1-.364-.582.914.914 0 0 1 .179-.701c.676-.872 1.596-1.314 2.736-1.314 1.507 0 2.964.78 3.381 1.024-1.246 1.495-2.54 2.253-3.844 2.253zm42.957 0c-1.306 0-2.599-.758-3.845-2.253.417-.243 1.875-1.024 3.383-1.024 1.139 0 2.06.442 2.735 1.314a.915.915 0 0 1 .178.7.855.855 0 0 1-.364.583c-.456.31-1.187.68-2.087.68zm-47.002 5.24a3.868 3.868 0 0 1-1.562-.343.848.848 0 0 1-.463-.503.918.918 0 0 1 .048-.724c.641-1.243 1.78-1.873 3.386-1.873 1.16 0 2.218.34 2.577.468-1.11 1.975-2.45 2.976-3.985 2.976zm51.049 0c-1.538 0-2.878-1-3.986-2.975.358-.127 1.418-.468 2.575-.468 1.607 0 2.745.63 3.386 1.873a.919.919 0 0 1 .049.724.845.845 0 0 1-.463.503 3.864 3.864 0 0 1-1.561.344zm-57.858.002a.82.82 0 0 1-.374-.09c-1.198-.6-2.983-2.172-1.606-5.989.684.407 3.986 2.559 2.796 5.518a.892.892 0 0 1-.816.56zm64.667 0a.894.894 0 0 1-.817-.56c-1.19-2.96 2.113-5.112 2.796-5.519 1.376 3.817-.408 5.39-1.605 5.99a.829.829 0 0 1-.374.089zm-66.706 6.4a.906.906 0 0 1-.225-.03c-1.338-.357-3.476-1.58-2.87-5.74.767.266 4.576 1.756 3.983 5.012a.913.913 0 0 1-.888.758zm68.745 0a.923.923 0 0 1-.89-.758c-.592-3.258 3.217-4.746 3.983-5.011.606 4.16-1.531 5.382-2.87 5.74a.905.905 0 0 1-.223.03zM11.6 32.12c-.306 0-.619-.036-.93-.106a.89.89 0 0 1-.575-.422.954.954 0 0 1-.094-.745c.65-2.243 2.807-2.714 4.5-2.714.585 0 1.056.06 1.277.093-1.056 3.214-2.85 3.894-4.178 3.894zm56.798 0c-1.328 0-3.122-.68-4.178-3.894a8.618 8.618 0 0 1 1.275-.093c1.695 0 3.852.471 4.503 2.714a.95.95 0 0 1-.095.745.888.888 0 0 1-.574.422c-.313.07-.625.106-.931.106zM4.695 38.044c-1.515 0-3.474-.766-4.255-4.388a6.38 6.38 0 0 1 .217-.004c1.097 0 4.717.238 5.264 3.297a.933.933 0 0 1-.172.725.87.87 0 0 1-.614.348 4.508 4.508 0 0 1-.44.022zm70.61 0c-.157 0-.303-.008-.44-.022a.87.87 0 0 1-.615-.348.933.933 0 0 1-.172-.725c.547-3.059 4.167-3.297 5.265-3.297.087 0 .16.002.217.004-.78 3.622-2.74 4.388-4.255 4.388zM9.899 39.662c-.485 0-.893-.405-.911-.903-.117-3.309 3.875-4.166 4.668-4.303.001 4.2-2.291 5.063-3.668 5.202l-.09.004zm60.114-.004c-1.378-.14-3.67-1.003-3.669-5.202.793.138 4.785.997 4.668 4.303-.018.498-.426.903-.91.903l-.089-.004zM4.235 44.373c-1.257 0-3.004-.634-4.235-3.632.278-.06.955-.181 1.758-.181 1.511 0 3.468.425 4.217 2.451a.935.935 0 0 1-.043.745.875.875 0 0 1-.544.453 4.27 4.27 0 0 1-1.153.164zm71.529 0c-.378 0-.766-.056-1.153-.164a.875.875 0 0 1-.544-.453.937.937 0 0 1-.042-.744c.75-2.027 2.707-2.452 4.218-2.452.802 0 1.479.122 1.757.18-1.232 3-2.979 3.633-4.235 3.633h-.001zM10.92 46.7a.931.931 0 0 1-.904-.751c-.663-3.243 3.134-4.754 3.893-5.02.695 4.141-1.423 5.373-2.759 5.74a.869.869 0 0 1-.23.03zm58.16 0a.869.869 0 0 1-.23-.032c-1.335-.365-3.454-1.597-2.759-5.74.76.268 4.555 1.78 3.894 5.02a.933.933 0 0 1-.905.752zM5.34 50.988c-1.537 0-2.932-.966-4.152-2.875.39-.159 1.613-.61 2.927-.61 1.532 0 2.662.597 3.356 1.772a.933.933 0 0 1 .091.742.871.871 0 0 1-.454.542 3.99 3.99 0 0 1-1.767.429zm69.32 0a3.988 3.988 0 0 1-1.768-.43.871.871 0 0 1-.454-.541.936.936 0 0 1 .09-.742c.695-1.175 1.826-1.772 3.357-1.772 1.314 0 2.537.451 2.927.611-1.22 1.908-2.615 2.874-4.152 2.874zm-61.37 2.33a.936.936 0 0 1-.85-.553c-1.366-3.01 1.995-5.335 2.676-5.766 1.6 3.881-.189 5.557-1.41 6.213a.861.861 0 0 1-.414.105h-.002zm53.419 0a.872.872 0 0 1-.416-.106c-1.22-.656-3.009-2.332-1.409-6.213.681.43 4.042 2.756 2.675 5.766a.939.939 0 0 1-.85.552zM7.515 56.78c-1.304 0-2.634-.712-3.955-2.116.436-.282 2.036-1.234 3.692-1.234 1.086 0 1.993.407 2.696 1.21a.94.94 0 0 1 .228.711.877.877 0 0 1-.349.618c-.494.37-1.297.811-2.312.811zm64.97 0c-1.014 0-1.818-.442-2.313-.81a.876.876 0 0 1-.348-.619.94.94 0 0 1 .228-.71c.702-.804 1.61-1.21 2.696-1.21 1.658 0 3.256.951 3.692 1.233-1.321 1.404-2.65 2.116-3.955 2.116zm-55.442 2.026a.934.934 0 0 1-.786-.428c-1.804-2.769 1.17-5.576 1.778-6.105 2.165 3.596.646 5.524-.46 6.357a.88.88 0 0 1-.532.176zm45.914 0a.88.88 0 0 1-.533-.176c-1.105-.834-2.624-2.762-.458-6.357.607.53 3.582 3.336 1.777 6.105a.947.947 0 0 1-.786.428zm-52.413 3.788c-1.158 0-2.407-.537-3.714-1.597.439-.375 2.184-1.757 4.037-1.757.855 0 1.626.294 2.292.875.196.17.311.416.32.674a.878.878 0 0 1-.263.658c-.532.524-1.429 1.147-2.671 1.147h-.001zm58.911 0c-1.242 0-2.139-.623-2.671-1.147a.877.877 0 0 1-.262-.658.937.937 0 0 1 .319-.674c.666-.581 1.437-.875 2.292-.875 1.855 0 3.598 1.382 4.036 1.757-1.307 1.06-2.555 1.597-3.712 1.597h-.002zm-47.02.624a.99.99 0 0 1-.75-.344c-2.285-2.647.414-6.028.96-6.66 2.779 3.455 1.482 5.698.453 6.732a.924.924 0 0 1-.663.272zm35.13 0a.926.926 0 0 1-.663-.272c-1.03-1.033-2.326-3.275.452-6.731.546.63 3.246 4.012.962 6.66a.994.994 0 0 1-.751.343zm-29.486 3.113a.987.987 0 0 1-.684-.273c-2.533-2.407-.179-6.04.301-6.721 3.106 3.163 2.035 5.523 1.112 6.654a.934.934 0 0 1-.728.34h-.001zm23.842 0a.935.935 0 0 1-.73-.34c-.922-1.131-1.992-3.491 1.113-6.654.48.681 2.834 4.314.301 6.721a.986.986 0 0 1-.684.273zm-17.52 1.721a.984.984 0 0 1-.472-.12c-3.062-1.664-1.727-5.773-1.44-6.555 3.806 2.244 3.38 4.795 2.784 6.124a.953.953 0 0 1-.872.551zm11.198 0a.953.953 0 0 1-.872-.55c-.598-1.329-1.024-3.879 2.784-6.125.286.782 1.622 4.89-1.44 6.555a.99.99 0 0 1-.472.12zm-30.482 0c-1.12 0-2.36-.457-3.689-1.359.435-.45 2.303-2.242 4.387-2.242.768 0 1.491.245 2.149.726a1 1 0 0 1 .4.686.931.931 0 0 1-.211.72c-.566.67-1.552 1.47-3.035 1.47h-.001zm49.766 0c-1.483 0-2.47-.8-3.036-1.47a.931.931 0 0 1-.211-.719.997.997 0 0 1 .401-.686c.658-.481 1.38-.726 2.148-.726 2.085 0 3.953 1.793 4.387 2.242-1.329.902-2.568 1.36-3.689 1.36zm-24.814.594c-.301 0-.594-.101-.804-.28-.744-.636-1.138-1.392-1.17-2.248-.067-1.758 1.402-3.454 1.761-3.844 1.398 1.273 2.114 2.507 2.13 3.667.014 1.099-.611 1.923-1.14 2.42a1.137 1.137 0 0 1-.777.285zM21.068 72.05c-1.156 0-2.365-.416-3.665-1.235.428-.472 2.298-2.391 4.433-2.391h.15c.722 0 1.41.22 2.047.653.228.155.383.4.424.673a.93.93 0 0 1-.186.726c-.566.719-1.568 1.575-3.126 1.575h-.077zm37.864 0c-1.636 0-2.637-.855-3.203-1.574a.934.934 0 0 1-.186-.726.999.999 0 0 1 .425-.673c.636-.433 1.324-.653 2.047-.653h.15c2.134 0 4.004 1.919 4.432 2.39-1.3.821-2.508 1.237-3.59 1.237h-.075zm-19.093.197c-.531 0-1.068-.013-1.605-.039-17.088-.802-31.127-14.855-31.961-31.992C5.443 23.14 17.466 8.125 34.24 5.292h.022c.257 0 .425.113.501.284a.481.481 0 0 1-.355.68C19.261 8.98 7.84 22.856 7.84 38.535c0 17.411 13.99 31.11 31.851 31.188h.143c17.38 0 31.43-13.224 31.989-30.102.534-16.118-10.809-30.448-26.385-33.334a.49.49 0 0 1-.328-.226.47.47 0 0 1-.049-.384.493.493 0 0 1 .468-.36c16.212 2.819 27.92 16.786 27.92 33.218 0 8.991-3.501 17.453-9.855 23.827-6.355 6.374-14.79 9.885-23.751 9.885h-.003zm-14.293 3.399c-.52 0-1.084-.054-1.68-.16.263-.718 1.669-4.15 4.525-4.15.268 0 .544.03.824.09a.996.996 0 0 1 .645.463.933.933 0 0 1 .1.743c-.326 1.125-1.33 3.014-4.414 3.014zm28.909 0c-3.083 0-4.09-1.889-4.415-3.014a.932.932 0 0 1 .1-.744.993.993 0 0 1 .644-.462c.28-.06.557-.09.824-.09 2.857 0 4.263 3.432 4.527 4.15a9.7 9.7 0 0 1-1.68.16zm-23.729 2.123c.107-.828.825-5.1 4.316-5.152.286 0 .549.113.736.312a.93.93 0 0 1 .258.698c-.086 1.459-.89 3.922-5.31 4.142zm18.547 0c-4.421-.22-5.224-2.683-5.309-4.142a.93.93 0 0 1 .258-.698.993.993 0 0 1 .722-.312c3.505.052 4.222 4.324 4.329 5.152zm-9.247 1.541c-1.435-1.342-2.138-2.6-2.088-3.74.045-1.068.753-1.832 1.337-2.284.199-.153.47-.238.764-.238.36 0 .702.122.942.332.764.673 1.145 1.443 1.13 2.29-.032 1.73-1.698 3.299-2.085 3.64z" opacity=".4" fill="#E6E7EA"/>
        </g>
        <g transform="translate(28.72 57.19)" fill-rule="nonzero">
            <use fill="#000" xlink:href="#lmvr3kk50a"/>
            <use stroke="#A1FF00" strokeWidth="1.12" fill="#A1FF00" xlink:href="#lmvr3kk50a"/>
            <path stroke="#000" strokeWidth=".56" d="M19.766.28c.43.317.481.495.481.707 0 .534-.218 1.05-.64 1.554-.453.54-1.134 1.062-2.04 1.572-1.842 1.036-4.007 1.551-6.493 1.551-.49 0-1.105-.025-1.846-.076-.807-.056-1.862-.142-3.163-.258l-.223 3.945a8.212 8.212 0 0 1 2.728-1.17c.834-.196 1.766-.293 2.797-.293 3.162 0 5.659.784 7.482 2.371 1.81 1.575 2.707 3.72 2.707 6.43 0 2.634-1.049 4.774-3.145 6.421-2.124 1.67-4.917 2.496-8.372 2.496-3.028 0-5.424-.615-7.181-1.865C1.14 22.444.28 20.79.28 18.705c0-1.141.36-2.063 1.095-2.76.739-.703 1.722-1.046 2.941-1.046 1.055 0 1.92.291 2.587.887.655.584.981 1.318.981 2.202 0 .853-.18 1.502-.571 1.931-.398.437-1.074.725-2.01.891a6.827 6.827 0 0 1-.595.08c.145.141.301.28.467.414.52.42 1.045.733 1.578.943a4.66 4.66 0 0 0 1.724.32c1.52 0 2.756-.567 3.71-1.697.937-1.112 1.413-2.554 1.413-4.334 0-1.628-.4-2.905-1.178-3.84-.795-.953-1.868-1.436-3.223-1.436-.636 0-1.23.11-1.783.33-.52.206-1.03.528-1.527.967H1.976L2.665.69c2.175.181 3.928.31 5.259.383 1.393.078 2.554.117 3.482.117 2.454 0 4.914-.254 7.375-.76.533-.098.86-.15.985-.15z" stroke-linejoin="square"/>
        </g>
    </g>
</svg>
