<svg width="139" height="99" viewBox="0 0 139 99" xmlns="http://www.w3.org/2000/svg" xmlns:xlink="http://www.w3.org/1999/xlink">
    <defs>
        <linearGradient x1="-5.603%" y1="59.221%" x2="91.995%" y2="34.883%" id="ouz20w9gda">
            <stop stop-color="#731111" offset="0%"/>
            <stop stop-color="#761212" offset="1.63%"/>
            <stop stop-color="#9E1818" offset="22.8%"/>
            <stop stop-color="#B61C1C" offset="39.66%"/>
            <stop stop-color="#BF1E1E" offset="50%"/>
            <stop stop-color="#B61C1C" offset="60.34%"/>
            <stop stop-color="#9E1818" offset="77.2%"/>
            <stop stop-color="#761212" offset="98.37%"/>
            <stop stop-color="#731111" offset="100%"/>
        </linearGradient>
        <linearGradient x1="98.511%" y1="34.075%" x2="6.833%" y2="53.989%" id="d69fjplblb">
            <stop stop-color="#731111" offset="0%"/>
            <stop stop-color="#A61A1A" offset="100%"/>
        </linearGradient>
        <linearGradient x1="-.409%" y1="65.652%" x2="91.69%" y2="43.099%" id="aeenlynetc">
            <stop stop-color="#731111" offset="0%"/>
            <stop stop-color="#A61A1A" offset="100%"/>
        </linearGradient>
        <linearGradient x1="3.435%" y1="34.761%" x2="105.726%" y2="58.508%" id="i2q3we5wkd">
            <stop stop-color="#731111" offset="0%"/>
            <stop stop-color="#761212" offset="1.63%"/>
            <stop stop-color="#9E1818" offset="22.8%"/>
            <stop stop-color="#B61C1C" offset="39.66%"/>
            <stop stop-color="#BF1E1E" offset="50%"/>
            <stop stop-color="#B61C1C" offset="60.34%"/>
            <stop stop-color="#9E1818" offset="77.2%"/>
            <stop stop-color="#761212" offset="98.37%"/>
            <stop stop-color="#731111" offset="100%"/>
        </linearGradient>
        <linearGradient x1="88.091%" y1="36.092%" x2="8.879%" y2="60.639%" id="a6m26t700e">
            <stop stop-color="#8B1515" offset="0%"/>
            <stop stop-color="#9C1818" offset="2.69%"/>
            <stop stop-color="#B71C1C" offset="7.89%"/>
            <stop stop-color="#CD1F1F" offset="13.87%"/>
            <stop stop-color="#DE2222" offset="20.86%"/>
            <stop stop-color="#E92424" offset="29.5%"/>
            <stop stop-color="#F02525" offset="41.62%"/>
            <stop stop-color="#F22525" offset="75.27%"/>
        </linearGradient>
        <linearGradient x1="99.778%" y1="65.64%" x2="5.804%" y2="42.533%" id="t15gqe7skf">
            <stop stop-color="#731111" offset="0%"/>
            <stop stop-color="#A61A1A" offset="69.23%"/>
            <stop stop-color="#BF1E1E" offset="100%"/>
        </linearGradient>
        <linearGradient x1="11.778%" y1="35.901%" x2="88.911%" y2="60.314%" id="f41b7vtopg">
            <stop stop-color="#8B1515" offset="0%"/>
            <stop stop-color="#9C1818" offset="2.69%"/>
            <stop stop-color="#B71C1C" offset="7.89%"/>
            <stop stop-color="#CD1F1F" offset="13.87%"/>
            <stop stop-color="#DE2222" offset="20.86%"/>
            <stop stop-color="#E92424" offset="29.5%"/>
            <stop stop-color="#F02525" offset="41.62%"/>
            <stop stop-color="#F22525" offset="75.27%"/>
        </linearGradient>
        <linearGradient x1="-.002%" y1="50.002%" x2="100%" y2="50.002%" id="cbaurxmgwh">
            <stop stop-color="#941616" offset="0%"/>
            <stop stop-color="#AB1A1A" offset="3.38%"/>
            <stop stop-color="#C51E1E" offset="8.33%"/>
            <stop stop-color="#D92121" offset="13.81%"/>
            <stop stop-color="#E72323" offset="20%"/>
            <stop stop-color="#EF2525" offset="27.51%"/>
            <stop stop-color="#F22525" offset="40%"/>
            <stop stop-color="#F22525" offset="60%"/>
            <stop stop-color="#EF2525" offset="72.49%"/>
            <stop stop-color="#E72323" offset="80%"/>
            <stop stop-color="#D92121" offset="86.19%"/>
            <stop stop-color="#C51E1E" offset="91.67%"/>
            <stop stop-color="#AB1A1A" offset="96.62%"/>
            <stop stop-color="#941616" offset="100%"/>
        </linearGradient>
        <linearGradient x1="-1.528%" y1="34.369%" x2="94.484%" y2="54.202%" id="oafnar5kvi">
            <stop stop-color="#731111" offset="0%"/>
            <stop stop-color="#A61A1A" offset="100%"/>
        </linearGradient>
        <path d="M0 9.519V4.453c2.32-.185 4.156-.645 5.51-1.378C6.866 2.343 7.785 1.317 8.267 0h9.018v27.359c0 .946.25 1.572.751 1.879.501.306 1.596.459 3.284.459h1.308v5.01H0v-5.01h1.559c1.8 0 2.978-.158 3.534-.473.557-.316.835-1.244.835-2.784V9.518H0z" id="w8de67ay7j"/>
    </defs>
    <g fill="none" fill-rule="evenodd">
        <g opacity=".5">
            <path d="M61.05 6.617c-.424 0-.758-.376-.758-.858-.002-1.46.57-4.003 4.389-4.809-.061.936-.503 5.162-3.51 5.657l-.12.01zm14.875-.01c-3.007-.495-3.449-4.721-3.51-5.657 3.82.806 4.392 3.349 4.389 4.81-.001.48-.336.857-.759.857l-.12-.01zM55.68 7.767a.932.932 0 0 1-.889-.693c-.4-1.455-.463-4.136 3.524-5.888.18.911.866 5.27-2.305 6.518a.91.91 0 0 1-.33.063zm25.736 0a.904.904 0 0 1-.329-.063c-3.175-1.25-2.488-5.607-2.305-6.518 3.984 1.75 3.921 4.432 3.523 5.886a.932.932 0 0 1-.889.695zm-31.785 2.526c-.41 0-.781-.24-.942-.61-.639-1.473-1.078-4.296 3.08-6.75.316.9 1.702 5.422-1.632 7.232-.157.084-.33.128-.506.128zm37.833 0c-.175 0-.35-.044-.505-.128-3.334-1.81-1.95-6.332-1.633-7.233 4.16 2.455 3.72 5.278 3.08 6.75-.16.371-.53.611-.942.611zM63.76 13.06c-2.15 0-3.134-1.275-3.582-2.344a.913.913 0 0 1 .534-1.192c.39-.14.782-.212 1.161-.212 2.34 0 3.848 2.683 4.184 3.347-.835.266-1.607.4-2.297.4zm9.577 0c-.69 0-1.464-.135-2.3-.4.338-.665 1.847-3.348 4.186-3.348.38 0 .771.072 1.162.212a.91.91 0 0 1 .523.496c.1.226.101.474.009.696-.449 1.07-1.432 2.344-3.58 2.344zm-29.43.77c-.354 0-.676-.176-.862-.47-.854-1.358-1.714-4.08 2.023-7.148.448.842 2.501 5.095-.521 7.401a1.049 1.049 0 0 1-.64.217zm49.282 0c-.234 0-.455-.076-.64-.217-3.022-2.306-.969-6.559-.52-7.4 3.736 3.067 2.877 5.79 2.022 7.147-.186.294-.508.47-.862.47zm-37.013 2.13c-1.63 0-2.706-.897-3.323-1.65-.18-.219-.26-.5-.222-.792.037-.297.196-.57.436-.746.709-.518 1.485-.78 2.306-.78 2.265 0 4.292 1.987 4.78 2.504-1.433.97-2.771 1.464-3.976 1.464h-.001zm24.743 0c-1.205 0-2.542-.493-3.977-1.464.488-.517 2.515-2.504 4.78-2.504.822 0 1.598.262 2.306.78.24.176.4.449.438.746a1.04 1.04 0 0 1-.222.793c-.617.752-1.694 1.649-3.325 1.649zm-42.334 2.425a.995.995 0 0 1-.736-.318c-1.09-1.174-2.436-3.686.673-7.403.596.743 3.396 4.537.848 7.369a1.054 1.054 0 0 1-.785.352zm59.926 0c-.299 0-.585-.128-.786-.352-2.546-2.83.253-6.626.85-7.37 3.108 3.719 1.762 6.23.67 7.404a.99.99 0 0 1-.734.318zm-49.536 1.568c-1.29 0-2.267-.623-2.86-1.146a1.04 1.04 0 0 1-.344-.746 1.1 1.1 0 0 1 .314-.807c.783-.796 1.735-1.198 2.826-1.198 2.01 0 3.934 1.365 4.441 1.753-1.507 1.423-2.979 2.144-4.377 2.144zm39.145 0c-1.397 0-2.869-.721-4.376-2.144.507-.388 2.434-1.753 4.441-1.753 1.091 0 2.042.402 2.825 1.198.21.212.325.507.314.807-.01.293-.133.557-.345.746-.593.523-1.568 1.146-2.858 1.146h-.001zm-54.276 4.304a.984.984 0 0 1-.616-.213c-1.255-.991-2.965-3.265-.458-7.42.703.642 4.043 3.96 1.959 7.15-.2.303-.53.483-.885.483zm69.408 0c-.356 0-.686-.18-.885-.482-2.086-3.194 1.256-6.509 1.959-7.15 2.508 4.154.797 6.428-.458 7.419a.986.986 0 0 1-.616.213zm-60.265 1.124c-1.07 0-1.94-.444-2.484-.815a1.03 1.03 0 0 1-.434-.697c-.046-.297.03-.604.214-.84.804-1.045 1.9-1.575 3.255-1.575 1.794 0 3.528.936 4.024 1.227-1.483 1.792-3.022 2.7-4.575 2.7zm51.122 0c-1.554 0-3.094-.908-4.577-2.7.496-.291 2.232-1.227 4.027-1.227 1.355 0 2.45.53 3.254 1.575.182.236.259.542.213.84-.046.29-.2.537-.434.697-.542.371-1.413.815-2.483.815zm-55.936 6.282a4.576 4.576 0 0 1-1.859-.412 1.014 1.014 0 0 1-.55-.604c-.1-.284-.081-.6.056-.867.763-1.49 2.12-2.245 4.029-2.245 1.38 0 2.64.408 3.067.561-1.32 2.368-2.915 3.567-4.742 3.567zm60.751 0c-1.83 0-3.424-1.2-4.743-3.567.426-.153 1.687-.561 3.065-.561 1.912 0 3.266.755 4.03 2.245.136.267.156.583.057.867a1.01 1.01 0 0 1-.551.604 4.57 4.57 0 0 1-1.858.412zm-68.855 0a.97.97 0 0 1-.445-.106c-1.425-.72-3.55-2.604-1.91-7.179.813.489 4.742 3.067 3.326 6.614-.16.401-.55.672-.971.672zm76.959 0c-.421 0-.81-.27-.972-.67-1.417-3.548 2.514-6.126 3.327-6.615 1.637 4.575-.486 6.46-1.91 7.179a.98.98 0 0 1-.445.107zm-79.385 7.672c-.089 0-.18-.013-.267-.035-1.593-.43-4.137-1.894-3.417-6.88.913.319 5.446 2.104 4.741 6.006-.096.527-.54.909-1.057.909zm81.81 0c-.51 0-.964-.391-1.057-.91-.705-3.903 3.827-5.688 4.74-6.005.72 4.986-1.823 6.45-3.416 6.88a1.07 1.07 0 0 1-.266.035zm-74.702.11a5.01 5.01 0 0 1-1.108-.126 1.06 1.06 0 0 1-.683-.505 1.15 1.15 0 0 1-.112-.894c.774-2.688 3.34-3.252 5.357-3.252.694 0 1.255.07 1.519.112-1.257 3.851-3.393 4.666-4.973 4.666zm67.594 0c-1.58 0-3.716-.814-4.973-4.665.263-.042.825-.112 1.518-.112 2.017 0 4.584.564 5.359 3.252.086.3.045.624-.113.894-.154.26-.395.44-.683.505a5.017 5.017 0 0 1-1.108.127zm-75.812 7.103c-1.803 0-4.134-.919-5.064-5.26a7.54 7.54 0 0 1 .258-.004c1.305 0 5.614.285 6.265 3.95.054.306-.02.623-.205.87-.18.24-.44.388-.731.417a5.328 5.328 0 0 1-.523.027zm84.03 0c-.187 0-.36-.01-.523-.027a1.034 1.034 0 0 1-.732-.417 1.125 1.125 0 0 1-.205-.87c.651-3.665 4.96-3.95 6.266-3.95.103 0 .19.002.258.004-.929 4.341-3.26 5.26-5.064 5.26zm-77.838 1.94c-.577 0-1.063-.487-1.084-1.084-.139-3.965 4.612-4.993 5.556-5.157.001 5.033-2.727 6.068-4.366 6.234l-.106.006zm71.54-.007c-1.64-.166-4.368-1.2-4.365-6.234.943.165 5.694 1.195 5.555 5.157-.022.597-.507 1.083-1.084 1.083l-.105-.006zm-78.28 5.652c-1.496 0-3.575-.76-5.04-4.353.331-.071 1.136-.217 2.093-.217 1.798 0 4.126.51 5.017 2.938.108.292.089.617-.05.893-.136.268-.365.46-.647.542-.46.13-.922.197-1.373.197zm85.124 0c-.45 0-.911-.067-1.372-.197a1.044 1.044 0 0 1-.647-.542 1.13 1.13 0 0 1-.05-.892c.891-2.43 3.221-2.94 5.02-2.94.955 0 1.76.147 2.09.218-1.465 3.593-3.544 4.353-5.04 4.353zM33.94 56.922a1.11 1.11 0 0 1-1.075-.9c-.79-3.888 3.73-5.698 4.633-6.018.826 4.964-1.693 6.44-3.283 6.88-.09.025-.183.038-.275.038zm69.216 0c-.092 0-.185-.013-.275-.038-1.589-.438-4.11-1.914-3.283-6.88.905.321 5.42 2.134 4.634 6.017-.106.522-.558.9-1.076.9zM27.3 62.062c-1.83 0-3.49-1.159-4.942-3.446.464-.19 1.92-.732 3.483-.732 1.824 0 3.168.716 3.994 2.125.158.268.197.592.109.888-.085.29-.278.52-.541.65-.692.342-1.4.514-2.103.514zm82.495 0a4.719 4.719 0 0 1-2.104-.515 1.042 1.042 0 0 1-.54-.65 1.13 1.13 0 0 1 .108-.888c.826-1.41 2.171-2.125 3.994-2.125 1.563 0 3.019.541 3.483.733-1.451 2.286-3.113 3.444-4.941 3.444zm-73.035 2.79c-.433 0-.83-.26-1.01-.66-1.627-3.608 2.372-6.395 3.183-6.912 1.905 4.652-.225 6.66-1.677 7.446a1.02 1.02 0 0 1-.493.127h-.003zm63.572 0c-.174 0-.34-.041-.494-.125-1.451-.787-3.581-2.795-1.677-7.447.81.517 4.81 3.304 3.183 6.911a1.117 1.117 0 0 1-1.012.662zm-70.445 4.152c-1.551 0-3.134-.853-4.707-2.536.52-.337 2.424-1.478 4.395-1.478 1.291 0 2.371.487 3.208 1.45.203.234.301.544.271.852-.032.3-.178.562-.415.74-.588.443-1.543.972-2.752.972zm77.32 0c-1.208 0-2.164-.529-2.754-.972a1.052 1.052 0 0 1-.413-.74c-.03-.308.068-.618.271-.852.836-.963 1.915-1.45 3.208-1.45 1.973 0 3.875 1.14 4.395 1.478-1.574 1.683-3.156 2.536-4.707 2.536zm-65.98 2.428c-.38 0-.73-.191-.936-.512-2.147-3.319 1.392-6.683 2.116-7.318 2.576 4.31.77 6.62-.548 7.62a1.042 1.042 0 0 1-.632.21zm54.64 0c-.232 0-.45-.073-.634-.21-1.315-1-3.122-3.31-.545-7.62.723.635 4.263 4 2.115 7.318a1.125 1.125 0 0 1-.936.512zm-62.375 4.54c-1.378 0-2.864-.643-4.42-1.913.523-.45 2.6-2.107 4.805-2.107 1.017 0 1.935.353 2.728 1.049.232.204.37.499.38.809.008.301-.103.58-.313.788-.633.628-1.7 1.375-3.179 1.375zm70.109 0c-1.479 0-2.546-.746-3.18-1.374a1.055 1.055 0 0 1-.311-.788c.009-.31.148-.605.38-.809.792-.696 1.71-1.049 2.727-1.049 2.207 0 4.282 1.657 4.804 2.107-1.556 1.27-3.041 1.914-4.418 1.914h-.002zm-55.957.748c-.344 0-.669-.15-.894-.412-2.719-3.172.494-7.225 1.143-7.981 3.307 4.14 1.764 6.828.539 8.067a1.096 1.096 0 0 1-.788.326zm41.806 0c-.3 0-.58-.115-.788-.326-1.225-1.238-2.77-3.925.537-8.067.65.756 3.863 4.809 1.146 7.981a1.18 1.18 0 0 1-.895.412zm-35.09 3.732a1.17 1.17 0 0 1-.814-.327c-3.015-2.886-.213-7.24.359-8.056 3.696 3.791 2.42 6.62 1.323 7.975-.21.26-.526.408-.867.408h-.001zm28.374 0a1.11 1.11 0 0 1-.868-.408c-1.098-1.356-2.372-4.184 1.323-7.975.572.817 3.373 5.17.36 8.056-.222.212-.51.327-.815.327zm-20.85 2.063c-.196 0-.39-.05-.562-.144-3.644-1.995-2.055-6.92-1.714-7.857 4.53 2.69 4.024 5.747 3.313 7.34-.18.402-.587.66-1.038.66zm13.327 0c-.451 0-.858-.26-1.038-.66-.712-1.592-1.219-4.649 3.312-7.341.341.938 1.931 5.862-1.712 7.857a1.172 1.172 0 0 1-.562.144zm-36.277 0c-1.332 0-2.808-.548-4.39-1.63.518-.538 2.742-2.686 5.222-2.686.913 0 1.774.293 2.556.87a1.2 1.2 0 0 1 .477.822c.038.317-.052.623-.252.862-.673.803-1.846 1.762-3.612 1.762zm59.226 0c-1.766 0-2.94-.959-3.613-1.762-.2-.24-.29-.545-.252-.862.04-.329.212-.629.478-.823.782-.576 1.642-.87 2.555-.87 2.483 0 4.705 2.149 5.221 2.688-1.58 1.081-3.056 1.629-4.39 1.629zm-29.531.712c-.358 0-.707-.123-.957-.337-.885-.762-1.354-1.668-1.392-2.694-.08-2.107 1.668-4.14 2.096-4.606 1.663 1.525 2.515 3.003 2.534 4.394.017 1.317-.727 2.305-1.355 2.9-.23.218-.567.343-.926.343zm-22.613 4.077c-1.375 0-2.814-.499-4.361-1.48.51-.567 2.735-2.867 5.275-2.867h.178c.86 0 1.679.264 2.437.783a1.2 1.2 0 0 1 .505.807c.049.314-.03.625-.221.87-.674.861-1.867 1.888-3.721 1.888l-.092-.001zm45.062 0c-1.947 0-3.139-1.026-3.813-1.887a1.126 1.126 0 0 1-.221-.87c.05-.327.233-.621.506-.807.757-.52 1.576-.783 2.435-.783h.179c2.54 0 4.766 2.3 5.275 2.866-1.547.984-2.985 1.482-4.272 1.482l-.09-.001zm-22.722.235c-.633 0-1.272-.015-1.911-.046C46.11 86.532 29.403 69.69 28.41 49.15c-.988-20.466 13.32-38.461 33.284-41.857h.025c.307 0 .506.135.597.34a.578.578 0 0 1-.422.816c-18.027 3.263-31.62 19.894-31.62 38.686 0 20.868 16.65 37.287 37.905 37.38h.17c20.683-.002 37.404-15.85 38.07-36.08.635-19.316-12.864-36.491-31.4-39.95a.583.583 0 0 1-.391-.272.566.566 0 0 1-.058-.46.587.587 0 0 1 .557-.43C94.42 10.7 108.353 27.44 108.353 47.134c0 10.776-4.166 20.918-11.728 28.557-7.562 7.64-17.6 11.847-28.265 11.847h-.003zm-17.01 4.074c-.62 0-1.29-.064-2-.19.314-.862 1.986-4.975 5.385-4.975.319 0 .647.036.98.108.32.068.601.271.769.554.162.274.204.591.118.891-.387 1.349-1.582 3.612-5.252 3.612zm34.403 0c-3.669 0-4.867-2.263-5.254-3.612a1.124 1.124 0 0 1 .12-.892c.166-.283.447-.485.766-.553.333-.072.662-.108.98-.108 3.4 0 5.073 4.113 5.387 4.975-.709.126-1.382.19-1.999.19zm-28.238 2.545c.126-.992.981-6.112 5.136-6.175.34 0 .653.136.875.374.216.23.324.526.307.836-.101 1.75-1.06 4.702-6.318 4.965zm22.071 0c-5.261-.263-6.217-3.216-6.317-4.965a1.12 1.12 0 0 1 .307-.836c.222-.238.535-.374.858-.374 4.172.063 5.026 5.183 5.152 6.175zM68.58 96.005c-1.708-1.608-2.544-3.115-2.485-4.482.054-1.281.896-2.196 1.59-2.738.238-.184.56-.285.91-.285.428 0 .835.146 1.121.398.91.806 1.363 1.73 1.345 2.744-.038 2.073-2.02 3.954-2.481 4.363z" opacity=".4" fill="#E6E7EA"/>
        </g>
        <g fill-rule="nonzero">
            <path d="M37.142 28.333c.604 1.664-1.227 4.43-7.916 6.64-8.022 2.653-12.243.123-12.826-1.716-.334-1.05.51-1.873 2.499-1.393 2.295.551 3.419-.745 3.012-1.885-.51-1.49-1.682-5.162-2.979-8.549.258.003.878-.196 1.03-.32a74.259 74.259 0 0 0 3.458 8.688c0 .003.003.003.003.006.647 1.538 3.137 1.734 6.431-1.046 3.216-2.714 6.608-2.208 7.279-.456.006.01.006.019.009.03z" fill="url(#ouz20w9gda)"/>
            <path d="M18.899 31.864c-1.989-.48-2.833.343-2.5 1.393h-.002c-.361-1.016-.93-2.856-1.17-4.05.475-.157.945-.292 1.416-.404 3.23-.778 4.895.133 5.268 1.179.407 1.137-.717 2.433-3.012 1.882z" fill="url(#d69fjplblb)"/>
            <path d="M34.607 22.365c.923 1.665 1.749 3.552 2.526 5.937-.671-1.755-4.066-2.258-7.279.456-3.294 2.78-5.784 2.584-6.43 1.046 0-.003-.004-.003-.004-.006a1.914 1.914 0 0 1-.14-.522c-.349-2.548 4.127-4.993 11.327-6.91z" fill="url(#aeenlynetc)"/>
            <path d="M120.104 31.864c1.989-.48 2.833.343 2.5 1.393-.584 1.84-4.808 4.369-12.83 1.715-6.69-2.213-8.517-4.975-7.913-6.64.644-1.778 4.057-2.303 7.288.426 3.294 2.78 5.784 2.584 6.43 1.046 0-.003.004-.003.004-.006a74.258 74.258 0 0 0 3.458-8.687c.152.126.775.322 1.03.32-1.3 3.386-2.472 7.058-2.982 8.548h.003c-.407 1.14.72 2.436 3.012 1.885z" fill="url(#i2q3we5wkd)"/>
            <path d="M18.932 21.43c1.297 3.387 2.469 7.06 2.98 8.549-.371-1.046-2.035-1.954-5.27-1.179-.467.115-.94.25-1.414.404-3.307 1.095-6.638 3.193-9.267 5.455.236-3.748 1.26-8.169 2.823-11.036C5.657 22.368 2.047 20.695 0 20.098c4.992-4.602 12.04-6.526 15.161-5.522 1.03.33 2.466 3.447 3.771 6.854z" fill="url(#a6m26t700e)"/>
            <path d="M104.397 22.365c7.202 1.918 11.675 4.363 11.326 6.908a2.03 2.03 0 0 1-.14.522c0 .003-.003.003-.003.006-.647 1.538-3.137 1.734-6.431-1.046-3.231-2.73-6.647-2.201-7.288-.425.78-2.398 1.606-4.291 2.536-5.965z" fill="url(#t15gqe7skf)"/>
            <path d="M139 20.1c-2.047.598-5.654 2.271-8.784 3.526 1.563 2.867 2.587 7.288 2.823 11.036-2.63-2.262-5.963-4.36-9.27-5.455a17.2 17.2 0 0 0-1.412-.404c-3.23-.778-4.895.133-5.268 1.179h-.003c.51-1.49 1.682-5.162 2.982-8.549 1.305-3.404 2.742-6.522 3.768-6.85 3.124-1.008 10.172.916 15.164 5.518z" fill="url(#f41b7vtopg)"/>
            <path d="M119.041 21.108a74.258 74.258 0 0 1-3.458 8.687 2.03 2.03 0 0 0 .14-.522c.349-2.548-4.127-4.99-11.326-6.908-8.827-2.352-21.75-3.917-34.895-3.917-13.145 0-26.065 1.565-34.892 3.917-7.203 1.918-11.676 4.363-11.326 6.908.024.187.072.362.14.522a74.259 74.259 0 0 1-3.46-8.687c-1.35-4.192-2.14-8.359-.719-9.728C27.99 2.937 51.335.04 69.338 0h.334c18.003.036 41.347 2.934 50.092 11.38 1.418 1.37.626 5.536-.723 9.728z" fill="url(#cbaurxmgwh)"/>
            <path d="M122.603 33.257c.334-1.05-.51-1.873-2.499-1.393-2.292.551-3.419-.745-3.012-1.885.37-1.046 2.034-1.954 5.268-1.179.468.112.942.25 1.412.404-.24 1.197-.808 3.037-1.169 4.053z" fill="url(#oafnar5kvi)"/>
        </g>
        <path d="M41.975 19.256a381.78 381.78 0 0 0-4.952-12.061c-.005-.015-.006-.023-.01-.038a.27.27 0 0 1 .028-.228.358.358 0 0 1 .214-.138c1.377-.372 2.068-.549 3.453-.882.2-.048.319.01.357.173a778.661 778.661 0 0 1 1.81 5.897c.009.038.026.054.054.048.027-.007.043-.03.048-.071.172-2.561.278-3.843.53-6.41.003-.184.106-.299.307-.342 1.116-.238 1.675-.35 2.795-.564.173-.032.29.038.352.21.606 2.383.906 3.576 1.498 5.962.02.036.044.051.071.046.027-.005.044-.027.052-.068.285-2.548.448-3.822.812-6.372.013-.185.127-.295.344-.33a105.35 105.35 0 0 1 3.464-.518c.217-.029.303.07.26.296-1.315 5.393-1.868 8.098-2.76 13.504-.01.172-.105.273-.285.305a94.231 94.231 0 0 0-2.766.528c-.18.036-.287-.033-.323-.21-.638-2.508-.96-3.762-1.612-6.267-.021-.035-.042-.051-.063-.047-.02.005-.04.028-.06.072-.19 2.683-.265 4.023-.375 6.7.001.184-.087.296-.265.337a92.135 92.135 0 0 0-2.65.643c-.151.039-.26-.019-.328-.175m12.221-2.264c-.052-.044-.079-.112-.079-.203a379.6 379.6 0 0 1-.032-13.043.341.341 0 0 1 .08-.225.354.354 0 0 1 .229-.106c1.329-.167 1.993-.24 3.325-.372.1-.009.18.009.235.055.056.047.08.115.075.206-.218 5.217-.29 7.825-.36 13.036a.335.335 0 0 1-.084.222.328.328 0 0 1-.214.102 92.05 92.05 0 0 0-2.961.376c-.09.012-.162-.003-.214-.048M93.529 4.69c2.205.423 3.304.66 5.494 1.183 1.197.287 2.07.85 2.606 1.67.537.821.653 1.755.368 2.797a4.54 4.54 0 0 1-.23.678 4.499 4.499 0 0 1-1.313 1.795 4.823 4.823 0 0 1-1.943.962c-.043.003-.072.035-.087.098a199.85 199.85 0 0 1-.005 5.437l-.019.075c-.043.162-.152.22-.33.173a91.878 91.878 0 0 0-3.047-.748c-.153-.035-.23-.132-.235-.292a237 237 0 0 0 .046-4.992c-.017-.056-.044-.089-.084-.097l-.381-.082c-.054-.012-.1.012-.14.068-.64 1.83-.956 2.746-1.577 4.58a.336.336 0 0 1-.149.185.328.328 0 0 1-.235.03 94.177 94.177 0 0 0-2.94-.559c-.09-.016-.153-.052-.189-.111-.036-.059-.04-.132-.012-.217a375.99 375.99 0 0 1 4.004-12.415.343.343 0 0 1 .147-.188c.067-.04.15-.05.251-.03zM83.356 3.167c3.565.384 5.343.64 8.88 1.281.1.019.171.058.212.117.041.06.046.133.016.22-.32.968-.479 1.454-.793 2.424a.328.328 0 0 1-.154.188.349.349 0 0 1-.234.037 101.555 101.555 0 0 0-5.02-.785c-.071-.01-.11.018-.12.081-.2.722-.298 1.082-.495 1.804-.037.06-.012.095.07.106 1.148.152 1.722.235 2.866.416a.262.262 0 0 1 .185.107c.04.059.046.132.018.218l-.28.938-.163.55c-.082.278-.17.574-.276.938a.356.356 0 0 1-.134.194.316.316 0 0 1-.234.042 96.847 96.847 0 0 0-2.794-.395c-.067-.009-.105.02-.113.083-.205.767-.307 1.151-.51 1.919-.007.064.022.1.088.108 1.886.24 2.828.379 4.705.697.093.015.157.053.195.111.038.059.041.13.013.218-.297.975-.444 1.463-.737 2.439a.337.337 0 0 1-.14.191.331.331 0 0 1-.235.04c-3.161-.524-4.75-.729-7.933-1.024-.09-.008-.156-.04-.196-.096-.041-.055-.051-.127-.03-.215A375.563 375.563 0 0 1 82.98 3.417a.343.343 0 0 1 .13-.199.348.348 0 0 1 .247-.051zm-13.58-.722c.102 0 .178.026.23.077.05.052.068.123.054.213-.72 5.17-1.042 7.76-1.613 12.94a.337.337 0 0 1-.105.213.325.325 0 0 1-.223.08c-1.246.02-1.869.04-3.114.095-.156.007-.256-.06-.302-.199-.86-2.502-1.31-3.75-2.254-6.234-.03-.037-.058-.054-.086-.052-.027.001-.04.028-.036.08-.152 2.516-.22 3.773-.337 6.29a.334.334 0 0 1-.093.219.324.324 0 0 1-.218.093c-1.181.088-1.771.14-2.95.258-.09.01-.162-.009-.212-.055-.05-.047-.074-.115-.07-.206.114-5.212.208-7.82.473-13.035a.34.34 0 0 1 .09-.22.353.353 0 0 1 .232-.099c1.385-.118 2.078-.168 3.464-.249.175-.01.288.056.34.194a172.925 172.925 0 0 1 2.333 6.227c.015.038.036.057.064.056.028-.002.047-.028.06-.08.22-2.503.34-3.755.593-6.257.038-.195.158-.295.362-.3 1.327-.038 1.99-.047 3.318-.049zm1.528.008c1.388.015 2.083.032 3.47.086.175.007.28.082.319.225.731 2.564 1.076 3.85 1.723 6.422.011.04.03.06.058.062.028.002.05-.022.067-.073.46-2.47.7-3.705 1.194-6.171.057-.19.186-.278.39-.264 1.325.092 1.987.146 3.31.272.101.01.174.043.22.1.046.055.057.128.034.215a383.122 383.122 0 0 0-2.854 12.725.338.338 0 0 1-.125.202.33.33 0 0 1-.23.058c-1.243-.1-1.865-.14-3.11-.205-.156-.009-.25-.084-.281-.228a174.343 174.343 0 0 0-1.642-6.422c-.027-.039-.054-.06-.081-.06-.028-.002-.042.025-.044.075-.393 2.49-.581 3.736-.942 6.229a.34.34 0 0 1-.112.21.333.333 0 0 1-.226.071 91.392 91.392 0 0 0-1.93-.028h-.655l-.374.001c-.091 0-.16-.025-.206-.076-.045-.051-.062-.122-.05-.212.616-5.176.961-7.762 1.726-12.928a.348.348 0 0 1 .11-.212.348.348 0 0 1 .241-.074zm24.72 6.02c-.318.855-.476 1.282-.79 2.138-.014.063.006.1.061.112.435.095.652.143 1.086.241.395.09.755.039 1.083-.156.326-.193.54-.496.64-.909.075-.312.032-.58-.127-.803-.16-.223-.407-.374-.74-.45-.435-.1-.652-.149-1.087-.245-.07-.015-.112.009-.126.072z" fill="#F4D56F"/>
        <g fill-rule="nonzero">
            <g transform="translate(58.016 63.088)">
                <use fill="#000" xlink:href="#w8de67ay7j"/>
                <use stroke="#A1FF00" strokeWidth="1.862" fill="#A1FF00" xlink:href="#w8de67ay7j"/>
                <path stroke="#000" strokeWidth=".931" d="M16.818.466v26.893c0 1.178.368 1.905.974 2.276.538.329 1.704.527 3.527.527h.843v4.079H.465v-4.079H1.56c1.924 0 3.171-.197 3.764-.533.362-.205.659-.591.842-1.204.15-.497.229-1.158.229-1.985V9.053H.466V4.88c2.197-.213 3.95-.682 5.266-1.394C7.09 2.75 8.036 1.742 8.582.465h8.236z" stroke-linejoin="square"/>
            </g>
        </g>
    </g>
</svg>
