<svg width="90" height="93" viewBox="0 0 90 93" xmlns="http://www.w3.org/2000/svg">
    <g fill="none" fill-rule="evenodd">
        <g opacity=".5">
            <path d="M37.913 5.365c-.402 0-.718-.356-.718-.812-.002-1.383.539-3.79 4.15-4.553-.059.886-.476 4.887-3.319 5.356l-.113.01zm14.061-.01C49.131 4.888 48.714.886 48.656 0c3.61.763 4.152 3.17 4.149 4.553-.002.455-.318.812-.718.812l-.113-.01zm-19.139 1.1a.881.881 0 0 1-.84-.658c-.378-1.377-.437-3.915 3.331-5.574.171.863.819 4.989-2.179 6.172a.86.86 0 0 1-.312.06zm24.33 0a.854.854 0 0 1-.311-.06c-3.002-1.184-2.352-5.31-2.18-6.172 3.766 1.658 3.708 4.196 3.33 5.573a.881.881 0 0 1-.84.658zm-30.047 2.39a.966.966 0 0 1-.89-.577c-.605-1.395-1.02-4.067 2.91-6.392.3.854 1.61 5.134-1.542 6.849a1.018 1.018 0 0 1-.478.12zm35.763 0c-.165 0-.33-.041-.477-.12-3.151-1.715-1.842-5.995-1.544-6.849 3.932 2.325 3.517 4.997 2.913 6.392a.967.967 0 0 1-.892.578zm-22.407 2.62c-2.033 0-2.963-1.206-3.386-2.218a.864.864 0 0 1 .505-1.129 3.24 3.24 0 0 1 1.097-.201c2.212 0 3.637 2.54 3.955 3.17-.79.25-1.519.378-2.171.378zm9.053 0c-.652 0-1.384-.127-2.174-.379.32-.629 1.746-3.17 3.957-3.17.36 0 .73.069 1.098.202.22.079.4.25.495.47a.832.832 0 0 1 .008.659c-.424 1.012-1.353 2.218-3.384 2.218zm-27.821.73a.957.957 0 0 1-.815-.446c-.807-1.285-1.62-3.862 1.912-6.767.424.797 2.365 4.824-.492 7.007a.99.99 0 0 1-.605.205zm46.588 0a.988.988 0 0 1-.605-.206c-2.857-2.183-.916-6.21-.491-7.007 3.531 2.905 2.719 5.482 1.91 6.767a.957.957 0 0 1-.814.445zm-34.99 2.016c-1.54 0-2.558-.849-3.14-1.562a.973.973 0 0 1-.211-.75 1.04 1.04 0 0 1 .412-.706c.67-.49 1.404-.739 2.18-.739 2.142 0 4.058 1.882 4.52 2.371-1.356.92-2.62 1.386-3.76 1.386zm23.39 0c-1.138 0-2.402-.467-3.76-1.386.462-.49 2.378-2.37 4.52-2.37.777 0 1.51.248 2.18.738.227.166.378.425.414.706a.985.985 0 0 1-.21.751c-.583.712-1.602 1.561-3.143 1.561zm-40.018 2.297a.94.94 0 0 1-.696-.302c-1.03-1.111-2.303-3.49.636-7.01.563.704 3.21 4.297.802 6.978a.996.996 0 0 1-.742.334zm56.648 0a.998.998 0 0 1-.743-.334c-2.406-2.68.24-6.274.804-6.977 2.938 3.52 1.666 5.898.634 7.01a.935.935 0 0 1-.695.3zm-46.827 1.484c-1.22 0-2.142-.59-2.703-1.085a.986.986 0 0 1-.325-.706c-.01-.284.098-.564.296-.765.74-.753 1.64-1.134 2.671-1.134 1.9 0 3.72 1.293 4.2 1.66-1.426 1.347-2.817 2.03-4.139 2.03zm37.005 0c-1.32 0-2.712-.683-4.137-2.03.48-.367 2.301-1.66 4.199-1.66 1.03 0 1.93.381 2.67 1.134.198.201.307.48.296.765a.98.98 0 0 1-.325.706c-.56.495-1.483 1.085-2.702 1.085h-.001zm-51.308 4.075a.929.929 0 0 1-.583-.202c-1.186-.938-2.802-3.091-.432-7.024.664.607 3.822 3.748 1.85 6.77a1 1 0 0 1-.835.456zm65.612 0a.999.999 0 0 1-.836-.457c-1.972-3.023 1.187-6.162 1.851-6.77 2.371 3.934.754 6.087-.432 7.025a.931.931 0 0 1-.583.202zm-56.969 1.064c-1.011 0-1.835-.42-2.349-.77a.975.975 0 0 1-.41-.66 1.044 1.044 0 0 1 .202-.797c.76-.99 1.796-1.49 3.078-1.49 1.695 0 3.335.885 3.804 1.16-1.402 1.698-2.857 2.557-4.325 2.557zm48.326 0c-1.469 0-2.924-.86-4.326-2.556.469-.276 2.11-1.162 3.806-1.162 1.281 0 2.317.502 3.077 1.491.172.224.244.513.2.795a.971.971 0 0 1-.41.661c-.512.351-1.335.771-2.347.771zM16.286 29.08a4.32 4.32 0 0 1-1.757-.39.96.96 0 0 1-.521-.571 1.05 1.05 0 0 1 .053-.821c.722-1.411 2.004-2.126 3.81-2.126 1.304 0 2.495.387 2.899.531-1.248 2.242-2.756 3.377-4.483 3.377h-.001zm57.43 0c-1.73 0-3.238-1.135-4.485-3.377.403-.144 1.595-.531 2.898-.531 1.807 0 3.087.715 3.809 2.126.129.252.148.552.054.82a.956.956 0 0 1-.52.572c-.585.26-1.175.39-1.757.39zm-65.091.001a.916.916 0 0 1-.42-.102c-1.348-.68-3.356-2.465-1.807-6.796.77.462 4.484 2.903 3.145 6.262-.152.38-.52.636-.918.636zm72.751 0c-.398 0-.766-.256-.92-.635-1.338-3.36 2.377-5.8 3.146-6.263 1.548 4.331-.46 6.116-1.805 6.796a.926.926 0 0 1-.42.102zM6.332 36.343c-.085 0-.17-.012-.253-.033-1.505-.406-3.91-1.793-3.23-6.514.863.302 5.148 1.992 4.482 5.686-.09.5-.511.861-1 .861zm77.337 0c-.482 0-.911-.37-1-.86-.666-3.697 3.618-5.387 4.48-5.687.682 4.72-1.723 6.108-3.228 6.514a1.01 1.01 0 0 1-.252.033zm-70.618.105c-.344 0-.696-.04-1.047-.12a1.002 1.002 0 0 1-.646-.478 1.09 1.09 0 0 1-.106-.846c.732-2.545 3.158-3.08 5.064-3.08.656 0 1.187.067 1.436.106-1.189 3.647-3.207 4.418-4.7 4.418zm63.898 0c-1.494 0-3.512-.771-4.7-4.418.248-.039.779-.106 1.434-.106 1.907 0 4.333.535 5.066 3.08.08.283.043.59-.107.846a1 1 0 0 1-.646.478c-.352.08-.703.12-1.047.12zM5.282 43.172c-1.705 0-3.908-.87-4.787-4.98.064-.002.147-.004.244-.004 1.234 0 5.307.27 5.923 3.741.05.29-.02.59-.195.823a.977.977 0 0 1-.69.395 5.028 5.028 0 0 1-.495.025zm79.436 0c-.177 0-.34-.01-.495-.025a.977.977 0 0 1-.691-.395 1.066 1.066 0 0 1-.195-.823c.616-3.47 4.689-3.74 5.924-3.74.097 0 .18.001.244.004-.878 4.11-3.082 4.98-4.787 4.98zM11.136 45.01c-.546 0-1.005-.46-1.025-1.025-.131-3.755 4.36-4.728 5.253-4.884 0 4.766-2.579 5.746-4.128 5.903l-.1.006zm67.629-.006c-1.55-.157-4.13-1.137-4.127-5.903.891.157 5.382 1.132 5.251 4.884-.02.564-.48 1.025-1.025 1.025l-.1-.006zm-74 5.352c-1.415 0-3.38-.72-4.765-4.122a9.859 9.859 0 0 1 1.978-.206c1.7 0 3.901.483 4.743 2.782a1.07 1.07 0 0 1-.048.846.987.987 0 0 1-.611.513 4.766 4.766 0 0 1-1.297.187zm80.47 0c-.426 0-.862-.064-1.298-.187a.987.987 0 0 1-.611-.513 1.072 1.072 0 0 1-.047-.845c.842-2.3 3.044-2.783 4.744-2.783.903 0 1.664.139 1.977.206-1.386 3.402-3.351 4.122-4.765 4.122zm-72.95 2.64a1.05 1.05 0 0 1-1.017-.853c-.746-3.68 3.525-5.394 4.38-5.697.781 4.7-1.6 6.098-3.104 6.514a.97.97 0 0 1-.26.036zm65.43 0a.97.97 0 0 1-.259-.036c-1.502-.415-3.885-1.813-3.103-6.514.855.304 5.124 2.02 4.38 5.697-.1.494-.528.853-1.018.853zM6.008 57.86c-1.73 0-3.3-1.097-4.671-3.262.438-.18 1.814-.693 3.292-.693 1.724 0 2.995.678 3.776 2.012.15.253.186.56.103.841a.986.986 0 0 1-.512.615 4.458 4.458 0 0 1-1.988.487zm77.985 0a4.455 4.455 0 0 1-1.99-.487.986.986 0 0 1-.51-.615 1.07 1.07 0 0 1 .102-.841c.781-1.334 2.053-2.012 3.776-2.012 1.478 0 2.854.512 3.292.694-1.371 2.164-2.942 3.26-4.67 3.26zM14.95 60.504c-.41 0-.784-.246-.955-.626-1.537-3.416 2.243-6.055 3.01-6.544 1.8 4.405-.213 6.306-1.586 7.05a.962.962 0 0 1-.466.12h-.003zm60.097 0a.974.974 0 0 1-.468-.119c-1.372-.745-3.385-2.646-1.585-7.051.766.49 4.546 3.128 3.01 6.544-.173.38-.548.626-.957.626zm-66.594 3.93c-1.467 0-2.962-.807-4.45-2.4.492-.32 2.292-1.4 4.154-1.4 1.222 0 2.242.461 3.033 1.373.193.221.285.515.257.807a.997.997 0 0 1-.392.7c-.556.42-1.46.92-2.602.92zm73.092 0c-1.141 0-2.046-.5-2.603-.92a.996.996 0 0 1-.39-.7 1.074 1.074 0 0 1 .256-.807c.79-.912 1.81-1.373 3.033-1.373 1.865 0 3.662 1.08 4.154 1.4-1.488 1.593-2.983 2.4-4.45 2.4zm-62.372 2.3c-.36 0-.69-.182-.885-.485-2.03-3.143 1.316-6.328 2-6.929 2.435 4.081.727 6.269-.517 7.214-.173.13-.38.2-.598.2zm51.652 0a.985.985 0 0 1-.599-.2c-1.243-.946-2.951-3.134-.515-7.214.683.6 4.03 3.786 2 6.929-.193.299-.532.485-.886.485zm-58.964 4.299c-1.303 0-2.708-.61-4.179-1.813.495-.425 2.458-1.994 4.543-1.994.96 0 1.829.334 2.578.993.22.193.35.472.36.766a1 1 0 0 1-.296.746c-.599.594-1.608 1.302-3.005 1.302h-.001zm66.275 0c-1.397 0-2.406-.708-3.005-1.302a1 1 0 0 1-.295-.746c.009-.294.14-.573.359-.766.75-.659 1.616-.993 2.578-.993 2.087 0 4.048 1.569 4.542 1.994-1.472 1.204-2.875 1.813-4.177 1.813h-.002zm-52.897.707a1.11 1.11 0 0 1-.845-.39c-2.57-3.004.467-6.84 1.08-7.557 3.126 3.92 1.668 6.465.51 7.638-.197.2-.461.31-.745.31zm39.52 0c-.283 0-.548-.109-.745-.309-1.158-1.172-2.618-3.716.508-7.638.614.716 3.651 4.553 1.083 7.557-.214.249-.522.39-.846.39zM31.59 75.274c-.288 0-.56-.11-.77-.31-2.85-2.732-.2-6.854.34-7.628 3.494 3.59 2.288 6.268 1.25 7.55-.2.247-.497.388-.82.388zm26.822 0c-.323 0-.62-.14-.82-.387-1.038-1.283-2.242-3.961 1.25-7.55.54.773 3.19 4.895.34 7.627-.21.2-.481.31-.77.31zm-19.71 1.953a1.1 1.1 0 0 1-.53-.136c-3.446-1.89-1.944-6.552-1.621-7.44 4.282 2.547 3.803 5.442 3.132 6.95-.171.38-.555.626-.981.626zm12.598 0c-.426 0-.81-.246-.98-.626-.673-1.507-1.153-4.4 3.13-6.95.323.888 1.826 5.55-1.618 7.44-.163.09-.347.136-.532.136zm-34.292 0c-1.26 0-2.656-.519-4.15-1.543.489-.51 2.59-2.544 4.935-2.544.864 0 1.677.278 2.417.823.25.184.413.468.45.78.037.3-.048.589-.237.816-.637.76-1.746 1.668-3.414 1.668h-.001zm55.986 0c-1.668 0-2.778-.908-3.415-1.668a1.063 1.063 0 0 1-.238-.817c.038-.31.2-.595.452-.779.74-.545 1.552-.823 2.416-.823 2.346 0 4.447 2.034 4.935 2.544-1.494 1.024-2.889 1.543-4.15 1.543zm-27.916.674a1.4 1.4 0 0 1-.904-.319c-.837-.722-1.28-1.58-1.316-2.55-.076-1.995 1.577-3.92 1.981-4.362 1.573 1.444 2.378 2.844 2.396 4.16.016 1.247-.688 2.183-1.281 2.747a1.273 1.273 0 0 1-.876.324zm-21.376 3.86c-1.3 0-2.66-.472-4.123-1.402.482-.536 2.586-2.713 4.987-2.713h.169c.812 0 1.586.25 2.303.74.257.177.43.456.478.764.046.299-.028.592-.21.825-.637.815-1.764 1.787-3.517 1.787H23.7zm42.598 0c-1.84 0-2.967-.97-3.604-1.786a1.067 1.067 0 0 1-.21-.825c.047-.308.221-.587.479-.763.716-.492 1.49-.741 2.302-.741h.169c2.401 0 4.505 2.177 4.987 2.713-1.463.931-2.822 1.403-4.039 1.403h-.084zm-21.48.223c-.598 0-1.202-.014-1.806-.043C23.789 81.03 7.995 65.083 7.057 45.636 6.123 26.26 19.649 9.221 38.52 6.005h.025c.29 0 .478.128.564.323a.547.547 0 0 1-.4.772C21.67 10.19 8.82 25.936 8.82 43.73c0 19.758 15.74 35.304 35.832 35.391h.162c19.551 0 35.358-15.006 35.987-34.16.6-18.29-12.16-34.551-29.683-37.826a.551.551 0 0 1-.37-.257.537.537 0 0 1-.054-.436.555.555 0 0 1 .526-.408C69.458 9.23 82.63 25.08 82.63 43.729c0 10.202-3.939 19.805-11.087 27.038C64.393 78 54.903 81.984 44.822 81.984h-.003zm-16.08 3.857c-.585 0-1.219-.06-1.89-.18.296-.816 1.877-4.71 5.09-4.71.302 0 .613.034.927.102.303.065.568.257.726.525.154.259.194.56.112.843-.366 1.277-1.495 3.42-4.965 3.42zm32.523 0c-3.469 0-4.601-2.143-4.968-3.42a1.065 1.065 0 0 1 .114-.844c.158-.268.422-.46.724-.524.315-.068.626-.102.927-.102 3.215 0 4.796 3.894 5.092 4.71-.67.12-1.306.18-1.89.18zm-26.695 2.41c.12-.94.928-5.788 4.855-5.847.322 0 .618.129.828.354.204.217.306.498.29.792-.096 1.656-1.001 4.452-5.973 4.701zm20.865 0c-4.974-.25-5.877-3.045-5.972-4.7a1.062 1.062 0 0 1 .29-.793c.21-.225.506-.354.812-.354 3.943.06 4.75 4.907 4.87 5.847zM45.029 90c-1.614-1.523-2.405-2.95-2.348-4.244.05-1.213.846-2.08 1.503-2.593.224-.173.528-.27.86-.27.404 0 .79.139 1.06.377.859.764 1.288 1.638 1.27 2.598-.035 1.963-1.91 3.744-2.345 4.132z" opacity=".4" fill="#E6E7EA"/>
        </g>
        <path d="M42.517 68.296c.83.985 1.25 2.053 1.25 3.184 0 1.261-.439 2.351-1.307 3.24 2.832-.237 4.057-1.673 4.057-4.672 0-.79-.191-1.353-.6-1.771-.435-.443-.968-.668-1.679-.707l-.086-.001c-.642 0-1.172.234-1.635.727m.342 18.267a4.3 4.3 0 0 0 .454.024c.973 0 1.754-.26 2.386-.792.558-.47.818-1.098.818-1.98 0-.838 0-3.064-5.16-3.064-.322 0-.657.009-1.005.026.481.235.934.568 1.357.997.934.95 1.408 2.076 1.408 3.346 0 .505-.087.988-.258 1.443M44.695 93c-2.62 0-4.908-.537-6.799-1.594C35.311 89.948 34 87.791 34 84.994c0-1.3.446-2.413 1.328-3.305.873-.885 1.946-1.333 3.19-1.333.079 0 .158.001.237.006v-4.31c-1.205-.123-2.259-.696-3.139-1.708-.965-1.107-1.454-2.397-1.454-3.833 0-2.83 1.156-5.053 3.435-6.604C39.427 62.642 41.68 62 44.29 62c2.9 0 5.382.683 7.378 2.03 2.498 1.692 3.764 4.113 3.764 7.197 0 2.172-.799 4.075-2.377 5.668C55.01 78.525 56 80.565 56 82.973c0 1.407-.36 2.882-1.067 4.384-.71 1.503-1.618 2.7-2.698 3.554C50.592 92.293 48.05 93 44.695 93" fill="#A1FF00"/>
        <path d="M40.131 75.353c.485.054.966.08 1.427.08 3.83 0 5.612-1.71 5.612-5.385 0-.97-.26-1.708-.795-2.254-.547-.558-1.234-.853-2.101-.9l-.119-.002c-1.02 0-1.844.471-2.511 1.436.976.976 1.47 2.034 1.47 3.152 0 1.082-.38 2.017-1.132 2.778a3.7 3.7 0 0 1-2.008 1.078l.157.017zm4.564 16.97c-2.51 0-4.693-.51-6.488-1.513-2.359-1.33-3.554-3.286-3.554-5.816 0-1.111.381-2.06 1.131-2.821a3.714 3.714 0 0 1 2.734-1.14c1.013 0 1.932.412 2.733 1.225.805.818 1.212 1.78 1.212 2.862a3.34 3.34 0 0 1-.587 1.912 4.35 4.35 0 0 0 1.437.232c1.13 0 2.045-.309 2.799-.944.712-.6 1.058-1.418 1.058-2.505 0-.925 0-3.741-5.813-3.741-.4 0-.819.013-1.257.039l-.692.041v-4.758a4.966 4.966 0 0 1-.158.003c-1.22 0-2.279-.508-3.148-1.508-.853-.98-1.286-2.116-1.286-3.38 0-2.589 1.057-4.62 3.14-6.038 1.724-1.191 3.856-1.796 6.333-1.796 2.77 0 5.133.646 7.021 1.92 2.302 1.559 3.467 3.79 3.467 6.63 0 2.23-.926 4.149-2.754 5.717 2.207 1.573 3.324 3.597 3.324 6.03 0 1.303-.338 2.678-1.001 4.085-.666 1.408-1.509 2.523-2.508 3.314-1.533 1.29-3.942 1.95-7.143 1.95z" fill="#000"/>
        <path d="M54.693 82.973c0 1.207-.312 2.47-.935 3.79-.624 1.318-1.396 2.343-2.317 3.072-1.436 1.208-3.685 1.81-6.745 1.81-2.413 0-4.47-.476-6.178-1.43-2.14-1.207-3.21-2.948-3.21-5.221 0-.926.31-1.705.934-2.337a3.077 3.077 0 0 1 2.276-.947c.84 0 1.598.344 2.276 1.032.677.688 1.016 1.48 1.016 2.378 0 .815-.34 1.53-1.016 2.147.758.45 1.598.674 2.52.674 1.272 0 2.343-.364 3.21-1.095.867-.73 1.3-1.74 1.3-3.031 0-3.227-2.587-4.687-7.762-4.378v-3.41c.512.056 1.011.084 1.496.084 4.177 0 6.266-2.021 6.266-6.063 0-1.15-.33-2.063-.99-2.736-.66-.673-1.501-1.038-2.525-1.095-1.482-.055-2.654.688-3.515 2.232 1.11.954 1.666 1.965 1.666 3.03 0 .9-.312 1.664-.935 2.295a3.075 3.075 0 0 1-2.275.947c-1.03 0-1.917-.427-2.663-1.284-.745-.855-1.117-1.83-1.117-2.926 0-2.357.948-4.181 2.845-5.473 1.625-1.122 3.617-1.684 5.974-1.684 2.655 0 4.877.604 6.665 1.811 2.113 1.431 3.17 3.452 3.17 6.062 0 2.302-1.084 4.224-3.252 5.768 2.546 1.515 3.82 3.509 3.82 5.978" fill="#A1FF00"/>
    </g>
</svg>
