<svg width="80" height="84" viewBox="0 0 80 84" xmlns="http://www.w3.org/2000/svg" xmlns:xlink="http://www.w3.org/1999/xlink">
    <defs>
        <path d="M19.61 17.402V19.2c0 .664.175 1.104.527 1.319.351.214 1.12.322 2.304.322h.977v3.515H7.891V20.84h1.074c1.25 0 2.077-.114 2.48-.342.404-.228.606-.889.606-1.982V17.402H0v-4.277L12.09 0h7.52v14.004h3.808v3.398h-3.809zM4.374 14.004h7.676l.078-8.535-7.754 8.535z" id="drtm1uvtla"/>
    </defs>
    <g fill="none" fill-rule="evenodd">
        <g opacity=".5" fill="#E6E7EA">
            <path d="M33.7 4.77c-.356 0-.637-.318-.637-.723C33.06 2.818 33.54.677 36.75 0c-.051.787-.422 4.344-2.95 4.76l-.1.01zm12.5-.01C43.671 4.345 43.3.788 43.25 0c3.21.678 3.69 2.818 3.687 4.047 0 .404-.281.722-.637.722l-.1-.008zm-17.013.977a.783.783 0 0 1-.747-.584c-.336-1.224-.389-3.48 2.961-4.955.152.767.728 4.435-1.937 5.486a.764.764 0 0 1-.277.053zm21.626 0a.759.759 0 0 1-.276-.053C47.868 4.632 48.447.965 48.6.198c3.347 1.474 3.295 3.73 2.96 4.954a.783.783 0 0 1-.747.585zM24.104 7.863a.859.859 0 0 1-.791-.514c-.537-1.24-.906-3.615 2.588-5.681.266.758 1.43 4.564-1.371 6.087a.905.905 0 0 1-.426.108zm31.79 0a.901.901 0 0 1-.424-.108c-2.8-1.523-1.638-5.329-1.372-6.087 3.495 2.066 3.126 4.442 2.589 5.681a.86.86 0 0 1-.792.514zM35.978 10.19c-1.807 0-2.633-1.072-3.01-1.972a.768.768 0 0 1 .449-1.003 2.88 2.88 0 0 1 .975-.179c1.966 0 3.233 2.258 3.516 2.817-.702.224-1.35.337-1.93.337zm8.047 0c-.58 0-1.23-.113-1.932-.337.284-.559 1.552-2.817 3.517-2.817.32 0 .648.06.976.179.195.07.355.222.44.417a.74.74 0 0 1 .007.586c-.376.9-1.203 1.972-3.008 1.972zm-24.73.648a.85.85 0 0 1-.724-.395c-.717-1.143-1.44-3.434 1.7-6.016.376.709 2.102 4.288-.438 6.229a.88.88 0 0 1-.538.182zm41.412 0a.878.878 0 0 1-.538-.182c-2.54-1.94-.814-5.52-.437-6.229 3.14 2.582 2.417 4.873 1.699 6.016a.85.85 0 0 1-.724.395zm-31.102 1.793c-1.37 0-2.274-.755-2.792-1.388a.865.865 0 0 1-.187-.667.925.925 0 0 1 .366-.628c.596-.436 1.248-.656 1.938-.656 1.904 0 3.607 1.672 4.017 2.107-1.204.817-2.329 1.232-3.341 1.232h-.001zm20.791 0c-1.012 0-2.136-.415-3.342-1.232.41-.435 2.113-2.107 4.017-2.107.69 0 1.343.22 1.938.656a.927.927 0 0 1 .368.628.876.876 0 0 1-.187.668c-.518.632-1.423 1.387-2.794 1.387zm-35.572 2.041a.835.835 0 0 1-.619-.267c-.916-.988-2.047-3.103.566-6.231.5.625 2.853 3.819.712 6.202a.885.885 0 0 1-.66.296zm50.354 0a.887.887 0 0 1-.66-.296c-2.14-2.382.212-5.577.714-6.202 2.612 3.13 1.48 5.243.564 6.23a.831.831 0 0 1-.618.268zm-41.624 1.32c-1.085 0-1.904-.525-2.403-.964a.876.876 0 0 1-.29-.628.927.927 0 0 1 .265-.68c.657-.67 1.457-1.008 2.374-1.008 1.69 0 3.306 1.15 3.732 1.476-1.267 1.197-2.503 1.804-3.678 1.804zm32.893 0c-1.174 0-2.41-.607-3.677-1.804.426-.327 2.046-1.476 3.732-1.476.917 0 1.716.339 2.373 1.008a.923.923 0 0 1 .264.68.87.87 0 0 1-.29.628c-.498.44-1.317.964-2.401.964h-.001zm-45.607 3.622a.826.826 0 0 1-.518-.18c-1.054-.833-2.491-2.747-.384-6.243.59.54 3.397 3.332 1.645 6.017a.89.89 0 0 1-.743.406zm58.322 0a.888.888 0 0 1-.743-.406c-1.753-2.687 1.055-5.478 1.645-6.017 2.108 3.496.67 5.41-.384 6.244a.828.828 0 0 1-.518.18zm-50.64.946c-.898 0-1.63-.373-2.087-.685a.867.867 0 0 1-.364-.587.928.928 0 0 1 .179-.708c.676-.88 1.596-1.325 2.736-1.325 1.507 0 2.964.788 3.381 1.032-1.246 1.509-2.54 2.273-3.844 2.273zm42.957 0c-1.306 0-2.599-.764-3.845-2.273.417-.244 1.875-1.032 3.383-1.032 1.139 0 2.06.446 2.735 1.325a.93.93 0 0 1 .178.707.863.863 0 0 1-.364.588c-.456.312-1.187.685-2.087.685zm-47.002 5.287a3.84 3.84 0 0 1-1.562-.347.853.853 0 0 1-.463-.508.934.934 0 0 1 .048-.73c.641-1.253 1.78-1.889 3.386-1.889 1.16 0 2.218.344 2.577.472-1.11 1.993-2.45 3.002-3.985 3.002zm51.049 0c-1.538 0-2.878-1.01-3.986-3.002.358-.128 1.418-.472 2.575-.472 1.607 0 2.745.636 3.386 1.89.115.224.132.49.049.73a.85.85 0 0 1-.463.507c-.52.23-1.044.347-1.561.347zm-57.858 0a.814.814 0 0 1-.374-.09c-1.198-.604-2.983-2.19-1.606-6.04.684.41 3.986 2.58 2.796 5.565a.893.893 0 0 1-.816.566zm64.667 0a.894.894 0 0 1-.817-.564c-1.19-2.986 2.113-5.156 2.796-5.567 1.376 3.85-.408 5.437-1.605 6.042a.823.823 0 0 1-.374.09zM5.628 32.306a.899.899 0 0 1-.225-.03c-1.338-.36-3.476-1.594-2.87-5.79.767.268 4.576 1.771 3.983 5.055a.915.915 0 0 1-.888.765zm68.745 0c-.43 0-.81-.33-.89-.765-.592-3.286 3.217-4.788 3.983-5.054.606 4.195-1.531 5.428-2.87 5.79a.897.897 0 0 1-.223.03zm-62.772.093c-.306 0-.619-.035-.93-.106a.891.891 0 0 1-.575-.426.97.97 0 0 1-.094-.751c.65-2.263 2.807-2.738 4.5-2.738.585 0 1.056.06 1.277.094-1.056 3.242-2.85 3.927-4.178 3.927zm56.798 0c-1.328 0-3.122-.685-4.178-3.927a8.545 8.545 0 0 1 1.275-.094c1.695 0 3.852.475 4.503 2.738a.966.966 0 0 1-.095.751.889.889 0 0 1-.574.426 4.21 4.21 0 0 1-.931.106zM4.695 38.375c-1.515 0-3.474-.773-4.255-4.426.057-.002.13-.004.217-.004 1.097 0 4.717.24 5.264 3.325a.948.948 0 0 1-.172.732.868.868 0 0 1-.614.351 4.47 4.47 0 0 1-.44.022zm70.61 0a4.47 4.47 0 0 1-.44-.022.868.868 0 0 1-.615-.351.948.948 0 0 1-.172-.732c.547-3.085 4.167-3.325 5.265-3.325.087 0 .16.002.217.004-.78 3.653-2.74 4.426-4.255 4.426zM9.899 40.008c-.485 0-.893-.41-.911-.912-.117-3.337 3.875-4.202 4.668-4.34.001 4.236-2.291 5.107-3.668 5.247l-.09.005zm60.114-.005c-1.378-.14-3.67-1.011-3.669-5.247.793.139 4.785 1.006 4.668 4.34-.018.503-.426.912-.91.912l-.089-.005zM4.235 44.76c-1.257 0-3.004-.64-4.235-3.664.278-.06.955-.183 1.758-.183 1.511 0 3.468.43 4.217 2.473a.95.95 0 0 1-.043.751.877.877 0 0 1-.544.456c-.386.11-.774.167-1.153.167zm71.529 0c-.378 0-.766-.057-1.153-.167a.877.877 0 0 1-.544-.456.953.953 0 0 1-.042-.75c.75-2.045 2.707-2.474 4.218-2.474.802 0 1.479.123 1.757.183-1.232 3.024-2.979 3.664-4.235 3.664h-.001zM10.92 47.106a.933.933 0 0 1-.904-.757c-.663-3.272 3.134-4.795 3.893-5.064.695 4.177-1.423 5.42-2.759 5.79a.862.862 0 0 1-.23.031zm58.16 0a.862.862 0 0 1-.23-.031c-1.335-.37-3.454-1.612-2.759-5.79.76.27 4.555 1.795 3.894 5.064a.935.935 0 0 1-.905.757zM5.34 51.432c-1.537 0-2.932-.975-4.152-2.9.39-.16 1.613-.615 2.927-.615 1.532 0 2.662.602 3.356 1.788a.948.948 0 0 1 .091.747.877.877 0 0 1-.454.547 3.962 3.962 0 0 1-1.767.433zm69.32 0a3.96 3.96 0 0 1-1.768-.433.877.877 0 0 1-.454-.547.952.952 0 0 1 .09-.747c.695-1.186 1.826-1.788 3.357-1.788 1.314 0 2.537.455 2.927.616-1.22 1.924-2.615 2.899-4.152 2.899zm-61.37 2.35a.936.936 0 0 1-.85-.557c-1.366-3.037 1.995-5.382 2.676-5.817 1.6 3.915-.189 5.605-1.41 6.267a.855.855 0 0 1-.414.106h-.002zm53.419 0a.866.866 0 0 1-.416-.106c-1.22-.663-3.009-2.353-1.409-6.268.681.435 4.042 2.78 2.675 5.817a.938.938 0 0 1-.85.556zM7.515 57.274c-1.304 0-2.634-.718-3.955-2.134.436-.284 2.036-1.244 3.692-1.244 1.086 0 1.993.41 2.696 1.22.17.197.253.458.228.717a.887.887 0 0 1-.349.623c-.494.373-1.297.818-2.312.818zm64.97 0c-1.014 0-1.818-.445-2.313-.818a.886.886 0 0 1-.348-.623.955.955 0 0 1 .228-.717c.702-.81 1.61-1.22 2.696-1.22 1.658 0 3.256.96 3.692 1.244-1.321 1.416-2.65 2.134-3.955 2.134zM17.043 59.32a.932.932 0 0 1-.786-.431c-1.804-2.794 1.17-5.625 1.778-6.159 2.165 3.628.646 5.572-.46 6.412a.875.875 0 0 1-.532.178zm45.914 0a.876.876 0 0 1-.533-.178c-1.105-.841-2.624-2.785-.458-6.412.607.534 3.582 3.365 1.777 6.159a.945.945 0 0 1-.786.43zM10.544 63.14c-1.158 0-2.407-.541-3.714-1.61.439-.38 2.184-1.773 4.037-1.773.855 0 1.626.296 2.292.882a.95.95 0 0 1 .32.68.89.89 0 0 1-.263.664c-.532.528-1.429 1.157-2.671 1.157h-.001zm58.911 0c-1.242 0-2.139-.629-2.671-1.157a.888.888 0 0 1-.262-.663.948.948 0 0 1 .319-.681c.666-.586 1.437-.882 2.292-.882 1.855 0 3.598 1.394 4.036 1.772-1.307 1.07-2.555 1.611-3.712 1.611h-.002zm-47.02.63a.986.986 0 0 1-.75-.347c-2.285-2.67.414-6.081.96-6.718 2.779 3.485 1.482 5.747.453 6.79a.92.92 0 0 1-.663.274zm35.13 0a.922.922 0 0 1-.663-.275c-1.03-1.042-2.326-3.303.452-6.79.546.637 3.246 4.047.962 6.718a.99.99 0 0 1-.751.346zm-29.486 3.14a.983.983 0 0 1-.684-.276c-2.533-2.428-.179-6.092.301-6.78 3.106 3.191 2.035 5.571 1.112 6.712a.93.93 0 0 1-.728.344h-.001zm23.842 0a.931.931 0 0 1-.73-.344c-.922-1.14-1.992-3.52 1.113-6.711.48.687 2.834 4.351.301 6.78a.981.981 0 0 1-.684.275zm-17.52 1.736a.977.977 0 0 1-.472-.121c-3.062-1.68-1.727-5.824-1.44-6.613 3.806 2.264 3.38 4.838 2.784 6.178a.952.952 0 0 1-.872.556zm11.198 0a.952.952 0 0 1-.872-.556c-.598-1.34-1.024-3.912 2.784-6.178.286.79 1.622 4.934-1.44 6.613a.984.984 0 0 1-.472.12zm-30.482 0c-1.12 0-2.36-.461-3.689-1.371.435-.453 2.303-2.261 4.387-2.261.768 0 1.491.246 2.149.731.222.163.367.416.4.693a.945.945 0 0 1-.211.725c-.566.676-1.552 1.483-3.035 1.483h-.001zm49.766 0c-1.483 0-2.47-.807-3.036-1.483a.945.945 0 0 1-.211-.725c.033-.277.178-.53.401-.693.658-.485 1.38-.731 2.148-.731 2.085 0 3.953 1.808 4.387 2.26-1.329.911-2.568 1.372-3.689 1.372zm-24.814.6c-.301 0-.594-.104-.804-.284-.744-.642-1.138-1.404-1.17-2.267-.067-1.774 1.402-3.485 1.761-3.877 1.398 1.283 2.114 2.528 2.13 3.698.014 1.108-.611 1.94-1.14 2.441a1.132 1.132 0 0 1-.777.288zm-19.001 3.43c-1.156 0-2.365-.419-3.665-1.246.428-.476 2.298-2.412 4.433-2.412h.15c.722 0 1.41.222 2.047.66.228.156.383.403.424.678a.945.945 0 0 1-.186.733c-.566.725-1.568 1.589-3.126 1.589l-.077-.001zm37.864 0c-1.636 0-2.637-.862-3.203-1.587a.949.949 0 0 1-.186-.733c.041-.275.196-.522.425-.679.636-.437 1.324-.659 2.047-.659h.15c2.134 0 4.004 1.936 4.432 2.412-1.3.828-2.508 1.248-3.59 1.248l-.075-.001zm-19.093.199c-.531 0-1.068-.013-1.605-.039-17.088-.81-31.127-14.984-31.961-32.27C5.443 23.34 17.466 8.196 34.24 5.338h.022c.257 0 .425.114.501.287a.486.486 0 0 1-.355.687C19.261 9.056 7.84 23.053 7.84 38.87c0 17.562 13.99 31.381 31.851 31.46h.143c17.38-.002 31.43-13.34 31.989-30.366.534-16.257-10.809-30.712-26.385-33.623a.49.49 0 0 1-.328-.229.477.477 0 0 1-.049-.386.494.494 0 0 1 .468-.363c16.212 2.843 27.92 16.931 27.92 33.507 0 9.069-3.501 17.605-9.855 24.034-6.355 6.43-14.79 9.97-23.751 9.97h-.003zm-14.293 3.428a9.62 9.62 0 0 1-1.68-.16c.263-.725 1.669-4.186 4.525-4.186.268 0 .544.03.824.09a.997.997 0 0 1 .645.467c.137.23.172.497.1.75-.326 1.134-1.33 3.04-4.414 3.04zm28.909 0c-3.083 0-4.09-1.905-4.415-3.04a.947.947 0 0 1 .1-.75.993.993 0 0 1 .644-.466c.28-.06.557-.09.824-.09 2.857 0 4.263 3.461 4.527 4.186a9.619 9.619 0 0 1-1.68.16zm-23.729 2.142c.107-.835.825-5.144 4.316-5.197.286 0 .549.114.736.315a.944.944 0 0 1 .258.704c-.086 1.472-.89 3.957-5.31 4.178zm18.547 0c-4.421-.221-5.224-2.706-5.309-4.178a.944.944 0 0 1 .258-.704.99.99 0 0 1 .722-.315c3.505.053 4.222 4.362 4.329 5.197zM40.026 80c-1.435-1.354-2.138-2.622-2.088-3.773.045-1.078.753-1.848 1.337-2.304.199-.155.47-.24.764-.24.36 0 .702.123.942.335.764.679 1.145 1.456 1.13 2.31-.032 1.744-1.698 3.327-2.085 3.672z" opacity=".4"/>
        </g>
        <g transform="translate(28.271 58.645)" fill-rule="nonzero">
            <use fill="#000" xlink:href="#drtm1uvtla"/>
            <use stroke="#A1FF00" strokeWidth="1.12" fill="#A1FF00" xlink:href="#drtm1uvtla"/>
            <path stroke="#000" strokeWidth=".56" d="M19.33.28v14.004h3.808v2.838h-3.809V19.2c0 .804.246 1.304.662 1.557.374.229 1.184.364 2.45.364h.697v2.955H8.171V21.12h.794c1.324 0 2.192-.138 2.618-.378.252-.143.456-.41.584-.829.107-.35.164-.816.164-1.397v-1.394H.28v-3.888L12.213.28h7.116zm-6.914 4.457-8.674 9.547h8.586l.088-9.547z" stroke-linejoin="square"/>
        </g>
    </g>
</svg>
