<svg width="90" height="93" viewBox="0 0 90 93" xmlns="http://www.w3.org/2000/svg">
    <g fill="none" fill-rule="evenodd">
        <g opacity=".5">
            <path d="M37.913 5.365c-.402 0-.718-.356-.718-.812-.002-1.383.539-3.79 4.15-4.553-.059.886-.476 4.887-3.319 5.356l-.113.01zm14.061-.01C49.131 4.888 48.714.886 48.656 0c3.61.763 4.152 3.17 4.149 4.553-.002.455-.318.812-.718.812l-.113-.01zm-19.139 1.1a.881.881 0 0 1-.84-.658c-.378-1.377-.437-3.915 3.331-5.574.171.863.819 4.989-2.179 6.172a.86.86 0 0 1-.312.06zm24.33 0a.854.854 0 0 1-.311-.06c-3.002-1.184-2.352-5.31-2.18-6.172 3.766 1.658 3.708 4.196 3.33 5.573a.881.881 0 0 1-.84.658zm-30.047 2.39a.966.966 0 0 1-.89-.577c-.605-1.395-1.02-4.067 2.91-6.392.3.854 1.61 5.134-1.542 6.849a1.018 1.018 0 0 1-.478.12zm35.763 0c-.165 0-.33-.041-.477-.12-3.151-1.715-1.842-5.995-1.544-6.849 3.932 2.325 3.517 4.997 2.913 6.392a.967.967 0 0 1-.892.578zm-22.407 2.62c-2.033 0-2.963-1.206-3.386-2.218a.864.864 0 0 1 .505-1.129 3.24 3.24 0 0 1 1.097-.201c2.212 0 3.637 2.54 3.955 3.17-.79.25-1.519.378-2.171.378zm9.053 0c-.652 0-1.384-.127-2.174-.379.32-.629 1.746-3.17 3.957-3.17.36 0 .73.069 1.098.202.22.079.4.25.495.47a.832.832 0 0 1 .008.659c-.424 1.012-1.353 2.218-3.384 2.218zm-27.821.73a.957.957 0 0 1-.815-.446c-.807-1.285-1.62-3.862 1.912-6.767.424.797 2.365 4.824-.492 7.007a.99.99 0 0 1-.605.205zm46.588 0a.988.988 0 0 1-.605-.206c-2.857-2.183-.916-6.21-.491-7.007 3.531 2.905 2.719 5.482 1.91 6.767a.957.957 0 0 1-.814.445zm-34.99 2.016c-1.54 0-2.558-.849-3.14-1.562a.973.973 0 0 1-.211-.75 1.04 1.04 0 0 1 .412-.706c.67-.49 1.404-.739 2.18-.739 2.142 0 4.058 1.882 4.52 2.371-1.356.92-2.62 1.386-3.76 1.386zm23.39 0c-1.138 0-2.402-.467-3.76-1.386.462-.49 2.378-2.37 4.52-2.37.777 0 1.51.248 2.18.738.227.166.378.425.414.706a.985.985 0 0 1-.21.751c-.583.712-1.602 1.561-3.143 1.561zm-40.018 2.297a.94.94 0 0 1-.696-.302c-1.03-1.111-2.303-3.49.636-7.01.563.704 3.21 4.297.802 6.978a.996.996 0 0 1-.742.334zm56.648 0a.998.998 0 0 1-.743-.334c-2.406-2.68.24-6.274.804-6.977 2.938 3.52 1.666 5.898.634 7.01a.935.935 0 0 1-.695.3zm-46.827 1.484c-1.22 0-2.142-.59-2.703-1.085a.986.986 0 0 1-.325-.706c-.01-.284.098-.564.296-.765.74-.753 1.64-1.134 2.671-1.134 1.9 0 3.72 1.293 4.2 1.66-1.426 1.347-2.817 2.03-4.139 2.03zm37.005 0c-1.32 0-2.712-.683-4.137-2.03.48-.367 2.301-1.66 4.199-1.66 1.03 0 1.93.381 2.67 1.134.198.201.307.48.296.765a.98.98 0 0 1-.325.706c-.56.495-1.483 1.085-2.702 1.085h-.001zm-51.308 4.075a.929.929 0 0 1-.583-.202c-1.186-.938-2.802-3.091-.432-7.024.664.607 3.822 3.748 1.85 6.77a1 1 0 0 1-.835.456zm65.612 0a.999.999 0 0 1-.836-.457c-1.972-3.023 1.187-6.162 1.851-6.77 2.371 3.934.754 6.087-.432 7.025a.931.931 0 0 1-.583.202zm-56.969 1.064c-1.011 0-1.835-.42-2.349-.77a.975.975 0 0 1-.41-.66 1.044 1.044 0 0 1 .202-.797c.76-.99 1.796-1.49 3.078-1.49 1.695 0 3.335.885 3.804 1.16-1.402 1.698-2.857 2.557-4.325 2.557zm48.326 0c-1.469 0-2.924-.86-4.326-2.556.469-.276 2.11-1.162 3.806-1.162 1.281 0 2.317.502 3.077 1.491.172.224.244.513.2.795a.971.971 0 0 1-.41.661c-.512.351-1.335.771-2.347.771zM16.286 29.08a4.32 4.32 0 0 1-1.757-.39.96.96 0 0 1-.521-.571 1.05 1.05 0 0 1 .053-.821c.722-1.411 2.004-2.126 3.81-2.126 1.304 0 2.495.387 2.899.531-1.248 2.242-2.756 3.377-4.483 3.377h-.001zm57.43 0c-1.73 0-3.238-1.135-4.485-3.377.403-.144 1.595-.531 2.898-.531 1.807 0 3.087.715 3.809 2.126.129.252.148.552.054.82a.956.956 0 0 1-.52.572c-.585.26-1.175.39-1.757.39zm-65.091.001a.916.916 0 0 1-.42-.102c-1.348-.68-3.356-2.465-1.807-6.796.77.462 4.484 2.903 3.145 6.262-.152.38-.52.636-.918.636zm72.751 0c-.398 0-.766-.256-.92-.635-1.338-3.36 2.377-5.8 3.146-6.263 1.548 4.331-.46 6.116-1.805 6.796a.926.926 0 0 1-.42.102zM6.332 36.343c-.085 0-.17-.012-.253-.033-1.505-.406-3.91-1.793-3.23-6.514.863.302 5.148 1.992 4.482 5.686-.09.5-.511.861-1 .861zm77.337 0c-.482 0-.911-.37-1-.86-.666-3.697 3.618-5.387 4.48-5.687.682 4.72-1.723 6.108-3.228 6.514a1.01 1.01 0 0 1-.252.033zm-70.618.105c-.344 0-.696-.04-1.047-.12a1.002 1.002 0 0 1-.646-.478 1.09 1.09 0 0 1-.106-.846c.732-2.545 3.158-3.08 5.064-3.08.656 0 1.187.067 1.436.106-1.189 3.647-3.207 4.418-4.7 4.418zm63.898 0c-1.494 0-3.512-.771-4.7-4.418.248-.039.779-.106 1.434-.106 1.907 0 4.333.535 5.066 3.08.08.283.043.59-.107.846a1 1 0 0 1-.646.478c-.352.08-.703.12-1.047.12zM5.282 43.172c-1.705 0-3.908-.87-4.787-4.98.064-.002.147-.004.244-.004 1.234 0 5.307.27 5.923 3.741.05.29-.02.59-.195.823a.977.977 0 0 1-.69.395 5.028 5.028 0 0 1-.495.025zm79.436 0c-.177 0-.34-.01-.495-.025a.977.977 0 0 1-.691-.395 1.066 1.066 0 0 1-.195-.823c.616-3.47 4.689-3.74 5.924-3.74.097 0 .18.001.244.004-.878 4.11-3.082 4.98-4.787 4.98zM11.136 45.01c-.546 0-1.005-.46-1.025-1.025-.131-3.755 4.36-4.728 5.253-4.884 0 4.766-2.579 5.746-4.128 5.903l-.1.006zm67.629-.006c-1.55-.157-4.13-1.137-4.127-5.903.891.157 5.382 1.132 5.251 4.884-.02.564-.48 1.025-1.025 1.025l-.1-.006zm-74 5.352c-1.415 0-3.38-.72-4.765-4.122a9.859 9.859 0 0 1 1.978-.206c1.7 0 3.901.483 4.743 2.782a1.07 1.07 0 0 1-.048.846.987.987 0 0 1-.611.513 4.766 4.766 0 0 1-1.297.187zm80.47 0c-.426 0-.862-.064-1.298-.187a.987.987 0 0 1-.611-.513 1.072 1.072 0 0 1-.047-.845c.842-2.3 3.044-2.783 4.744-2.783.903 0 1.664.139 1.977.206-1.386 3.402-3.351 4.122-4.765 4.122zm-72.95 2.64a1.05 1.05 0 0 1-1.017-.853c-.746-3.68 3.525-5.394 4.38-5.697.781 4.7-1.6 6.098-3.104 6.514a.97.97 0 0 1-.26.036zm65.43 0a.97.97 0 0 1-.259-.036c-1.502-.415-3.885-1.813-3.103-6.514.855.304 5.124 2.02 4.38 5.697-.1.494-.528.853-1.018.853zM6.008 57.86c-1.73 0-3.3-1.097-4.671-3.262.438-.18 1.814-.693 3.292-.693 1.724 0 2.995.678 3.776 2.012.15.253.186.56.103.841a.986.986 0 0 1-.512.615 4.458 4.458 0 0 1-1.988.487zm77.985 0a4.455 4.455 0 0 1-1.99-.487.986.986 0 0 1-.51-.615 1.07 1.07 0 0 1 .102-.841c.781-1.334 2.053-2.012 3.776-2.012 1.478 0 2.854.512 3.292.694-1.371 2.164-2.942 3.26-4.67 3.26zM14.95 60.504c-.41 0-.784-.246-.955-.626-1.537-3.416 2.243-6.055 3.01-6.544 1.8 4.405-.213 6.306-1.586 7.05a.962.962 0 0 1-.466.12h-.003zm60.097 0a.974.974 0 0 1-.468-.119c-1.372-.745-3.385-2.646-1.585-7.051.766.49 4.546 3.128 3.01 6.544-.173.38-.548.626-.957.626zm-66.594 3.93c-1.467 0-2.962-.807-4.45-2.4.492-.32 2.292-1.4 4.154-1.4 1.222 0 2.242.461 3.033 1.373.193.221.285.515.257.807a.997.997 0 0 1-.392.7c-.556.42-1.46.92-2.602.92zm73.092 0c-1.141 0-2.046-.5-2.603-.92a.996.996 0 0 1-.39-.7 1.074 1.074 0 0 1 .256-.807c.79-.912 1.81-1.373 3.033-1.373 1.865 0 3.662 1.08 4.154 1.4-1.488 1.593-2.983 2.4-4.45 2.4zm-62.372 2.3c-.36 0-.69-.182-.885-.485-2.03-3.143 1.316-6.328 2-6.929 2.435 4.081.727 6.269-.517 7.214-.173.13-.38.2-.598.2zm51.652 0a.985.985 0 0 1-.599-.2c-1.243-.946-2.951-3.134-.515-7.214.683.6 4.03 3.786 2 6.929-.193.299-.532.485-.886.485zm-58.964 4.299c-1.303 0-2.708-.61-4.179-1.813.495-.425 2.458-1.994 4.543-1.994.96 0 1.829.334 2.578.993.22.193.35.472.36.766a1 1 0 0 1-.296.746c-.599.594-1.608 1.302-3.005 1.302h-.001zm66.275 0c-1.397 0-2.406-.708-3.005-1.302a1 1 0 0 1-.295-.746c.009-.294.14-.573.359-.766.75-.659 1.616-.993 2.578-.993 2.087 0 4.048 1.569 4.542 1.994-1.472 1.204-2.875 1.813-4.177 1.813h-.002zm-52.897.707a1.11 1.11 0 0 1-.845-.39c-2.57-3.004.467-6.84 1.08-7.557 3.126 3.92 1.668 6.465.51 7.638-.197.2-.461.31-.745.31zm39.52 0c-.283 0-.548-.109-.745-.309-1.158-1.172-2.618-3.716.508-7.638.614.716 3.651 4.553 1.083 7.557-.214.249-.522.39-.846.39zM31.59 75.274c-.288 0-.56-.11-.77-.31-2.85-2.732-.2-6.854.34-7.628 3.494 3.59 2.288 6.268 1.25 7.55-.2.247-.497.388-.82.388zm26.822 0c-.323 0-.62-.14-.82-.387-1.038-1.283-2.242-3.961 1.25-7.55.54.773 3.19 4.895.34 7.627-.21.2-.481.31-.77.31zm-19.71 1.953a1.1 1.1 0 0 1-.53-.136c-3.446-1.89-1.944-6.552-1.621-7.44 4.282 2.547 3.803 5.442 3.132 6.95-.171.38-.555.626-.981.626zm12.598 0c-.426 0-.81-.246-.98-.626-.673-1.507-1.153-4.4 3.13-6.95.323.888 1.826 5.55-1.618 7.44-.163.09-.347.136-.532.136zm-34.292 0c-1.26 0-2.656-.519-4.15-1.543.489-.51 2.59-2.544 4.935-2.544.864 0 1.677.278 2.417.823.25.184.413.468.45.78.037.3-.048.589-.237.816-.637.76-1.746 1.668-3.414 1.668h-.001zm55.986 0c-1.668 0-2.778-.908-3.415-1.668a1.063 1.063 0 0 1-.238-.817c.038-.31.2-.595.452-.779.74-.545 1.552-.823 2.416-.823 2.346 0 4.447 2.034 4.935 2.544-1.494 1.024-2.889 1.543-4.15 1.543zm-27.916.674a1.4 1.4 0 0 1-.904-.319c-.837-.722-1.28-1.58-1.316-2.55-.076-1.995 1.577-3.92 1.981-4.362 1.573 1.444 2.378 2.844 2.396 4.16.016 1.247-.688 2.183-1.281 2.747a1.273 1.273 0 0 1-.876.324zm-21.376 3.86c-1.3 0-2.66-.472-4.123-1.402.482-.536 2.586-2.713 4.987-2.713h.169c.812 0 1.586.25 2.303.74.257.177.43.456.478.764.046.299-.028.592-.21.825-.637.815-1.764 1.787-3.517 1.787H23.7zm42.598 0c-1.84 0-2.967-.97-3.604-1.786a1.067 1.067 0 0 1-.21-.825c.047-.308.221-.587.479-.763.716-.492 1.49-.741 2.302-.741h.169c2.401 0 4.505 2.177 4.987 2.713-1.463.931-2.822 1.403-4.039 1.403h-.084zm-21.48.223c-.598 0-1.202-.014-1.806-.043C23.789 81.03 7.995 65.083 7.057 45.636 6.123 26.26 19.649 9.221 38.52 6.005h.025c.29 0 .478.128.564.323a.547.547 0 0 1-.4.772C21.67 10.19 8.82 25.936 8.82 43.73c0 19.758 15.74 35.304 35.832 35.391h.162c19.551 0 35.358-15.006 35.987-34.16.6-18.29-12.16-34.551-29.683-37.826a.551.551 0 0 1-.37-.257.537.537 0 0 1-.054-.436.555.555 0 0 1 .526-.408C69.458 9.23 82.63 25.08 82.63 43.729c0 10.202-3.939 19.805-11.087 27.038C64.393 78 54.903 81.984 44.822 81.984h-.003zm-16.08 3.857c-.585 0-1.219-.06-1.89-.18.296-.816 1.877-4.71 5.09-4.71.302 0 .613.034.927.102.303.065.568.257.726.525.154.259.194.56.112.843-.366 1.277-1.495 3.42-4.965 3.42zm32.523 0c-3.469 0-4.601-2.143-4.968-3.42a1.065 1.065 0 0 1 .114-.844c.158-.268.422-.46.724-.524.315-.068.626-.102.927-.102 3.215 0 4.796 3.894 5.092 4.71-.67.12-1.306.18-1.89.18zm-26.695 2.41c.12-.94.928-5.788 4.855-5.847.322 0 .618.129.828.354.204.217.306.498.29.792-.096 1.656-1.001 4.452-5.973 4.701zm20.865 0c-4.974-.25-5.877-3.045-5.972-4.7a1.062 1.062 0 0 1 .29-.793c.21-.225.506-.354.812-.354 3.943.06 4.75 4.907 4.87 5.847zM45.029 90c-1.614-1.523-2.405-2.95-2.348-4.244.05-1.213.846-2.08 1.503-2.593.224-.173.528-.27.86-.27.404 0 .79.139 1.06.377.859.764 1.288 1.638 1.27 2.598-.035 1.963-1.91 3.744-2.345 4.132z" opacity=".4" fill="#E6E7EA"/>
        </g>
        <path d="M36.16 93c-.506 0-2.16-.223-2.16-3.096 0-2.503.513-4.935 1.524-7.23 1.126-2.564 2.71-4.482 4.71-5.699 1.914-1.183 3.271-2.155 4.029-2.886 1.217-1.165 1.833-2.35 1.833-3.522 0-2.783-1.18-2.783-1.96-2.783-.326 0-.79.078-1.283.67.858.933 1.292 1.956 1.292 3.049 0 1.335-.534 2.496-1.543 3.357-.948.809-2.048 1.219-3.268 1.219-1.992 0-5.334-.78-5.334-6.003 0-2.522 1.312-4.603 3.9-6.186C39.944 62.636 42.17 62 44.518 62c2.845 0 5.27.744 7.208 2.213 2.25 1.7 3.39 4.092 3.39 7.108 0 2.543-.87 4.842-2.583 6.832-1.073 1.297-2.984 2.51-5.836 3.696-.769.32-1.482.658-2.135 1.013.854.11 1.792.333 2.805.664 1.65.54 2.372.621 2.656.621.72 0 1.18-.222 1.405-1.36l.339-1.721 1.528.773C55.04 82.72 56 84.288 56 86.25c0 1.926-.547 3.502-1.627 4.684-1.098 1.205-2.606 1.816-4.48 1.816-.96 0-2.262-.24-3.978-.734-1.461-.421-2.59-.634-3.351-.634-.794 0-1.922.248-3.351.739C36.656 93 36.415 93 36.16 93" fill="#A1FF00"/>
        <path d="M36.16 92.321c-.56 0-1.503-.314-1.503-2.418 0-2.405.494-4.743 1.466-6.947 1.069-2.436 2.565-4.252 4.444-5.397 1.956-1.208 3.352-2.21 4.145-2.974 1.355-1.297 2.041-2.648 2.041-4.018 0-3.068-1.398-3.462-2.617-3.462-.86 0-1.566.468-2.15 1.427.996.912 1.501 1.909 1.501 2.97 0 1.143-.439 2.097-1.304 2.834-.827.706-1.786 1.064-2.85 1.064-2.133 0-4.676-.924-4.676-5.324 0-2.265 1.204-4.15 3.578-5.602 1.942-1.191 4.057-1.795 6.283-1.795 2.702 0 4.997.7 6.818 2.08 2.072 1.567 3.122 3.774 3.122 6.561 0 2.373-.813 4.52-2.416 6.382-1.009 1.22-2.84 2.373-5.59 3.517-1.64.682-3.027 1.443-4.144 2.272a16.57 16.57 0 0 1 1.044-.033c1.081 0 2.365.24 3.816.715 1.647.54 2.462.653 2.855.653 1.157 0 1.789-.587 2.049-1.904l.17-.86.764.386c1.528.773 2.336 2.088 2.336 3.803 0 1.747-.487 3.167-1.447 4.218-.97 1.065-2.317 1.603-4.002 1.603-.9 0-2.143-.231-3.801-.709-1.52-.437-2.706-.66-3.528-.66-.865 0-2.063.262-3.558.775-2.457.843-2.681.843-2.845.843" fill="#000"/>
        <path d="M54.685 86.251c0 1.576-.423 2.827-1.269 3.754-.846.926-2.02 1.389-3.523 1.389-.833 0-2.041-.229-3.624-.685-1.585-.456-2.82-.684-3.706-.684-.94 0-2.195.27-3.765.809-1.57.54-2.45.809-2.637.809-.564 0-.846-.58-.846-1.74 0-2.319.468-4.54 1.406-6.666 1.019-2.318 2.412-4.016 4.18-5.093 2.01-1.241 3.43-2.263 4.26-3.064 1.5-1.435 2.25-2.94 2.25-4.513 0-2.76-1.092-4.14-3.274-4.14-1.251 0-2.25.757-2.995 2.269 1.126.88 1.688 1.816 1.688 2.807 0 .935-.355 1.705-1.065 2.31-.71.606-1.521.908-2.432.908-2.679 0-4.018-1.548-4.018-4.645 0-2.018 1.085-3.69 3.255-5.018 1.848-1.133 3.83-1.7 5.947-1.7 2.573 0 4.716.65 6.43 1.948 1.902 1.439 2.854 3.443 2.854 6.015 0 2.212-.75 4.188-2.25 5.93-.939 1.134-2.72 2.247-5.346 3.339-2.625 1.092-4.608 2.371-5.947 3.836 1.07-.193 2.103-.29 3.094-.29 1.018 0 2.224.228 3.617.684 1.393.456 2.41.685 3.054.685 1.473 0 2.371-.815 2.693-2.447 1.312.663 1.969 1.728 1.969 3.193" fill="#A1FF00"/>
    </g>
</svg>
